<svg xmlns="http://www.w3.org/2000/svg" width="85" height="90" viewBox="0 0 85 90">
  <g id="Grupo_959317" data-name="Grupo 959317" transform="translate(-1020 -3134)">
    <circle id="Elipse_6696" data-name="Elipse 6696" cx="42.5" cy="42.5" r="42.5" transform="translate(1020 3136)" fill="#badc61"/>
    <g id="Grupo_958667" data-name="Grupo 958667" transform="translate(740.066 51)">
      <g id="barra" transform="translate(294.688 3083)">
        <path id="Trazado_723050" data-name="Trazado 723050" d="M98.137,361.154a2.637,2.637,0,0,1-2.637-2.637V330.582h5.273v27.935A2.637,2.637,0,0,1,98.137,361.154Zm0,0" transform="translate(-78.713 -272.472)" fill="#588aa3"/>
        <path id="Trazado_723051" data-name="Trazado 723051" d="M98.137,7.5a2.637,2.637,0,0,1,2.637,2.637V64.292H95.5V10.137A2.637,2.637,0,0,1,98.137,7.5Zm0,0" transform="translate(-78.713 -6.182)" fill="#d4e157"/>
        <path id="Trazado_723052" data-name="Trazado 723052" d="M187.137,361.154a2.637,2.637,0,0,1-2.637-2.637V330.582h5.273v27.935A2.637,2.637,0,0,1,187.137,361.154Zm0,0" transform="translate(-152.068 -272.472)" fill="#588aa3"/>
        <path id="Trazado_723053" data-name="Trazado 723053" d="M187.137,7.5a2.637,2.637,0,0,1,2.637,2.637V64.292H184.5V10.137A2.637,2.637,0,0,1,187.137,7.5Zm0,0" transform="translate(-152.068 -6.182)" fill="#ffd740"/>
        <path id="Trazado_723054" data-name="Trazado 723054" d="M10.137,361.154A2.637,2.637,0,0,1,7.5,358.517V330.582h5.273v27.935A2.637,2.637,0,0,1,10.137,361.154Zm0,0" transform="translate(-6.182 -272.472)" fill="#588aa3"/>
        <path id="Trazado_723055" data-name="Trazado 723055" d="M10.137,7.5a2.637,2.637,0,0,1,2.637,2.637V64.292H7.5V10.137A2.637,2.637,0,0,1,10.137,7.5Zm0,0" transform="translate(-6.182 -6.182)" fill="#26c6da"/>
        <path id="Trazado_723056" data-name="Trazado 723056" d="M275.137,361.154a2.637,2.637,0,0,1-2.637-2.637V330.582h5.273v27.935A2.637,2.637,0,0,1,275.137,361.154Zm0,0" transform="translate(-224.6 -272.472)" fill="#588aa3"/>
        <path id="Trazado_723057" data-name="Trazado 723057" d="M275.137,7.5a2.637,2.637,0,0,1,2.637,2.637V64.292H272.5V10.137A2.637,2.637,0,0,1,275.137,7.5Zm0,0" transform="translate(-224.6 -6.182)" fill="#f5f5f5"/>
        <path id="Trazado_723058" data-name="Trazado 723058" d="M91.955,0A3.96,3.96,0,0,0,88,3.955v82.09a3.955,3.955,0,0,0,7.91,0v-18.6a1.318,1.318,0,0,0-2.637,0v18.6a1.318,1.318,0,0,1-2.637,0V59.428h2.637v2.488a1.318,1.318,0,1,0,2.637,0V3.955A3.96,3.96,0,0,0,91.955,0ZM90.637,56.792V3.955a1.318,1.318,0,1,1,2.637,0V56.792Zm0,0" transform="translate(-72.531)"/>
        <path id="Trazado_723059" data-name="Trazado 723059" d="M180.955,0A3.96,3.96,0,0,0,177,3.955v82.09a3.955,3.955,0,0,0,7.91,0V3.955A3.96,3.96,0,0,0,180.955,0Zm-1.318,3.955a1.318,1.318,0,1,1,2.637,0V56.792h-2.637Zm2.637,82.09a1.318,1.318,0,0,1-2.637,0V59.428h2.637Zm0,0" transform="translate(-145.887)"/>
        <path id="Trazado_723060" data-name="Trazado 723060" d="M3.955,0A3.96,3.96,0,0,0,0,3.955V22.411a1.318,1.318,0,0,0,2.637,0V3.955a1.318,1.318,0,1,1,2.637,0V56.792H2.637V28.069a1.318,1.318,0,0,0-2.637,0V86.045a3.955,3.955,0,0,0,7.91,0V3.955A3.96,3.96,0,0,0,3.955,0ZM5.273,86.045a1.318,1.318,0,1,1-2.637,0V59.428H5.273Zm0,0"/>
        <path id="Trazado_723061" data-name="Trazado 723061" d="M271.592,51.871a1.318,1.318,0,0,0,1.318-1.318V3.955a3.955,3.955,0,1,0-7.91,0v82.09a3.955,3.955,0,0,0,7.91,0v-29.8a1.318,1.318,0,0,0-2.637,0v.549h-2.637V3.955a1.318,1.318,0,0,1,2.637,0v46.6a1.318,1.318,0,0,0,1.318,1.318Zm-1.318,7.557V86.045a1.318,1.318,0,0,1-2.637,0V59.429Zm0,0" transform="translate(-218.418)"/>
      </g>
    </g>
  </g>
</svg>
