<svg xmlns="http://www.w3.org/2000/svg" width="66" height="57.334" viewBox="0 0 66 57.334">
  <g id="filtro-de-agua" transform="translate(-1 -5.036)">
    <path id="Trazado_722761" data-name="Trazado 722761" d="M65.938,56H60.5v-4.7a11.6,11.6,0,0,0,3.242-1.5l.531-.357a1.062,1.062,0,0,0,.477-.884V8.185a1.063,1.063,0,0,0-.473-.884l-.531-.357a11.778,11.778,0,0,0-12.856,0l-.531.357a1.062,1.062,0,0,0-.483.884v4.25h-4.25V8.185A1.063,1.063,0,0,0,45.15,7.3l-.531-.357a11.778,11.778,0,0,0-12.856,0l-.531.357a1.062,1.062,0,0,0-.483.884V40.058h-8.5V37.933a5.319,5.319,0,0,0-5.312-5.312H10.562A5.319,5.319,0,0,0,5.25,37.933V49.62a1.062,1.062,0,0,0-1.062,1.062V56H2.062A1.062,1.062,0,0,0,1,57.057v4.25A1.062,1.062,0,0,0,2.062,62.37H65.938A1.062,1.062,0,0,0,67,61.307v-4.25A1.062,1.062,0,0,0,65.938,56ZM52,8.754l.063-.041a9.616,9.616,0,0,1,10.5,0l.063.041V47.99l-.063.041a9.616,9.616,0,0,1-10.5,0L52,47.99ZM41.373,51.295a11.6,11.6,0,0,0,3.242-1.5l.531-.357a1.062,1.062,0,0,0,.477-.884V18.81h4.25V48.558a1.063,1.063,0,0,0,.473.884l.531.357a11.6,11.6,0,0,0,3.246,1.5V56H41.373Zm8.5-36.735v2.125h-4.25V14.56Zm-17-5.806.063-.041a9.616,9.616,0,0,1,10.5,0l.063.041V47.99l-.063.041a9.616,9.616,0,0,1-10.5,0l-.063-.041ZM22.249,49.62V46.433h8.5v2.125a1.063,1.063,0,0,0,.473.884l.531.357A11.6,11.6,0,0,0,35,51.295V56H23.311V50.683A1.062,1.062,0,0,0,22.249,49.62Zm8.5-7.437v2.125h-8.5V42.183ZM7.375,37.933a3.187,3.187,0,0,1,3.187-3.187h6.375a3.187,3.187,0,0,1,3.187,3.187V49.62H7.375ZM6.312,51.745H21.186V56H6.312Zm58.563,8.5H3.125V58.12H36.061a1.062,1.062,0,0,0,1.062-1.062V51.691c.352.032.705.054,1.062.054s.711-.022,1.062-.054v5.366A1.062,1.062,0,0,0,40.31,58.12H55.185a1.062,1.062,0,0,0,1.062-1.062V51.691c.352.032.705.054,1.062.054s.711-.022,1.062-.054v5.366a1.062,1.062,0,0,0,1.062,1.062h5.441Z" transform="translate(0 0)" fill="#52c194"/>
    <path id="Trazado_722762" data-name="Trazado 722762" d="M36.187,27.5a3.187,3.187,0,0,0,3.187-3.187c0-1.358-1.617-3.846-2.313-4.853a1.1,1.1,0,0,0-1.749,0c-.7,1.007-2.313,3.5-2.313,4.853A3.187,3.187,0,0,0,36.187,27.5Zm0-5.467a7.968,7.968,0,0,1,1.062,2.28,1.062,1.062,0,1,1-2.125,0A7.923,7.923,0,0,1,36.187,22.031Z" transform="translate(1.998 0.874)" fill="#6bc5a0"/>
    <path id="Trazado_722763" data-name="Trazado 722763" d="M54.187,27.5a3.187,3.187,0,0,0,3.187-3.187c0-1.358-1.617-3.846-2.313-4.853a1.1,1.1,0,0,0-1.749,0c-.7,1.007-2.313,3.5-2.313,4.853A3.187,3.187,0,0,0,54.187,27.5Zm0-5.467a7.968,7.968,0,0,1,1.062,2.28,1.062,1.062,0,1,1-2.125,0A7.922,7.922,0,0,1,54.187,22.031Z" transform="translate(3.122 0.874)" fill="#6bc5a0"/>
  </g>
</svg>
