<svg xmlns="http://www.w3.org/2000/svg" width="296.875" height="294.457" viewBox="0 0 296.875 294.457">
  <g id="Grupo_957088" data-name="Grupo 957088" transform="translate(-93.066 -92.308)">
    <g id="Grupo_957031" data-name="Grupo 957031" transform="translate(281.486 92.308)">
      <path id="Trazado_724360" data-name="Trazado 724360" d="M516.77,172.272l.609,7.626-6.18.112-.019-7.152Z" transform="translate(-499.536 -134.01)" fill="#ff9985"/>
      <g id="Grupo_956998" data-name="Grupo 956998" transform="translate(2.328 22.319)">
        <g id="Grupo_956993" data-name="Grupo 956993" transform="translate(12.491 3.966)">
          <path id="Trazado_724361" data-name="Trazado 724361" d="M519.369,147.242a1.193,1.193,0,0,0-1.222,1.156l-.331,6.051a1.159,1.159,0,1,0,2.31.127l.331-6.051A1.194,1.194,0,0,0,519.369,147.242Z" transform="translate(-517.814 -147.241)" fill="#ff9985"/>
        </g>
        <path id="Trazado_724362" data-name="Trazado 724362" d="M499.028,158.558a5.158,5.158,0,0,1-.395-2.715,2.992,2.992,0,0,1,.941-1.444,13.9,13.9,0,0,1,3.569-2.515,4.066,4.066,0,0,1,4.351.108,6.914,6.914,0,0,1,2.638,4.4c.56,3.1.733,4.215-.288,6.6-1.279,2.982-3.627,3.943-6.709.7C501.548,162.009,499.755,160.6,499.028,158.558Z" transform="translate(-495.287 -145.392)" fill="#ff9985"/>
        <g id="Grupo_956994" data-name="Grupo 956994" transform="translate(4.333)">
          <path id="Trazado_724363" data-name="Trazado 724363" d="M507.248,147.017l-6.1-6.239c-.413-.423-.552-.96-.13-1.373l.147-.147a1.076,1.076,0,0,1,1.519.017l6.1,6.239a1.075,1.075,0,1,1-1.536,1.5Z" transform="translate(-500.765 -138.953)" fill="#ff9985"/>
        </g>
        <g id="Grupo_956995" data-name="Grupo 956995" transform="translate(1.727 1.415)">
          <path id="Trazado_724364" data-name="Trazado 724364" d="M501.722,149.974l-6.1-6.239a1.075,1.075,0,1,1,1.535-1.5l6.1,6.239a1.074,1.074,0,0,1-1.535,1.5Z" transform="translate(-495.32 -141.909)" fill="#ff9985"/>
        </g>
        <g id="Grupo_956996" data-name="Grupo 956996" transform="translate(0.265 4.544)">
          <path id="Trazado_724365" data-name="Trazado 724365" d="M498.666,156.514l-6.1-6.239a1.075,1.075,0,0,1,1.535-1.5l6.1,6.239a1.075,1.075,0,0,1-1.536,1.5Z" transform="translate(-492.264 -148.449)" fill="#ff9985"/>
        </g>
        <g id="Grupo_956997" data-name="Grupo 956997" transform="translate(0 7.858)">
          <path id="Trazado_724366" data-name="Trazado 724366" d="M498.112,163.44l-6.1-6.239a1.074,1.074,0,1,1,1.535-1.5l6.1,6.239a1.075,1.075,0,1,1-1.535,1.5Z" transform="translate(-491.71 -155.376)" fill="#ff9985"/>
        </g>
      </g>
      <g id="Grupo_957001" data-name="Grupo 957001" transform="translate(0 9.753)">
        <g id="Grupo_956999" data-name="Grupo 956999">
          <path id="Trazado_724367" data-name="Trazado 724367" d="M498.025,130.973h-.634l-10.365,20.771a1.7,1.7,0,0,0,1.524,2.467h18.317a1.7,1.7,0,0,0,1.524-2.467Z" transform="translate(-486.844 -122.225)" fill="#fff"/>
          <rect id="Rectángulo_339649" data-name="Rectángulo 339649" width="3.927" height="16.951" transform="translate(8.9 0.273)" fill="#fff"/>
          <path id="Rectángulo_339650" data-name="Rectángulo 339650" d="M.322,0h3.8A.322.322,0,0,1,4.44.322v0a.322.322,0,0,1-.322.322H.322A.322.322,0,0,1,0,.322v0A.322.322,0,0,1,.322,0Z" transform="translate(8.644)" fill="#fff"/>
        </g>
        <g id="Grupo_957000" data-name="Grupo 957000" transform="translate(1.766 25.332)">
          <path id="Trazado_724368" data-name="Trazado 724368" d="M506.944,165.632H492.319l-1.633,3.273a1.428,1.428,0,0,0,1.276,2.066H507.3a1.427,1.427,0,0,0,1.276-2.066Z" transform="translate(-490.534 -165.632)" fill="#f9e47a"/>
        </g>
      </g>
      <path id="Trazado_724369" data-name="Trazado 724369" d="M633.061,524.319c.246,2.268.573,4.528.73,6.8.409,5.934-.338,11.9-.013,17.838.473,8.668,3.207,17.042,4.385,25.641.49,3.572.553,7.656-1.922,10.258a1.245,1.245,0,0,1-1.046.506c-.514-.1-.725-.71-.833-1.227-.55-2.635-.891-5.308-1.232-7.979l-2.758-21.6c-.868-6.795-1.736-13.6-2.126-20.435-.548-9.588-.156-19.2.236-28.8a45.307,45.307,0,0,1,.622-6.8c.2-1.012.608-2.171,1.591-2.457,4.437-1.291,2.107,9.946,2.006,11.5A96.993,96.993,0,0,0,633.061,524.319Z" transform="translate(-560.445 -302.819)" fill="#6d72a0"/>
      <path id="Trazado_724370" data-name="Trazado 724370" d="M694.348,512.661c-.1,4.759-.614,9.533-.115,14.267.294,2.789.937,5.529,1.292,8.311,1.153,9.04-.759,18.309.818,27.284.737,4.2,2.225,8.234,2.98,12.429a19.677,19.677,0,0,1-.844,10.832.609.609,0,0,1-1.182-.018c-3.1-8.844-4.823-18.121-6.33-27.378-2.7-16.578-4.756-33.373-3.593-50.149a21.055,21.055,0,0,1,1.477-6.56,4.455,4.455,0,0,1,1.027-1.625c2.521-2.317,3.876.517,4.081,2.62A84.357,84.357,0,0,1,694.348,512.661Z" transform="translate(-591.249 -304.499)" fill="#6d72a0"/>
      <g id="Grupo_957002" data-name="Grupo 957002" transform="translate(93.527 271.344)">
        <path id="Trazado_724371" data-name="Trazado 724371" d="M692.113,659.389l.569,17.788-7.352.624-2.752-3.783.5-.758-.77-13.043Z" transform="translate(-682.307 -659.389)" fill="#ff9985"/>
      </g>
      <g id="Grupo_957004" data-name="Grupo 957004" transform="translate(82.182 285.291)">
        <g id="Grupo_957003" data-name="Grupo 957003">
          <path id="Trazado_724372" data-name="Trazado 724372" d="M670.739,688.537l-9.784,3.33c-2.395.815-2.847,2.492-1.9,3.739l22.672-.529-.909-5a1.878,1.878,0,0,0-1.846-1.542Z" transform="translate(-658.595 -688.537)" fill="#fff"/>
          <path id="Trazado_724373" data-name="Trazado 724373" d="M682.239,702.206l.251.847c.156.527-.479,1.019-1.324,1.028l-17.618.189a4.841,4.841,0,0,1-3.982-1.535Z" transform="translate(-659.102 -695.665)" fill="#000543"/>
        </g>
        <rect id="Rectángulo_339651" data-name="Rectángulo 339651" width="4.411" height="1.592" rx="0.458" transform="translate(16.452 4.415)" fill="#000543"/>
      </g>
      <g id="Grupo_957005" data-name="Grupo 957005" transform="translate(62.351 271.905)">
        <path id="Trazado_724374" data-name="Trazado 724374" d="M626.959,660.561l.569,17.788-7.352.624-2.752-3.783.5-.758-.77-13.043Z" transform="translate(-617.152 -660.561)" fill="#ff9985"/>
      </g>
      <g id="Grupo_957007" data-name="Grupo 957007" transform="translate(51.006 285.852)">
        <g id="Grupo_957006" data-name="Grupo 957006">
          <path id="Trazado_724375" data-name="Trazado 724375" d="M605.585,689.709l-9.784,3.33c-2.394.815-2.848,2.492-1.9,3.739l22.672-.529-.909-5a1.878,1.878,0,0,0-1.847-1.542Z" transform="translate(-593.441 -689.709)" fill="#fff"/>
          <path id="Trazado_724376" data-name="Trazado 724376" d="M617.084,703.377l.25.847c.156.527-.478,1.019-1.323,1.028l-17.618.189a4.841,4.841,0,0,1-3.982-1.535Z" transform="translate(-593.947 -696.837)" fill="#000543"/>
        </g>
        <rect id="Rectángulo_339652" data-name="Rectángulo 339652" width="4.411" height="1.592" rx="0.458" transform="translate(16.452 4.415)" fill="#000543"/>
      </g>
      <g id="Grupo_957008" data-name="Grupo 957008" transform="translate(44.423 177.535)">
        <path id="Trazado_724377" data-name="Trazado 724377" d="M606.843,463.337l-.148,2.944c-2.671,53.186,2.784,82.9,5.913,97.453a4.283,4.283,0,0,1-4.186,5.189H597.17A5.942,5.942,0,0,1,591.3,563.9c-3.816-24.316-6.809-47.231-8.059-58.9-1.7-15.9-2.671-28.134-3.563-41.659Z" transform="translate(-579.683 -463.337)" fill="#6d72a0"/>
        <path id="Trazado_724378" data-name="Trazado 724378" d="M644.138,463.337H671.3l-.147,2.944c-2.593,51.618,2.578,80.94,5.683,97.586a4.272,4.272,0,0,1-4.2,5.056H660.28a4.277,4.277,0,0,1-4.222-3.6c-4.118-25.873-7.146-49-8.359-60.322C646.012,489.229,645.046,477.113,644.138,463.337Z" transform="translate(-613.297 -463.337)" fill="#6d72a0"/>
      </g>
      <path id="Trazado_724379" data-name="Trazado 724379" d="M695.516,331.6c.485,3.228,1.58,6.344,2.021,9.579.859,6.312-.809,12.694-.694,19.064s2.008,12.562,3.009,18.856,1.007,13.131-2.3,18.575q-2.976-42.088-5.951-84.176c-.167-2.364-.328-6.187,1.846-7.8,2.63-1.955,2.656.386,2.616,2.583C695.925,315.943,694.372,323.984,695.516,331.6Z" transform="translate(-593.579 -203.209)" fill="#fff"/>
      <path id="Trazado_724380" data-name="Trazado 724380" d="M529.5,265.18a21.179,21.179,0,0,0-3.167,1.362,25.787,25.787,0,0,1-2.337,1.565,8.475,8.475,0,0,1-3.865.509l14.451-10.246c.947-.671,12.038-8.793,13.074-7.91C546.774,253.725,532.391,263.993,529.5,265.18Z" transform="translate(-504.203 -174.75)" fill="#fff"/>
      <path id="Trazado_724381" data-name="Trazado 724381" d="M507.685,236.417l11.345-15.172-.641-.836,24.838-18.257a5.424,5.424,0,0,1,4.13-1.115,1.931,1.931,0,0,1,1.41.792l7.174,10.015-39.1,30.038a6.42,6.42,0,0,1-6.757,1.18,5.84,5.84,0,0,1-.9-.489c-1.769-1.18-2.626-3.255-2.551-6.184Z" transform="translate(-497.161 -148.98)" fill="#fff"/>
      <path id="Trazado_724382" data-name="Trazado 724382" d="M628.274,270.3l1.275-79.871a106.808,106.808,0,0,0-20.884,1.051q-1.148.19-2.272.414l-.951.192-.245.051L598.307,270.3Z" transform="translate(-544.973 -143.427)" fill="#a0dcf9"/>
      <path id="Trazado_724383" data-name="Trazado 724383" d="M561.777,208.247c3.93-13.759,24.369-16,24.369-16l6.384,56.236L610.5,190.537c.7.026,1.4.052,2.094.088,1.614.083,3.206.181,4.739.306,9.659,1.27,18.746,12.68,14.181,29.088L626.97,259.26a56.973,56.973,0,0,0-.255,10.28l4.271,65.031c.214,2.491-.453,3.28-2.95,3.28l-53.3.093a6.152,6.152,0,0,1-6.158-6.043L566.8,234.027Z" transform="translate(-525.922 -143.535)" fill="#fff"/>
      <g id="Grupo_957009" data-name="Grupo 957009" transform="translate(40.735 87.895)">
        <path id="Trazado_724384" data-name="Trazado 724384" d="M573.818,377.328h.653a5.674,5.674,0,0,1-.073-.775L572.62,276.316a.322.322,0,1,0-.644.011l1.778,100.237A6.352,6.352,0,0,0,573.818,377.328Z" transform="translate(-571.976 -275.999)" fill="#d7e1fc"/>
      </g>
      <g id="Grupo_957010" data-name="Grupo 957010" transform="translate(54.019 48.46)">
        <path id="Trazado_724385" data-name="Trazado 724385" d="M610.816,242.121a.322.322,0,0,1-.309-.232L601.316,210.2a2.2,2.2,0,0,1,.8-2.372l1.591-1.183a.434.434,0,0,0-.009-.7l-3.362-2.372a1.4,1.4,0,0,1-.381-1.891l5.213-7.952a.322.322,0,1,1,.538.354l-5.209,7.945a.757.757,0,0,0,.209,1.016l3.362,2.371a1.079,1.079,0,0,1,.022,1.747l-1.591,1.183a1.557,1.557,0,0,0-.563,1.675l9.191,31.688a.321.321,0,0,1-.309.412Z" transform="translate(-599.739 -193.584)" fill="#d7e1fc"/>
      </g>
      <g id="Grupo_957011" data-name="Grupo 957011" transform="translate(41.96 72.761)">
        <rect id="Rectángulo_339653" data-name="Rectángulo 339653" width="12.819" height="7.471" rx="1.5" transform="translate(12.819 7.471) rotate(180)" fill="#d7e1fc"/>
      </g>
      <g id="Grupo_957012" data-name="Grupo 957012" transform="translate(48.025 70.296)">
        <path id="Trazado_724386" data-name="Trazado 724386" d="M587.885,239.894v0Z" transform="translate(-587.563 -239.572)" fill="#fff"/>
        <path id="Trazado_724387" data-name="Trazado 724387" d="M587.534,241.579a.323.323,0,0,1-.322-.323v-1.714a.322.322,0,1,1,.645,0v1.714A.323.323,0,0,1,587.534,241.579Z" transform="translate(-587.212 -239.22)" fill="#0959a7"/>
      </g>
      <g id="Grupo_957013" data-name="Grupo 957013" transform="translate(69.566 47.006)">
        <path id="Trazado_724388" data-name="Trazado 724388" d="M632.551,239.413a.318.318,0,0,1-.15-.037.323.323,0,0,1-.135-.435l15.363-29.194a1.556,1.556,0,0,0-.215-1.754l-1.321-1.479a1.078,1.078,0,0,1,.372-1.706l3.769-1.647a.758.758,0,0,0,.407-.959l-3.685-11.232a.322.322,0,1,1,.612-.2l3.681,11.219a1.4,1.4,0,0,1-.757,1.763l-3.769,1.647a.434.434,0,0,0-.15.687l1.321,1.479a2.2,2.2,0,0,1,.3,2.484l-15.363,29.194A.322.322,0,0,1,632.551,239.413Z" transform="translate(-632.229 -190.546)" fill="#d7e1fc"/>
      </g>
      <path id="Trazado_724389" data-name="Trazado 724389" d="M517.079,183.276l1.38,29.674L507.67,227.211a1.577,1.577,0,0,1-1.751.559,1.634,1.634,0,0,1-.415-.2,1.581,1.581,0,0,1-.7-1.266l-1.514-40.39a3.811,3.811,0,0,1,3.437-3.938l7.958-.777A2.185,2.185,0,0,1,517.079,183.276Z" transform="translate(-495.419 -138.661)" fill="#fff"/>
      <g id="Grupo_957019" data-name="Grupo 957019" transform="translate(57.466)">
        <path id="Trazado_724390" data-name="Trazado 724390" d="M607.747,104.365c.333-.3.757-.484,1.064-.812.685-.733.538-1.838.733-2.8s1.411-1.976,2-1.276c-.177-1.451-.254-3.185.875-4.234,2.124-1.972,5.63.823,7.934-.917.689-.52,1.122-1.371,1.872-1.782a2.409,2.409,0,0,1,2.954.807,7.328,7.328,0,0,1,1.007,1.981,1.785,1.785,0,0,0,.232.154,2.937,2.937,0,0,0,1.983.159c1.645-.183,2.973,1.239,3.66,3,.288.742,1.615-.114,1.965.6.8,1.615,2.75,2.554,2.933,4.4.1,1-.371,2.077-.144,3.046.24,1.029,1.229,1.753,1.236,2.832.01,1.714-1.71,3.095-1.987,4.743-.131.776-.935,1.425-.99,1.714a3.826,3.826,0,0,1-.861,1.719,41.121,41.121,0,0,1-2.131,6.047,11.457,11.457,0,0,1-2.5,3.76c-.01.009-1.453,1.237-1.451,1.225a15.3,15.3,0,0,0,.337-3.032,9.388,9.388,0,0,0,1.181-3.219,3.447,3.447,0,0,0,.66-6.742l-2.149.31c-6.612-1.576-4.094-8.382-10.09-9.917-3.9-1-6.36-.481-7.613,0a10.88,10.88,0,0,0-1.736,4.949l-.064.014c.014-.087-.706-.831-.575-1.482l-.082.058C606.952,108.668,606.38,105.6,607.747,104.365Z" transform="translate(-606.942 -92.308)" fill="#000543"/>
        <path id="Trazado_724391" data-name="Trazado 724391" d="M619.283,120.58c6,1.535,3.478,8.341,10.09,9.917l2.149-.31a3.456,3.456,0,0,1-.606,6.752,10.781,10.781,0,0,1-1.234,3.209,12.347,12.347,0,0,1-11.22,5.726c-5.958-.37-9.549-5.134-9.15-11.184l.584-8.854c.007-.1.029-.2.038-.305a10.882,10.882,0,0,1,1.736-4.949C612.923,120.1,615.387,119.583,619.283,120.58Z" transform="translate(-608.162 -106.755)" fill="#ff9985"/>
        <g id="Grupo_957014" data-name="Grupo 957014" transform="translate(9.3 24.432)">
          <path id="Trazado_724392" data-name="Trazado 724392" d="M626.381,169.054l2.114-23.887a1.963,1.963,0,0,1,2.1-1.791l7.7.64a1.942,1.942,0,0,1,1.754,2.112L637.934,170C628.518,175.4,626.287,170.127,626.381,169.054Z" transform="translate(-626.378 -143.368)" fill="#ff9985"/>
        </g>
        <g id="Grupo_957015" data-name="Grupo 957015" transform="translate(10.68 18.833)">
          <path id="Trazado_724393" data-name="Trazado 724393" d="M629.962,131.668l2.455.165a.647.647,0,0,1,.607.686.654.654,0,0,1-.7.6l-2.455-.164a.648.648,0,0,1-.607-.686A.654.654,0,0,1,629.962,131.668Z" transform="translate(-629.263 -131.667)" fill="#000543"/>
        </g>
        <g id="Grupo_957016" data-name="Grupo 957016" transform="translate(1.015 18.048)">
          <path id="Trazado_724394" data-name="Trazado 724394" d="M609.763,130.027l2.455.164a.648.648,0,0,1,.607.686.655.655,0,0,1-.7.6l-2.455-.164a.644.644,0,1,1,.091-1.285Z" transform="translate(-609.064 -130.026)" fill="#000543"/>
        </g>
        <g id="Grupo_957017" data-name="Grupo 957017" transform="translate(3.077 20.488)">
          <path id="Trazado_724395" data-name="Trazado 724395" d="M613.377,136.219c-.045.63.256,1.164.672,1.192s.789-.461.834-1.091-.256-1.164-.672-1.192S613.422,135.589,613.377,136.219Z" transform="translate(-613.373 -135.127)" fill="#000543"/>
        </g>
        <g id="Grupo_957018" data-name="Grupo 957018" transform="translate(12.271 21.278)">
          <path id="Trazado_724396" data-name="Trazado 724396" d="M632.591,137.869c-.045.63.256,1.164.672,1.191s.789-.46.833-1.091-.256-1.164-.672-1.191S632.636,137.238,632.591,137.869Z" transform="translate(-632.587 -136.777)" fill="#000543"/>
        </g>
        <path id="Trazado_724397" data-name="Trazado 724397" d="M619.049,145.231l.109-.209a1.277,1.277,0,0,0,.85,1.132l1.251.437a1,1,0,0,0,1.1-.326l.018.124a1.016,1.016,0,0,1-1.35,1.089l-1.252-.437A1.287,1.287,0,0,1,619.049,145.231Z" transform="translate(-613.18 -119.799)" fill="#fa694f"/>
        <path id="Trazado_724398" data-name="Trazado 724398" d="M626.652,155.46l-3.834.725A2.6,2.6,0,0,0,626.652,155.46Z" transform="translate(-615.221 -125.242)" fill="#fff"/>
      </g>
      <path id="Trazado_724399" data-name="Trazado 724399" d="M643.032,188.1s-3.95,6.544-8,7.349l2.112,6.7s8.619-3.505,8.034-12.92Z" transform="translate(-564.125 -142.266)" fill="#fff"/>
      <path id="Trazado_724400" data-name="Trazado 724400" d="M624.13,190.019s-.532,4.842,3.479,6.432l-3.2,5.9a15.082,15.082,0,0,1-3.556-11.08Z" transform="translate(-556.702 -143.265)" fill="#fff"/>
      <path id="Trazado_724401" data-name="Trazado 724401" d="M624.71,211.668a1.429,1.429,0,0,1-.462-.5l-1.1-1.931c-.765-1.34.027-3.457,1.255-3.355l2.5.208c1.228.1,1.666,2.32.694,3.516l-1.4,1.724a1.513,1.513,0,0,1-.368.324l1.4,41.471L621.61,259.1l-3.863-6.5Z" transform="translate(-555.111 -151.535)" fill="#000543"/>
      <path id="Trazado_724402" data-name="Trazado 724402" d="M539.98,203.159c-1.5.921-3.2,3.025-4.539,4.161a29.358,29.358,0,0,0-3.17,2.423,1.24,1.24,0,0,1-1.416.021,1.1,1.1,0,0,1-.391-.919l-1.6-19.775c-.1-1.271-.748-2.977-1.991-2.692-.981.224-1.182,1.517-1.168,2.525q.169,12.148,1.361,24.253c.105,1.068.335,2.315,1.3,2.787a2.808,2.808,0,0,0,2.118-.077,21.386,21.386,0,0,0,6.1-3.8q5.988-4.746,11.955-9.518c2.793-2.228,6.8-4.99,8.014-8.484-2.157-1-5.442,2-7.212,3.088C546.067,199.164,543.252,201.147,539.98,203.159Z" transform="translate(-507.11 -141.35)" fill="#fff"/>
      <path id="Trazado_724403" data-name="Trazado 724403" d="M502.768,201.761c.114,1.15.355,2.287.433,3.44.162,2.4-.383,4.782-.448,7.183a36.188,36.188,0,0,0,.156,3.734l.468,6.116c.309,4.041.345,8.449,2.234,12.034a142.966,142.966,0,0,0,1.459-44.1,2.3,2.3,0,0,0-.889-1.851,2.7,2.7,0,0,0-3.029.859c-.39.88.08,3.081.015,4.089C502.983,196.092,502.486,198.92,502.768,201.761Z" transform="translate(-495.104 -142.288)" fill="#fff"/>
      <g id="Grupo_957020" data-name="Grupo 957020" transform="translate(57.664 15.696)">
        <path id="Trazado_724404" data-name="Trazado 724404" d="M624.921,127.175l-14.987-2.048a1.614,1.614,0,0,0-1.817,1.382l-.746,5.47a1.616,1.616,0,0,0,1.381,1.819l3.075.42a1.188,1.188,0,0,0,1.339-1.03,1.577,1.577,0,0,1,1.4-1.408,1.543,1.543,0,0,1,1.663,1.725,1.316,1.316,0,0,0,1.127,1.468l6.387.873a1.614,1.614,0,0,0,1.817-1.382l.746-5.47A1.615,1.615,0,0,0,624.921,127.175Z" transform="translate(-607.356 -125.112)" fill="#aaeef2"/>
      </g>
      <path id="Trazado_724405" data-name="Trazado 724405" d="M644.772,137.508l-.447,3.387s6.195-1.4,6.2-1.4Z" transform="translate(-568.972 -115.88)" fill="#aaeef2"/>
      <path id="Trazado_724406" data-name="Trazado 724406" d="M573.5,261.072l-5.554-7.022,4.561-2.338,4.734,5.167Z" transform="translate(-529.138 -175.438)" fill="#ff9985"/>
      <g id="Grupo_957021" data-name="Grupo 957021" transform="translate(42.78 65.19)">
        <path id="Trazado_724407" data-name="Trazado 724407" d="M584.732,241.718c2.57,2.276,7.758,7.075,21.528,15.443,2.122,1.289,5.05,0,5.953-2.6l8.162-23.542a7.445,7.445,0,0,1,.829-1.554,1.975,1.975,0,0,1,2.926-.453l15.027,3.552c.593.541-1.767,9.305-2.1,10.132-13.716,34.023-15.727,37.22-19.67,38.784-.312.124-.634.232-.977.346l-.419.141c-6.588,2.231-28.508-18.943-37.735-30.183-.439-.365-1.494-1.329-1.856-1.727-.659-.727,1-2.415,1.686-3.26l3.812-4.675A1.975,1.975,0,0,1,584.732,241.718Z" transform="translate(-576.249 -228.548)" fill="#fff"/>
      </g>
      <g id="Grupo_957023" data-name="Grupo 957023" transform="translate(42.212 66.761)">
        <g id="Grupo_957022" data-name="Grupo 957022">
          <path id="Trazado_724408" data-name="Trazado 724408" d="M614.326,284.161c-8.466,0-29.884-21.484-37.126-30.307a24.383,24.383,0,0,1-1.836-1.705c-.947-1.047.55-2.87,1.541-4.077l3.945-4.837a2.79,2.79,0,0,1,1.911-1.035,2.308,2.308,0,0,1,1.735.568l.376.333c2.592,2.3,7.983,7.1,21.072,15.049a3.064,3.064,0,0,0,2.682.217,4.107,4.107,0,0,0,2.442-2.519l9.6-23.663a.565.565,0,1,1,1.047.426l-9.589,23.636a5.233,5.233,0,0,1-3.117,3.186,4.241,4.241,0,0,1-3.653-.314c-13.176-8.007-18.62-12.845-21.235-15.171l-.373-.332a1.194,1.194,0,0,0-.894-.289,1.653,1.653,0,0,0-1.126.624l-3.948,4.84c-1.605,1.954-1.637,2.468-1.576,2.6.333.367,1.365,1.311,1.8,1.669,9.413,11.451,31.139,31.9,37.2,29.843l.42-.14c.333-.112.646-.216.947-.336,3.791-1.5,7.238-9.252,20.337-41.743a.566.566,0,1,1,1.049.424C624.288,275,621.24,281.79,616.984,283.478c-.322.127-.654.24-1.007.357l-.416.139A3.838,3.838,0,0,1,614.326,284.161Z" transform="translate(-575.062 -231.831)" fill="#d7e1fc"/>
        </g>
      </g>
      <g id="Grupo_957024" data-name="Grupo 957024" transform="translate(11.277 45.184)">
        <path id="Trazado_724409" data-name="Trazado 724409" d="M511.679,186.737h17.674a3.1,3.1,0,0,1,2.674,2.079l9.618,25a2.078,2.078,0,0,1-1.977,2.615c-16.68.072-18.465.689-19.224-1.29l-9.921-25.834C510.133,188.3,510.836,186.737,511.679,186.737Z" transform="translate(-510.412 -186.737)" fill="#000543"/>
      </g>
      <g id="Grupo_957030" data-name="Grupo 957030" transform="translate(31.35 62.168)">
        <g id="Grupo_957025" data-name="Grupo 957025" transform="translate(11.535 3.485)">
          <path id="Trazado_724410" data-name="Trazado 724410" d="M577.888,229.518a1.089,1.089,0,0,0-1.115,1.055l-.3,5.523a1.057,1.057,0,1,0,2.108.116l.3-5.524A1.089,1.089,0,0,0,577.888,229.518Z" transform="translate(-576.469 -229.517)" fill="#ff9985"/>
        </g>
        <path id="Trazado_724411" data-name="Trazado 724411" d="M559.042,240.127a4.709,4.709,0,0,1-.361-2.479,2.733,2.733,0,0,1,.858-1.317,12.707,12.707,0,0,1,3.258-2.3,3.712,3.712,0,0,1,3.971.1,6.311,6.311,0,0,1,2.408,4.013c.512,2.832.669,3.848-.263,6.021-1.167,2.722-3.311,3.6-6.124.635C561.342,243.277,559.705,241.991,559.042,240.127Z" transform="translate(-555.627 -228.11)" fill="#ff9985"/>
        <g id="Grupo_957026" data-name="Grupo 957026" transform="translate(4.029)">
          <path id="Trazado_724412" data-name="Trazado 724412" d="M566.626,229.594l-5.565-5.695a.981.981,0,0,1,1.4-1.372l5.565,5.695a.981.981,0,1,1-1.4,1.372Z" transform="translate(-560.782 -222.233)" fill="#ff9985"/>
        </g>
        <g id="Grupo_957027" data-name="Grupo 957027" transform="translate(1.577 1.291)">
          <path id="Trazado_724413" data-name="Trazado 724413" d="M561.5,232.292l-5.564-5.695a.981.981,0,1,1,1.4-1.372l5.565,5.695a.981.981,0,1,1-1.4,1.372Z" transform="translate(-555.658 -224.931)" fill="#ff9985"/>
        </g>
        <g id="Grupo_957028" data-name="Grupo 957028" transform="translate(0.242 4.148)">
          <path id="Trazado_724414" data-name="Trazado 724414" d="M558.711,238.262l-5.564-5.695a.981.981,0,0,1,1.4-1.372l5.565,5.695a.981.981,0,1,1-1.4,1.372Z" transform="translate(-552.868 -230.901)" fill="#ff9985"/>
        </g>
        <g id="Grupo_957029" data-name="Grupo 957029" transform="translate(0 7.172)">
          <path id="Trazado_724415" data-name="Trazado 724415" d="M558.206,244.583l-5.565-5.695a.981.981,0,0,1,1.4-1.372l5.565,5.695a.981.981,0,0,1-1.4,1.372Z" transform="translate(-552.363 -237.222)" fill="#ff9985"/>
        </g>
      </g>
    </g>
    <g id="Grupo_957087" data-name="Grupo 957087" transform="translate(93.066 94.185)">
      <g id="Grupo_957072" data-name="Grupo 957072" transform="translate(70.891 5.354)">
        <g id="Grupo_957037" data-name="Grupo 957037" transform="translate(14.641 6.045)">
          <g id="Grupo_957032" data-name="Grupo 957032" transform="translate(0 0.024)">
            <path id="Trazado_724416" data-name="Trazado 724416" d="M283.047,121l-10.771.075a.451.451,0,1,1-.006-.9l10.771-.074a.451.451,0,1,1,.006.9Z" transform="translate(-271.82 -120.103)" fill="#fff"/>
          </g>
          <g id="Grupo_957033" data-name="Grupo 957033" transform="translate(12.725)">
            <path id="Trazado_724417" data-name="Trazado 724417" d="M300.369,120.955l-1.5.01a.451.451,0,1,1-.006-.9l1.5-.01a.451.451,0,1,1,.006.9Z" transform="translate(-298.413 -120.053)" fill="#fff"/>
          </g>
          <g id="Grupo_957034" data-name="Grupo 957034" transform="translate(0 1.984)">
            <path id="Trazado_724418" data-name="Trazado 724418" d="M276.757,125.1l-4.481.031a.451.451,0,1,1-.006-.9l4.481-.031a.451.451,0,1,1,.006.9Z" transform="translate(-271.82 -124.199)" fill="#fff"/>
          </g>
          <g id="Grupo_957035" data-name="Grupo 957035" transform="translate(6.455 1.916)">
            <path id="Trazado_724419" data-name="Trazado 724419" d="M293.535,124.96l-7.77.054a.451.451,0,1,1-.006-.9l7.77-.054a.451.451,0,1,1,.006.9Z" transform="translate(-285.31 -124.058)" fill="#fff"/>
          </g>
          <g id="Grupo_957036" data-name="Grupo 957036" transform="translate(0.031 3.892)">
            <path id="Trazado_724420" data-name="Trazado 724420" d="M280.974,129.088l-8.634.06a.451.451,0,1,1-.006-.9l8.633-.059a.451.451,0,1,1,.007.9Z" transform="translate(-271.885 -128.187)" fill="#fff"/>
          </g>
        </g>
        <g id="Grupo_957068" data-name="Grupo 957068" transform="translate(37.148 3.226)">
          <g id="Grupo_957053" data-name="Grupo 957053" transform="translate(0.113)">
            <g id="Grupo_957040" data-name="Grupo 957040" transform="translate(0.022)">
              <g id="Grupo_957039" data-name="Grupo 957039">
                <g id="Grupo_957038" data-name="Grupo 957038">
                  <path id="Trazado_724421" data-name="Trazado 724421" d="M324.323,114.855l-4.919-.027a.342.342,0,0,1,.006-.668l4.918.027a.342.342,0,0,1-.006.668Z" transform="translate(-319.139 -114.16)" fill="#fff"/>
                </g>
              </g>
            </g>
            <g id="Grupo_957043" data-name="Grupo 957043" transform="translate(6.195 0.034)">
              <g id="Grupo_957042" data-name="Grupo 957042">
                <g id="Grupo_957041" data-name="Grupo 957041">
                  <path id="Trazado_724422" data-name="Trazado 724422" d="M334,114.909l-1.694-.01a.342.342,0,0,1,.006-.667l1.694.009a.342.342,0,0,1-.006.668Z" transform="translate(-332.04 -114.232)" fill="#fff"/>
                </g>
              </g>
            </g>
            <g id="Grupo_957046" data-name="Grupo 957046" transform="translate(2.959 1.235)">
              <g id="Grupo_957045" data-name="Grupo 957045">
                <g id="Grupo_957044" data-name="Grupo 957044">
                  <path id="Trazado_724423" data-name="Trazado 724423" d="M325.543,117.409l4.919.027a.342.342,0,0,0,.006-.668l-4.919-.027a.342.342,0,0,0-.006.668Z" transform="translate(-325.278 -116.741)" fill="#fff"/>
                </g>
              </g>
            </g>
            <g id="Grupo_957049" data-name="Grupo 957049" transform="translate(0 2.458)">
              <g id="Grupo_957048" data-name="Grupo 957048">
                <g id="Grupo_957047" data-name="Grupo 957047">
                  <path id="Trazado_724424" data-name="Trazado 724424" d="M319.5,119.965l7.479.042a.341.341,0,1,0,.006-.668L319.5,119.3a.341.341,0,1,0-.006.668Z" transform="translate(-319.094 -119.297)" fill="#fff"/>
                </g>
              </g>
            </g>
            <g id="Grupo_957052" data-name="Grupo 957052" transform="translate(0.011 1.219)">
              <g id="Grupo_957051" data-name="Grupo 957051">
                <g id="Grupo_957050" data-name="Grupo 957050">
                  <path id="Trazado_724425" data-name="Trazado 724425" d="M319.382,117.375l1.694.009a.342.342,0,0,0,.006-.667l-1.694-.01a.342.342,0,0,0-.006.668Z" transform="translate(-319.117 -116.707)" fill="#fff"/>
                </g>
              </g>
            </g>
          </g>
          <g id="Grupo_957063" data-name="Grupo 957063" transform="translate(0 8.508)">
            <g id="Grupo_957056" data-name="Grupo 957056" transform="translate(2.959 0.016)">
              <g id="Grupo_957055" data-name="Grupo 957055">
                <g id="Grupo_957054" data-name="Grupo 957054">
                  <path id="Trazado_724426" data-name="Trazado 724426" d="M325.308,132.642l4.918.027a.342.342,0,0,0,.006-.668l-4.919-.027a.342.342,0,0,0-.006.668Z" transform="translate(-325.042 -131.974)" fill="#fff"/>
                </g>
              </g>
            </g>
            <g id="Grupo_957059" data-name="Grupo 957059" transform="translate(0 1.239)">
              <g id="Grupo_957058" data-name="Grupo 957058">
                <g id="Grupo_957057" data-name="Grupo 957057">
                  <path id="Trazado_724427" data-name="Trazado 724427" d="M319.263,135.2l7.479.042a.34.34,0,1,0,.006-.667l-7.479-.042a.34.34,0,1,0-.006.667Z" transform="translate(-318.858 -134.53)" fill="#fff"/>
                </g>
              </g>
            </g>
            <g id="Grupo_957062" data-name="Grupo 957062" transform="translate(0.011)">
              <g id="Grupo_957061" data-name="Grupo 957061">
                <g id="Grupo_957060" data-name="Grupo 957060">
                  <path id="Trazado_724428" data-name="Trazado 724428" d="M319.146,132.608l1.694.009a.342.342,0,0,0,.006-.667l-1.694-.01a.342.342,0,0,0-.006.668Z" transform="translate(-318.881 -131.94)" fill="#fff"/>
                </g>
              </g>
            </g>
          </g>
          <g id="Grupo_957067" data-name="Grupo 957067" transform="translate(0.103 3.614)">
            <g id="Grupo_957066" data-name="Grupo 957066">
              <g id="Grupo_957065" data-name="Grupo 957065">
                <g id="Grupo_957064" data-name="Grupo 957064">
                  <path id="Trazado_724429" data-name="Trazado 724429" d="M324.257,122.408l-4.918-.027a.342.342,0,0,1,.006-.668l4.919.027a.342.342,0,0,1-.006.668Z" transform="translate(-319.073 -121.713)" fill="#fff"/>
                </g>
              </g>
            </g>
          </g>
        </g>
        <g id="Grupo_957069" data-name="Grupo 957069">
          <path id="Trazado_724430" data-name="Trazado 724430" d="M287.621,124.63H242.949a1.729,1.729,0,0,1-1.727-1.728V109.148a1.73,1.73,0,0,1,1.727-1.729h44.672a1.73,1.73,0,0,1,1.727,1.729V122.9A1.729,1.729,0,0,1,287.621,124.63Zm-44.672-16.986a1.5,1.5,0,0,0-1.5,1.5V122.9a1.5,1.5,0,0,0,1.5,1.5h44.672a1.5,1.5,0,0,0,1.5-1.5V109.148a1.5,1.5,0,0,0-1.5-1.5Z" transform="translate(-241.222 -107.419)" fill="#fff"/>
        </g>
        <g id="Grupo_957070" data-name="Grupo 957070" transform="translate(2.215 3.213)">
          <path id="Trazado_724431" data-name="Trazado 724431" d="M251.144,124.731a5.3,5.3,0,1,1,5.293-5.3A5.3,5.3,0,0,1,251.144,124.731Zm0-10.372a5.073,5.073,0,1,0,5.068,5.073A5.076,5.076,0,0,0,251.144,114.359Z" transform="translate(-245.851 -114.134)" fill="#fff"/>
        </g>
        <g id="Grupo_957071" data-name="Grupo 957071" transform="translate(4.955 5.562)">
          <path id="Trazado_724432" data-name="Trazado 724432" d="M251.578,121.485a8.335,8.335,0,0,1,.722.481q.344.256.667.53c.432.364.839.75,1.229,1.151l-.863.075c.239-.423.48-.843.743-1.251s.53-.812.817-1.205.586-.778.905-1.151a10.949,10.949,0,0,1,1.035-1.072,10.843,10.843,0,0,1-.486,1.409c-.187.454-.394.9-.615,1.329s-.455.858-.7,1.275-.509.825-.778,1.23a.52.52,0,0,1-.863.074c-.347-.439-.679-.891-.985-1.367q-.23-.356-.44-.73A8.339,8.339,0,0,1,251.578,121.485Z" transform="translate(-251.578 -119.042)" fill="#fff"/>
        </g>
      </g>
      <g id="Grupo_957073" data-name="Grupo 957073" transform="translate(174.756 143.127)">
        <rect id="Rectángulo_339654" data-name="Rectángulo 339654" width="2.766" height="146.132" fill="#452a51"/>
      </g>
      <rect id="Rectángulo_339655" data-name="Rectángulo 339655" width="175.05" height="7.797" transform="translate(9.636 141.015)" fill="#452a51"/>
      <g id="Grupo_957074" data-name="Grupo 957074" transform="translate(13.953 141.403)">
        <rect id="Rectángulo_339656" data-name="Rectángulo 339656" width="3.378" height="148.111" fill="#b2c3eb"/>
      </g>
      <g id="Grupo_957075" data-name="Grupo 957075" transform="translate(22.993 64.303)">
        <path id="Trazado_724433" data-name="Trazado 724433" d="M401.388,297a6.322,6.322,0,0,0,1.289-12.509v-4.72h6.582v-1.081h-6.582v-.177a.206.206,0,0,0,.168-.2.21.21,0,0,0-.209-.214h-2.5a.209.209,0,0,0-.04.414v.177h-.18a.541.541,0,0,0,0,1.081h.18v4.72A6.322,6.322,0,0,0,401.388,297Z" transform="translate(-273.559 -255.381)" fill="#aaeef2"/>
        <path id="Trazado_724434" data-name="Trazado 724434" d="M346.753,273.23H323.088V258.561a.905.905,0,0,0-.9-.905h-.494V231.634a1.215,1.215,0,0,0-2.414.2v1.072a.358.358,0,1,1-.715,0v-1.072a1.216,1.216,0,1,0-2.431,0v1.072a.358.358,0,1,1-.715,0v-1.072a1.216,1.216,0,1,0-2.432,0v1.072a.358.358,0,1,1-.715,0v-1.072a1.216,1.216,0,1,0-2.432,0v1.072a.358.358,0,1,1-.715,0v-1.072a1.216,1.216,0,1,0-2.432,0v1.072a.358.358,0,1,1-.715,0v-1.072a1.216,1.216,0,1,0-2.432,0v1.072a.357.357,0,1,1-.715,0v-1.072a1.216,1.216,0,1,0-2.432,0v1.072a.358.358,0,1,1-.715,0v-1.072a1.216,1.216,0,1,0-2.432,0v1.072a.357.357,0,1,1-.715,0v-1.072a1.216,1.216,0,1,0-2.432,0v1.072a.358.358,0,1,1-.715,0v-1.072a1.216,1.216,0,1,0-2.432,0v1.072a.357.357,0,1,1-.715,0v-1.072a1.216,1.216,0,1,0-2.432,0v1.072a.357.357,0,1,1-.715,0v-1.072a1.216,1.216,0,1,0-2.432,0v1.072a.358.358,0,1,1-.715,0v-1.072a1.216,1.216,0,1,0-2.432,0v1.072a.358.358,0,1,1-.715,0v-1.072a1.216,1.216,0,1,0-2.432,0v1.072a.357.357,0,1,1-.715,0v-1.072a1.216,1.216,0,1,0-2.431,0v30.678a3.385,3.385,0,0,0,1.387,2.675l-.711,1.259c-.158.28-.129.6.065.707l2.3,1.3,2.453-4.347-2.3-1.3c-.194-.11-.481.03-.639.309l-.909,1.611c.08-.144.152-.271.167-.3a2.486,2.486,0,0,1-.955-1.918V231.835a.358.358,0,1,1,.715,0v1.072a1.216,1.216,0,1,0,2.432,0v-1.072a.357.357,0,1,1,.715,0v1.072a1.216,1.216,0,1,0,2.432,0v-1.072a.358.358,0,1,1,.715,0v1.072a1.216,1.216,0,1,0,2.431,0v-1.072a.358.358,0,1,1,.715,0v1.072a1.216,1.216,0,1,0,2.432,0v-1.072a.357.357,0,1,1,.715,0v1.072a1.216,1.216,0,1,0,2.432,0v-1.072a.358.358,0,1,1,.715,0v1.072a1.216,1.216,0,1,0,2.432,0v-1.072a.358.358,0,1,1,.715,0v1.072a1.216,1.216,0,1,0,2.432,0v-1.072a.358.358,0,1,1,.715,0v1.072a1.216,1.216,0,1,0,2.431,0v-1.072a.358.358,0,1,1,.715,0v1.072a1.216,1.216,0,1,0,2.432,0v-1.072a.358.358,0,1,1,.715,0v1.072a1.216,1.216,0,1,0,2.432,0v-1.072a.358.358,0,1,1,.715,0v1.072a1.216,1.216,0,1,0,2.432,0v-1.072a.357.357,0,1,1,.715,0v1.072a1.216,1.216,0,1,0,2.432,0v-1.072a.357.357,0,1,1,.715,0v1.072a1.216,1.216,0,1,0,2.432,0v-1.072a.358.358,0,1,1,.715,0v1.072a1.216,1.216,0,1,0,2.432,0v-1.072a.358.358,0,1,1,.715,0v25.821h-.494a.905.905,0,0,0-.9.905V273.23h-.563a.541.541,0,0,0,0,1.082h.563v.673a5.113,5.113,0,0,0,.882,2.549,2.544,2.544,0,0,1,.486,1.506v.4a.468.468,0,0,0,.333.457.458.458,0,0,0,.58-.441v-.434a2.536,2.536,0,0,1,.479-1.5,5.115,5.115,0,0,0,.877-2.542v-.673h23.665Z" transform="translate(-211.053 -230.618)" fill="#aaeef2"/>
        <path id="Trazado_724435" data-name="Trazado 724435" d="M359.6,334.763V351.78a1.364,1.364,0,0,0,1.363,1.365H368.4l-.7,1.406a1.71,1.71,0,0,0,.473,2.111h20.508a1.711,1.711,0,0,0,.473-2.111L380.4,337V325.553h.057a.2.2,0,0,0,.2-.2v-.246a.2.2,0,0,0-.2-.2H376.4a.2.2,0,0,0-.2.2v.246a.2.2,0,0,0,.2.2h.057V337l-5.18,10.382V334.762a.536.536,0,0,0-.043-1.07h-11.6a.536.536,0,0,0-.038,1.071Z" transform="translate(-254.797 -279.79)" fill="#aaeef2"/>
        <path id="Trazado_724436" data-name="Trazado 724436" d="M174.107,315.292v12.042l-10.819,21.682a2.185,2.185,0,0,0,.09,2.13h27.437a2.185,2.185,0,0,0,.09-2.13l-10.819-21.682V315.292a.484.484,0,0,0,.39-.47.491.491,0,0,0-.49-.49h-5.78a.492.492,0,0,0-.49.49A.485.485,0,0,0,174.107,315.292Z" transform="translate(-152.558 -274.276)" fill="#aaeef2"/>
        <path id="Trazado_724437" data-name="Trazado 724437" d="M142.725,263.16v52.954h1.289V263.16a2.251,2.251,0,0,0,1.538-1.617H152.4v2.9a8.233,8.233,0,1,0,3.36,0v-2.9h1.224a.541.541,0,0,0,0-1.081h-1.224v-3.814a.273.273,0,0,0,.219-.265.277.277,0,0,0-.275-.276h-3.248a.277.277,0,0,0-.276.276.273.273,0,0,0,.22.265v3.814h-6.845a2.253,2.253,0,0,0-1.538-1.617V247.155h-1.289v11.689a2.253,2.253,0,0,0,0,4.315Z" transform="translate(-141.119 -239.242)" fill="#aaeef2"/>
        <path id="Trazado_724438" data-name="Trazado 724438" d="M168.064,261.232a1.167,1.167,0,0,0,1.947-.871v-1.03a.344.344,0,1,1,.688,0v1.03a1.168,1.168,0,1,0,2.337,0v-1.03a.344.344,0,1,1,.688,0v1.03a1.168,1.168,0,1,0,2.337,0v-1.03a.344.344,0,1,1,.687,0v1.03a1.168,1.168,0,1,0,2.337,0v-1.03a.344.344,0,1,1,.687,0v1.03a1.168,1.168,0,1,0,2.337,0v-1.03a.344.344,0,1,1,.688,0v1.03a1.169,1.169,0,1,0,2.337,0v-1.03a.344.344,0,1,1,.687,0v1.03a1.168,1.168,0,1,0,2.337,0v-1.03a.344.344,0,1,1,.688,0v1.03a1.168,1.168,0,1,0,2.337,0v-1.03a.344.344,0,1,1,.688,0v1.03a1.168,1.168,0,1,0,2.337,0v-1.03a.344.344,0,1,1,.687,0v1.03a1.168,1.168,0,1,0,2.337,0v-1.03a.344.344,0,1,1,.687,0v1.03a1.168,1.168,0,1,0,2.337,0v-1.03a.344.344,0,1,1,.688,0v1.03a1.168,1.168,0,1,0,2.337,0v-1.03a.344.344,0,1,1,.687,0v1.03a1.168,1.168,0,1,0,2.337,0v-1.03a.344.344,0,1,1,.688,0v1.03a1.168,1.168,0,1,0,2.337,0v-1.03a.344.344,0,1,1,.687,0v1.03a1.169,1.169,0,1,0,2.337,0v-1.03a.344.344,0,1,1,.687,0v30.32h-.748a.35.35,0,0,0-.349.349v2.287H211.5a.261.261,0,0,0-.26.26v.132a.262.262,0,0,0,.26.261V304.5l-3.664,7.342h-.088V274.559a2.251,2.251,0,0,0,0-4.24v-6.979h-1.289v6.913a2.252,2.252,0,0,0-1.648,1.646h-8.631v-3.126h.057a.2.2,0,0,0,.2-.2v-.246a.2.2,0,0,0-.2-.2h-4.058a.2.2,0,0,0-.2.2v.246a.2.2,0,0,0,.2.2h.057V271.9h-2.046a.541.541,0,0,0,0,1.081h2.046v1.815L183.48,292.34a1.712,1.712,0,0,0,1.53,2.477H203.4a1.712,1.712,0,0,0,1.53-2.477l-8.755-17.546v-1.815h8.631a2.252,2.252,0,0,0,1.648,1.645v37.221H195.564a2.768,2.768,0,0,0-2.766,2.769v.074a2.768,2.768,0,0,0,2.766,2.769h9.47l-2.193,4.4h21.3l-1.917-3.842,1.038-.554h4.032a2.768,2.768,0,0,0,2.766-2.769v-.074a2.768,2.768,0,0,0-2.766-2.769h-4.316l4.829-13.67a13.991,13.991,0,0,0,10.836,5.127c.306,0,.609-.013.91-.033l.065,5.96h-.724a.269.269,0,0,0-.268.268.265.265,0,0,0,.213.257v5.011h-1.522v-5.011a.265.265,0,0,0,.213-.257.269.269,0,0,0-.268-.268H234.1a.269.269,0,0,0-.268.268.265.265,0,0,0,.213.257v5.011H232.19a.77.77,0,0,0,0,1.54h.15a.962.962,0,0,0-.02.194v5.351h21.337V316.5a.963.963,0,0,0-.022-.2.769.769,0,0,0-.065-1.534h-1.793v-5.011a.266.266,0,0,0,.214-.257.27.27,0,0,0-.268-.268h-3.164a.269.269,0,0,0-.268.268.265.265,0,0,0,.213.257v5.011H246.87v-5.011a.265.265,0,0,0,.214-.257.269.269,0,0,0-.268-.268h-3.164a.27.27,0,0,0-.268.268.265.265,0,0,0,.214.257v5.011h-1.488v-5.011a.265.265,0,0,0,.213-.257.269.269,0,0,0-.268-.268H240.7l-.066-6.07a14.014,14.014,0,0,0,9.354-5.643l7.039,19.926a.54.54,0,0,0,1.018-.36l-7.312-20.7q.341-.579.627-1.193h.836a.541.541,0,0,0,0-1.081h-.383a14.027,14.027,0,0,0-24.115-13.616l-3.4-1.911a.469.469,0,0,0-.854-.377l-2.713,4.843a.47.47,0,0,0,.767.533l3.61,2.025a14.087,14.087,0,0,0,.374,8.5h-.556a.541.541,0,0,0,0,1.081h1.008a13.946,13.946,0,0,0,1.1,1.947l-5.2,14.711h-2.685L215.48,304.5V292.94a.262.262,0,0,0,.26-.261v-.132a.261.261,0,0,0-.26-.26h-.553V290a.35.35,0,0,0-.349-.349h-.712V259.33a1.168,1.168,0,1,0-2.337,0v1.03a.344.344,0,1,1-.688,0v-1.03a1.168,1.168,0,1,0-2.337,0v1.03a.344.344,0,1,1-.688,0v-1.03a1.169,1.169,0,1,0-2.337,0v1.03a.344.344,0,1,1-.687,0v-1.03a1.168,1.168,0,1,0-2.337,0v1.03a.344.344,0,1,1-.688,0v-1.03a1.168,1.168,0,1,0-2.337,0v1.03a.344.344,0,1,1-.687,0v-1.03a1.168,1.168,0,1,0-2.337,0v1.03a.344.344,0,1,1-.688,0v-1.03a1.168,1.168,0,1,0-2.337,0v1.03a.344.344,0,1,1-.687,0v-1.03a1.168,1.168,0,1,0-2.337,0v1.03a.344.344,0,1,1-.688,0v-1.03a1.169,1.169,0,1,0-2.337,0v1.03a.344.344,0,1,1-.687,0v-1.03a1.168,1.168,0,1,0-2.337,0v1.03a.344.344,0,1,1-.688,0v-1.03a1.168,1.168,0,1,0-2.337,0v1.03a.344.344,0,1,1-.687,0v-1.03a1.168,1.168,0,1,0-2.337,0v1.03a.344.344,0,1,1-.687,0v-1.03a1.168,1.168,0,1,0-2.337,0v1.03a.344.344,0,1,1-.687,0v-1.03a1.168,1.168,0,1,0-2.337,0v1.03a.344.344,0,1,1-.687,0v-1.03a1.168,1.168,0,1,0-2.337,0v1.03a.344.344,0,1,1-.688,0v-1.03a1.169,1.169,0,0,0-2.331-.12h-.736a.351.351,0,0,0-.349.349v2.286h2.983Zm-1.056-2.021a.342.342,0,0,1,.642,0Z" transform="translate(-153.615 -244.982)" fill="#aaeef2"/>
      </g>
      <g id="Grupo_957077" data-name="Grupo 957077" transform="translate(78.782 88.14)">
        <g id="Grupo_957076" data-name="Grupo 957076" transform="translate(20.725)">
          <path id="Trazado_724439" data-name="Trazado 724439" d="M309.469,330.4h63.107a2.538,2.538,0,0,0,2.41-2.072l7.513-45.82a1.713,1.713,0,0,0-1.731-2.072H317.661a2.538,2.538,0,0,0-2.41,2.072l-7.513,45.82A1.713,1.713,0,0,0,309.469,330.4Z" transform="translate(-304.511 -280.435)" fill="#6d72a0"/>
          <path id="Trazado_724440" data-name="Trazado 724440" d="M302.783,330.4H365.89a2.539,2.539,0,0,0,2.41-2.072l7.512-45.82a1.713,1.713,0,0,0-1.73-2.072H310.975a2.538,2.538,0,0,0-2.41,2.072l-7.513,45.82A1.713,1.713,0,0,0,302.783,330.4Z" transform="translate(-301.025 -280.435)" fill="#fff"/>
          <path id="Trazado_724441" data-name="Trazado 724441" d="M375.39,284.727H314.218a1.7,1.7,0,0,0-1.624,1.37L309.1,307.4l-2.858,17.429-.477,2.908a1.145,1.145,0,0,0,1.175,1.37h61.172a1.7,1.7,0,0,0,1.625-1.371l1.861-11.352,1.473-8.984,3.493-21.3A1.146,1.146,0,0,0,375.39,284.727Z" transform="translate(-303.488 -282.673)" fill="#000543"/>
        </g>
        <path id="Trazado_724442" data-name="Trazado 724442" d="M259.483,387.407h87.39a1.773,1.773,0,0,0,0-3.546h-87.39a1.773,1.773,0,0,0,0,3.546Z" transform="translate(-257.712 -334.372)" fill="#fff"/>
      </g>
      <g id="Grupo_957086" data-name="Grupo 957086" transform="translate(0 0)">
        <g id="Grupo_957081" data-name="Grupo 957081" transform="translate(6.777 140.518)">
          <path id="Trazado_724443" data-name="Trazado 724443" d="M129.48,671.878l-8.842-2.247c-.134.424-.258.839-.374,1.247a23.728,23.728,0,0,0-.734,3.611l8.325,2.166Q128.673,674.27,129.48,671.878Z" transform="translate(-113.644 -535.781)" fill="#ff9985"/>
          <path id="Trazado_724444" data-name="Trazado 724444" d="M119.392,679.672c-.473,3.678.317,6.217,2.277,6.757,1.929.543,4.769-.867,5.784-3.72.111-.312.219-.627.33-.94Z" transform="translate(-113.503 -541.018)" fill="#ff9985"/>
          <path id="Trazado_724445" data-name="Trazado 724445" d="M146.3,396.212c.01-.255,0-.5-.026-.917l-.117-2.971-33.846-1.24-3.916.063.2,3.388.093.882c4.29,27.977,8.154,82.7-1.354,124.467-.577,2.531,1.5,4.989,4.48,5.375l11.241,1.458c2.767.359,5.347-1.209,5.859-3.563C139.884,472.641,145.414,424.557,146.3,396.212Z" transform="translate(-107.229 -390.516)" fill="#000543"/>
          <path id="Trazado_724446" data-name="Trazado 724446" d="M174.038,671.878l-8.842-2.247c-.134.424-.258.839-.374,1.247a23.724,23.724,0,0,0-.734,3.611l8.325,2.166Q173.232,674.27,174.038,671.878Z" transform="translate(-136.881 -535.781)" fill="#ff9985"/>
          <path id="Trazado_724447" data-name="Trazado 724447" d="M163.959,679.783c-.442,3.68.36,6.229,2.3,6.786,1.915.558,4.717-.832,5.7-3.682.108-.312.212-.626.319-.939Z" transform="translate(-136.752 -541.076)" fill="#ff9985"/>
          <path id="Trazado_724448" data-name="Trazado 724448" d="M190.853,396.212c.01-.255,0-.5-.026-.917l-.117-2.971-33.846-1.24-3.916.063.2,3.388.093.882c4.29,27.977,8.154,82.7-1.354,124.467-.577,2.531,1.5,4.989,4.481,5.375l11.24,1.458c2.767.359,5.347-1.209,5.859-3.563C184.443,472.641,189.973,424.557,190.853,396.212Z" transform="translate(-130.466 -390.516)" fill="#000543"/>
          <g id="Grupo_957078" data-name="Grupo 957078" transform="translate(20.756)">
            <path id="Trazado_724449" data-name="Trazado 724449" d="M167.779,526.714a6.757,6.757,0,0,1-.863-.055L155.675,525.2a6.046,6.046,0,0,1-4.216-2.448,4.519,4.519,0,0,1-.743-3.615c9.621-42.267,5.373-97.991,1.346-124.254l-.1-.91-.232-4,4.506-.074,34.4,1.261.138,3.5c.024.428.035.689.025.959-.786,25.285-5.815,73.726-17.4,127.041A5.565,5.565,0,0,1,167.779,526.714ZM152.931,391.085l.252,3.654c4.036,26.315,8.295,82.217-1.365,124.652a3.4,3.4,0,0,0,.569,2.714,4.908,4.908,0,0,0,3.434,1.973l11.241,1.458c2.471.325,4.782-1.047,5.234-3.121,11.571-53.243,16.594-101.6,17.376-126.838.01-.244,0-.477-.024-.867l-.1-2.458-33.322-1.222Z" transform="translate(-150.607 -389.899)" fill="#1a2d8e"/>
          </g>
          <g id="Grupo_957079" data-name="Grupo 957079" transform="translate(23.893 139.282)">
            <path id="Trazado_724450" data-name="Trazado 724450" d="M180.373,686.972l-18.072-5.88c-.89-.29-1.98.023-2.165.623l-2.948,9.533c-.171.555.528,1.074,1.459,1.084l19.424.2C183.176,692.583,184.89,688.442,180.373,686.972Z" transform="translate(-157.163 -680.983)" fill="#f9e47a"/>
          </g>
          <g id="Grupo_957080" data-name="Grupo 957080" transform="translate(2.66 139.114)">
            <path id="Trazado_724451" data-name="Trazado 724451" d="M136,686.622l-18.071-5.88c-.89-.29-1.98.023-2.166.622l-2.948,9.533c-.171.555.528,1.074,1.459,1.084l19.425.2C138.8,692.232,140.515,688.091,136,686.622Z" transform="translate(-112.788 -680.632)" fill="#f9e47a"/>
          </g>
        </g>
        <path id="Trazado_724452" data-name="Trazado 724452" d="M108.109,289.381c3.313-8.614,9.51-65.863,13.843-73.7,2.157-3.9.689-11.943-2.175-13.914-3.375-2.324-7.263,2.047-9.407,5.924-3.5,6.324-6.728,16.175-9.25,25.534a53.587,53.587,0,0,0-.276,26.829Z" transform="translate(-96.303 -150.929)" fill="#fff"/>
        <g id="Grupo_957082" data-name="Grupo 957082" transform="translate(20.416)">
          <path id="Trazado_724453" data-name="Trazado 724453" d="M204.647,130.139a10.66,10.66,0,0,0,2.111-1.887,9.345,9.345,0,0,1-.886.907A13.436,13.436,0,0,1,204.647,130.139Z" transform="translate(-171.672 -112.93)" fill="#ff8698"/>
          <path id="Trazado_724454" data-name="Trazado 724454" d="M183.154,136.284a3.79,3.79,0,0,0-.667-1.185,2.429,2.429,0,0,0-1.458-.865c-1.5-.234-2.873,1.233-3.059,3.278a4.537,4.537,0,0,0,.693,2.923c-.081.072-.159.144-.242.215a13.262,13.262,0,0,1-11.558,7.048,2.453,2.453,0,0,1-.795-.134,10.492,10.492,0,0,1-3.652,2.941,13.9,13.9,0,0,1-.923,3.012c-.093.2-3.281,10.186-3.218,10.4s5.436,1.29,5.632,1.405c2.5,1.472,1.668.372,4.416-.565.7-.239,1.191.058,1.509-.6.9-1.875,3.282-12.4,3.354-13.818.01-.2.033-.4.048-.6a.922.922,0,0,1,.865-.68,12.077,12.077,0,0,0,5.323-1.615,10.515,10.515,0,0,0,5.348-7.449l1.023-9.387a8.5,8.5,0,0,0-1.63,2.722C184.017,133.916,183.771,136.234,183.154,136.284Z" transform="translate(-147.487 -114.157)" fill="#ff9985"/>
          <path id="Trazado_724455" data-name="Trazado 724455" d="M176.128,103.37c-.747-2.038-3.574-2.324-5.632-3.109-3.225-1.233-1.979-.954-3.537-2.475-.708-.691-4.207-1.429-5.209-1.537,0,0-17.712-1.232-15.882,16.407A10.494,10.494,0,0,0,145.3,133.6a10.287,10.287,0,0,0,5.357-1.019,10.492,10.492,0,0,0,3.652-2.941c.256.089-9.647,8.342-9.377,8.344,5.02-.089,18.794-6.713,21.73-15.257.082-.071.161-.144.242-.215a4.537,4.537,0,0,1-.693-2.923c.187-2.046,1.556-3.513,3.059-3.278a2.429,2.429,0,0,1,1.458.865,3.79,3.79,0,0,1,.668,1.185c.617-.05.863-2.369,1.007-2.957a8.5,8.5,0,0,1,1.63-2.722,14.457,14.457,0,0,0,1.538-2.209A10.3,10.3,0,0,0,176.128,103.37Z" transform="translate(-135.732 -96.23)" fill="#000543"/>
        </g>
        <g id="Grupo_957084" data-name="Grupo 957084" transform="translate(73.128 15.516)">
          <g id="Grupo_957083" data-name="Grupo 957083" transform="translate(0 1.35)">
            <path id="Trazado_724456" data-name="Trazado 724456" d="M256.535,144.7l1.189,1.049a.588.588,0,0,1,.067.811.514.514,0,0,1-.77.033l-1.726-1.8Z" transform="translate(-250.798 -138.376)" fill="#a5ccef"/>
            <path id="Trazado_724457" data-name="Trazado 724457" d="M246.676,141.629l3.311-2.453a.544.544,0,0,1,.673.268c.011.023.022.047.032.071a.952.952,0,0,1-.2,1l-2.416,2.96Z" transform="translate(-246.303 -135.476)" fill="#fff"/>
            <path id="Trazado_724458" data-name="Trazado 724458" d="M250.842,139.576l-1.05-.3a.053.053,0,0,1-.043-.062l2.2-7.658a.121.121,0,0,1,.156-.067l.911.262a.12.12,0,0,1,.1.139l-2.2,7.658A.054.054,0,0,1,250.842,139.576Z" transform="translate(-247.905 -131.48)" fill="#000543"/>
            <path id="Trazado_724459" data-name="Trazado 724459" d="M246.277,145.88l-.318-.742a.73.73,0,0,1,.276-.912l.2-.14a.909.909,0,0,0,.3.358l1,1.586.588.1.512,1.042-1.512,1.5Z" transform="translate(-245.897 -138.055)" fill="#fff"/>
            <rect id="Rectángulo_339657" data-name="Rectángulo 339657" width="0.189" height="1.094" transform="translate(1.841 7.976) rotate(-73.961)" fill="#fff"/>
            <path id="Trazado_724460" data-name="Trazado 724460" d="M249.4,148.49l-1.227,4.277a.4.4,0,0,1-.518.224l-.325-.093a.4.4,0,0,1-.319-.465l1.228-4.277a.053.053,0,0,1,.069-.03l1.05.3A.053.053,0,0,1,249.4,148.49Z" transform="translate(-246.473 -140.159)" fill="#000543"/>
            <path id="Trazado_724461" data-name="Trazado 724461" d="M261.963,164.322c-.873-1.587-2.508-4.136-3.452-5.794l3.481-2.564c1.4,1.593,2.683,3.088,3.861,4.5A8.583,8.583,0,0,0,261.963,164.322Z" transform="translate(-252.475 -144.249)" fill="#fff"/>
            <path id="Trazado_724462" data-name="Trazado 724462" d="M275.768,197.918c-.711-10.188-4.632-18.869-10.042-28.7a8.583,8.583,0,0,1,3.889-3.862c12.4,14.825,15.073,22.918,18.158,29.778a5.985,5.985,0,0,1-1.2,6.668L285.1,203.3C283.223,206.183,275.8,198.345,275.768,197.918Z" transform="translate(-256.238 -149.149)" fill="#ff9985"/>
            <path id="Trazado_724463" data-name="Trazado 724463" d="M250.457,145.27l.392-5.885a.948.948,0,0,1,1.866-.168l.063.251a.949.949,0,0,0,.862.716l2.871.175a.949.949,0,0,1,.888.879l.408,5.663a.95.95,0,0,1-.249.712l-1.852,2.009a.947.947,0,0,1-1.37.024L250.729,146A.949.949,0,0,1,250.457,145.27Z" transform="translate(-248.274 -135.14)" fill="#fff"/>
          </g>
          <path id="Trazado_724464" data-name="Trazado 724464" d="M254.67,130.014l.908-1.357,0,1.619Z" transform="translate(-250.472 -128.658)" fill="#fff"/>
        </g>
        <g id="Grupo_957085" data-name="Grupo 957085" transform="translate(0 41.551)">
          <path id="Trazado_724465" data-name="Trazado 724465" d="M198.363,204.928c-1.268-1.665-3.354-2.279-5.442-3.061-9.249-3.463-35.336-11.939-49.884-16.764a20.083,20.083,0,0,0-2.286-.927,17.81,17.81,0,0,0-6.774-1.081c-4.465-.305-9.85,2.491-14.51,5.207q-.116.8-.194,1.6a70.932,70.932,0,0,0-10.53,7.266,26.894,26.894,0,0,0-4.728,5.694c-2.027,3.287-.551,7.423-1.305,12.071-.9,5.54-1.162,23.972-.867,29.543.917,17.256-1.449,30.839-2.749,46.414-.625,8.227-4.927,26.478-6.028,35.094.045,2.82.769,9.886,1.939,11.644.871,1.308,9.8,10.073,21.938,11.579,11.548,1.432,13.766-9.455,35.182-8.212,2.653.154,5.261-2.582,5.857-6.4,5.487-35.167,2-56.268,3.067-108.187a57.216,57.216,0,0,0,.5-8.276,3.944,3.944,0,0,1,3.519-3.9c15.788-1.924,25.441-.627,29.253-1a6.686,6.686,0,0,0,2.784-.741C199.119,211.29,199.631,206.593,198.363,204.928Z" transform="translate(-93.066 -183.067)" fill="#fff"/>
        </g>
        <path id="Trazado_724466" data-name="Trazado 724466" d="M117.483,143.842a12.818,12.818,0,0,1-2.209,2.685c-.814.6-1.841.864-2.7,1.4s-1.563,1.58-1.147,2.429c.2.4.61.676.807,1.078.555,1.132-.771,2.294-1.483,3.4a3.83,3.83,0,0,0-.07,4.059c.543.859,1.486,1.637,1.322,2.654-.132.8-.955,1.487-.846,2.281.16,1.166,2.006,1.235,2.694,2.191.484.674.274,1.6.321,2.425a3.864,3.864,0,0,0,2.776,3.4,8.151,8.151,0,0,1,2.459.729c.889.625,1.123,1.9,2.11,2.383,2.053,1,3.346-1.383,5.266-2.39,2.416-1.267,6.019-.267,7.592-2.424.369-.5.589-1.159,1.16-1.447s1.3-.083,1.908-.318c1.138-.44,1.21-2.037,1.926-2.926.09-.068.575-.481.664-.513,5.547-4.522,14.12-18.81,11.8-23.627-1.919-3.991-12.735,2-18.376,2.191-.035-.05-.047-.1-.084-.15a5.333,5.333,0,0,0-3.7-1.947c-2.76-.422-4.33,1.729-6.706,1.688-.908-.017-1.62-.722-2.513-.846A3.488,3.488,0,0,0,117.483,143.842Z" transform="translate(-101.967 -119.027)" fill="#000543"/>
      </g>
    </g>
  </g>
</svg>
