<svg xmlns="http://www.w3.org/2000/svg" width="491" height="216" viewBox="0 0 491 216">
  <g id="Grupo_959463" data-name="Grupo 959463" transform="translate(-5324 9661)">
    <path id="Trazado_726253" data-name="Trazado 726253" d="M10,0h97a10,10,0,0,1,10,10V60a10,10,0,0,1-10,10H10A10,10,0,0,1,0,60V10A10,10,0,0,1,10,0Z" transform="translate(5698 -9590)" fill="#a7bce6"/>
    <path id="Trazado_726255" data-name="Trazado 726255" d="M15.672,11.685a3.522,3.522,0,0,1-1.186,2.529,4.165,4.165,0,0,1-2.82.923,3.745,3.745,0,0,1-3.011-1.289,5.284,5.284,0,0,1-1.1-3.538V9.7a5.966,5.966,0,0,1,.506-2.529A3.791,3.791,0,0,1,9.509,5.495a4.05,4.05,0,0,1,2.184-.584,4.058,4.058,0,0,1,2.775.923,3.785,3.785,0,0,1,1.217,2.591H13.635a2.079,2.079,0,0,0-.537-1.4,1.987,1.987,0,0,0-1.4-.434,1.742,1.742,0,0,0-1.535.735,4.118,4.118,0,0,0-.523,2.28v.752a4.408,4.408,0,0,0,.489,2.358,1.71,1.71,0,0,0,1.542.745,2.025,2.025,0,0,0,1.418-.434,1.961,1.961,0,0,0,.537-1.343ZM21.175,15a2.194,2.194,0,0,1-.2-.663,2.39,2.39,0,0,1-1.866.8,2.626,2.626,0,0,1-1.8-.629,2.023,2.023,0,0,1-.714-1.586,2.09,2.09,0,0,1,.872-1.8,4.3,4.3,0,0,1,2.519-.636h.909v-.424a1.219,1.219,0,0,0-.263-.82A1.035,1.035,0,0,0,19.8,8.93a1.177,1.177,0,0,0-.783.239.813.813,0,0,0-.284.656H16.759a1.984,1.984,0,0,1,.4-1.189,2.621,2.621,0,0,1,1.121-.858A4.086,4.086,0,0,1,19.9,7.467a3.228,3.228,0,0,1,2.17.687,2.4,2.4,0,0,1,.8,1.931v3.206a3.536,3.536,0,0,0,.294,1.593V15Zm-1.634-1.374a1.7,1.7,0,0,0,.807-.195,1.28,1.28,0,0,0,.547-.523V11.637h-.738q-1.483,0-1.579,1.025l-.007.116a.791.791,0,0,0,.26.608A1.009,1.009,0,0,0,19.541,13.626Zm9.01-4.17A5.367,5.367,0,0,0,27.84,9.4a1.447,1.447,0,0,0-1.47.759V15H24.395V7.6h1.866l.055.882a1.831,1.831,0,0,1,1.647-1.019,2.07,2.07,0,0,1,.615.089ZM33.582,15a2.194,2.194,0,0,1-.2-.663,2.39,2.39,0,0,1-1.866.8,2.626,2.626,0,0,1-1.8-.629A2.023,2.023,0,0,1,29,12.922a2.09,2.09,0,0,1,.872-1.8,4.3,4.3,0,0,1,2.519-.636H33.3v-.424a1.219,1.219,0,0,0-.263-.82,1.035,1.035,0,0,0-.831-.308,1.177,1.177,0,0,0-.783.239.813.813,0,0,0-.284.656H29.166a1.984,1.984,0,0,1,.4-1.189,2.621,2.621,0,0,1,1.121-.858,4.086,4.086,0,0,1,1.627-.311,3.228,3.228,0,0,1,2.17.687,2.4,2.4,0,0,1,.8,1.931v3.206a3.536,3.536,0,0,0,.294,1.593V15Zm-1.634-1.374a1.7,1.7,0,0,0,.807-.195,1.28,1.28,0,0,0,.547-.523V11.637h-.738q-1.483,0-1.579,1.025l-.007.116a.791.791,0,0,0,.26.608A1.009,1.009,0,0,0,31.948,13.626Zm7.93-.082a1.3,1.3,0,0,0,.889-.3,1.054,1.054,0,0,0,.355-.8h1.853a2.534,2.534,0,0,1-.41,1.377,2.706,2.706,0,0,1-1.1.971,3.455,3.455,0,0,1-1.548.345,3.211,3.211,0,0,1-2.5-1.008,3.99,3.99,0,0,1-.916-2.786v-.13A3.944,3.944,0,0,1,37.4,8.485a3.174,3.174,0,0,1,2.5-1.019,3.111,3.111,0,0,1,2.225.79,2.8,2.8,0,0,1,.851,2.1H41.122a1.358,1.358,0,0,0-.355-.938,1.321,1.321,0,0,0-1.945.142A2.916,2.916,0,0,0,38.47,11.2V11.4a2.953,2.953,0,0,0,.349,1.643A1.2,1.2,0,0,0,39.878,13.544Zm6.59-7.759V7.6h1.265V9.053H46.468v3.691a.881.881,0,0,0,.157.588.79.79,0,0,0,.6.178,3.15,3.15,0,0,0,.581-.048v1.5a4.067,4.067,0,0,1-1.2.178,1.886,1.886,0,0,1-2.119-2.1V9.053h-1.08V7.6h1.08V5.785Zm5.77,9.352a3.631,3.631,0,0,1-2.649-1,3.548,3.548,0,0,1-1.022-2.659v-.191A4.468,4.468,0,0,1,49,9.3a3.161,3.161,0,0,1,1.22-1.354,3.425,3.425,0,0,1,1.8-.475,3.07,3.07,0,0,1,2.389.957,3.889,3.889,0,0,1,.872,2.714v.807h-4.71a1.835,1.835,0,0,0,.578,1.162,1.746,1.746,0,0,0,1.22.438,2.132,2.132,0,0,0,1.784-.827l.971,1.087a2.966,2.966,0,0,1-1.2.981A3.947,3.947,0,0,1,52.237,15.137ZM52.012,9.06a1.234,1.234,0,0,0-.954.4,2.062,2.062,0,0,0-.468,1.14h2.748V10.44a1.471,1.471,0,0,0-.355-1.02A1.274,1.274,0,0,0,52.012,9.06Zm8.545.4a5.367,5.367,0,0,0-.711-.055,1.447,1.447,0,0,0-1.47.759V15H56.4V7.6h1.866l.055.882a1.831,1.831,0,0,1,1.647-1.019,2.07,2.07,0,0,1,.615.089ZM63.64,15H61.664V7.6H63.64ZM63.059,4.6h2.153L63.318,6.722H61.712Zm6.289,8.354a.637.637,0,0,0-.359-.571,4.077,4.077,0,0,0-1.152-.373Q65.2,11.459,65.2,9.771a2.032,2.032,0,0,1,.817-1.644,3.3,3.3,0,0,1,2.136-.66A3.547,3.547,0,0,1,70.4,8.13a2.09,2.09,0,0,1,.844,1.723H69.272a.956.956,0,0,0-.273-.7,1.157,1.157,0,0,0-.854-.277,1.182,1.182,0,0,0-.772.226.712.712,0,0,0-.273.574.609.609,0,0,0,.311.53,3.2,3.2,0,0,0,1.049.349,8.571,8.571,0,0,1,1.244.332,2.044,2.044,0,0,1,1.565,1.989,1.929,1.929,0,0,1-.868,1.637,3.745,3.745,0,0,1-2.242.625,3.912,3.912,0,0,1-1.651-.332,2.77,2.77,0,0,1-1.131-.909,2.113,2.113,0,0,1-.41-1.248h1.873a1.031,1.031,0,0,0,.39.807,1.546,1.546,0,0,0,.971.28,1.43,1.43,0,0,0,.858-.215A.67.67,0,0,0,69.348,12.956Zm5.558-7.171V7.6H76.17V9.053H74.905v3.691a.881.881,0,0,0,.157.588.79.79,0,0,0,.6.178,3.15,3.15,0,0,0,.581-.048v1.5a4.067,4.067,0,0,1-1.2.178,1.886,1.886,0,0,1-2.119-2.1V9.053H71.85V7.6h1.08V5.785ZM79.355,15H77.373V7.6h1.982Zm-2.1-9.311a.973.973,0,0,1,.3-.731,1.281,1.281,0,0,1,1.617,0,.967.967,0,0,1,.3.731.97.97,0,0,1-.3.738,1.267,1.267,0,0,1-1.606,0A.97.97,0,0,1,77.257,5.689Zm6.8,7.854a1.3,1.3,0,0,0,.889-.3,1.054,1.054,0,0,0,.355-.8h1.853a2.534,2.534,0,0,1-.41,1.377,2.706,2.706,0,0,1-1.1.971,3.455,3.455,0,0,1-1.548.345,3.211,3.211,0,0,1-2.5-1.008,3.99,3.99,0,0,1-.916-2.786v-.13a3.944,3.944,0,0,1,.909-2.728,3.174,3.174,0,0,1,2.5-1.019,3.111,3.111,0,0,1,2.225.79,2.8,2.8,0,0,1,.851,2.1H85.3a1.358,1.358,0,0,0-.355-.938A1.321,1.321,0,0,0,83,9.563,2.916,2.916,0,0,0,82.65,11.2V11.4A2.953,2.953,0,0,0,83,13.044,1.2,1.2,0,0,0,84.059,13.544ZM92.569,15a2.194,2.194,0,0,1-.2-.663,2.39,2.39,0,0,1-1.866.8,2.626,2.626,0,0,1-1.8-.629,2.023,2.023,0,0,1-.714-1.586,2.09,2.09,0,0,1,.872-1.8,4.3,4.3,0,0,1,2.519-.636h.909v-.424a1.219,1.219,0,0,0-.263-.82A1.035,1.035,0,0,0,91.2,8.93a1.177,1.177,0,0,0-.783.239.813.813,0,0,0-.284.656H88.153a1.985,1.985,0,0,1,.4-1.189,2.621,2.621,0,0,1,1.121-.858A4.086,4.086,0,0,1,91.3,7.467a3.228,3.228,0,0,1,2.17.687,2.4,2.4,0,0,1,.8,1.931v3.206a3.536,3.536,0,0,0,.294,1.593V15Zm-1.634-1.374a1.7,1.7,0,0,0,.807-.195,1.28,1.28,0,0,0,.547-.523V11.637h-.738q-1.483,0-1.579,1.025l-.007.116a.791.791,0,0,0,.26.608A1.009,1.009,0,0,0,90.936,13.626ZM19.223,27.247A4.457,4.457,0,0,1,20,24.492a2.517,2.517,0,0,1,2.123-1.025,2.265,2.265,0,0,1,1.784.807V20.5h1.982V31H24.1l-.1-.786a2.325,2.325,0,0,1-1.9.923,2.511,2.511,0,0,1-2.1-1.029A4.6,4.6,0,0,1,19.223,27.247Zm1.976.147a2.92,2.92,0,0,0,.362,1.6,1.18,1.18,0,0,0,1.053.555,1.322,1.322,0,0,0,1.292-.774V25.847a1.3,1.3,0,0,0-1.278-.774Q21.2,25.073,21.2,27.394Zm9.625,3.743a3.631,3.631,0,0,1-2.649-1,3.548,3.548,0,0,1-1.022-2.659v-.191a4.468,4.468,0,0,1,.431-1.993,3.161,3.161,0,0,1,1.22-1.354,3.425,3.425,0,0,1,1.8-.475,3.07,3.07,0,0,1,2.389.957,3.889,3.889,0,0,1,.872,2.714v.807h-4.71a1.835,1.835,0,0,0,.578,1.162,1.746,1.746,0,0,0,1.22.438,2.132,2.132,0,0,0,1.784-.827l.971,1.087a2.966,2.966,0,0,1-1.2.981A3.947,3.947,0,0,1,30.824,31.137ZM30.6,25.06a1.234,1.234,0,0,0-.954.4,2.062,2.062,0,0,0-.468,1.14h2.748V26.44a1.471,1.471,0,0,0-.355-1.02A1.274,1.274,0,0,0,30.6,25.06Zm10.951,4.484a1.3,1.3,0,0,0,.889-.3,1.054,1.054,0,0,0,.355-.8h1.853a2.534,2.534,0,0,1-.41,1.377,2.706,2.706,0,0,1-1.1.971,3.455,3.455,0,0,1-1.548.345,3.211,3.211,0,0,1-2.5-1.008,3.99,3.99,0,0,1-.916-2.786v-.13a3.944,3.944,0,0,1,.909-2.728,3.174,3.174,0,0,1,2.5-1.019,3.111,3.111,0,0,1,2.225.79,2.8,2.8,0,0,1,.851,2.1H42.793a1.358,1.358,0,0,0-.355-.938,1.321,1.321,0,0,0-1.945.142,2.916,2.916,0,0,0-.352,1.633V27.4a2.953,2.953,0,0,0,.349,1.643A1.2,1.2,0,0,0,41.549,29.544ZM50.06,31a2.194,2.194,0,0,1-.2-.663,2.39,2.39,0,0,1-1.866.8,2.626,2.626,0,0,1-1.8-.629,2.023,2.023,0,0,1-.714-1.586,2.09,2.09,0,0,1,.872-1.8,4.3,4.3,0,0,1,2.519-.636h.909v-.424a1.219,1.219,0,0,0-.263-.82,1.035,1.035,0,0,0-.831-.308,1.177,1.177,0,0,0-.783.239.813.813,0,0,0-.284.656H45.644a1.984,1.984,0,0,1,.4-1.189,2.621,2.621,0,0,1,1.121-.858,4.086,4.086,0,0,1,1.627-.311,3.228,3.228,0,0,1,2.17.687,2.4,2.4,0,0,1,.8,1.931v3.206a3.536,3.536,0,0,0,.294,1.593V31Zm-1.634-1.374a1.7,1.7,0,0,0,.807-.195,1.28,1.28,0,0,0,.547-.523V27.637h-.738q-1.483,0-1.579,1.025l-.007.116a.791.791,0,0,0,.26.608A1.009,1.009,0,0,0,48.426,29.626ZM55.365,31H53.382V20.5h1.982Zm3.712,0H57.094V23.6h1.982Zm-2.1-9.311a.973.973,0,0,1,.3-.731,1.281,1.281,0,0,1,1.617,0,1.044,1.044,0,0,1,0,1.47,1.267,1.267,0,0,1-1.606,0A.97.97,0,0,1,56.978,21.689ZM60.4,27.247a4.457,4.457,0,0,1,.776-2.755,2.517,2.517,0,0,1,2.123-1.025,2.265,2.265,0,0,1,1.784.807V20.5h1.982V31H65.277l-.1-.786a2.325,2.325,0,0,1-1.9.923,2.511,2.511,0,0,1-2.1-1.029A4.6,4.6,0,0,1,60.4,27.247Zm1.976.147a2.92,2.92,0,0,0,.362,1.6,1.18,1.18,0,0,0,1.053.555,1.322,1.322,0,0,0,1.292-.774V25.847a1.3,1.3,0,0,0-1.278-.774Q62.372,25.073,62.372,27.394ZM72.878,31a2.194,2.194,0,0,1-.2-.663,2.39,2.39,0,0,1-1.866.8,2.626,2.626,0,0,1-1.8-.629,2.023,2.023,0,0,1-.714-1.586,2.09,2.09,0,0,1,.872-1.8,4.3,4.3,0,0,1,2.519-.636H72.6v-.424a1.219,1.219,0,0,0-.263-.82,1.035,1.035,0,0,0-.831-.308,1.177,1.177,0,0,0-.783.239.813.813,0,0,0-.284.656H68.462a1.985,1.985,0,0,1,.4-1.189,2.621,2.621,0,0,1,1.121-.858,4.086,4.086,0,0,1,1.627-.311,3.228,3.228,0,0,1,2.17.687,2.4,2.4,0,0,1,.8,1.931v3.206a3.536,3.536,0,0,0,.294,1.593V31Zm-1.634-1.374a1.7,1.7,0,0,0,.807-.195,1.28,1.28,0,0,0,.547-.523V27.637H71.86q-1.483,0-1.579,1.025l-.007.116a.791.791,0,0,0,.26.608A1.009,1.009,0,0,0,71.245,29.626Zm4.546-2.379a4.457,4.457,0,0,1,.776-2.755,2.517,2.517,0,0,1,2.123-1.025,2.265,2.265,0,0,1,1.784.807V20.5h1.982V31H80.671l-.1-.786a2.325,2.325,0,0,1-1.9.923,2.511,2.511,0,0,1-2.1-1.029A4.6,4.6,0,0,1,75.791,27.247Zm1.976.147a2.92,2.92,0,0,0,.362,1.6,1.18,1.18,0,0,0,1.053.555,1.322,1.322,0,0,0,1.292-.774V25.847a1.3,1.3,0,0,0-1.278-.774Q77.766,25.073,77.766,27.394Z" transform="translate(5706 -9572)" fill="#12263f"/>
    <path id="Trazado_726258" data-name="Trazado 726258" d="M10,0h94a10,10,0,0,1,10,10V35a10,10,0,0,1-10,10H10A10,10,0,0,1,0,35V10A10,10,0,0,1,10,0Z" transform="translate(5324 -9661)" fill="#e2eacb"/>
    <path id="Trazado_726254" data-name="Trazado 726254" d="M10,0h94a10,10,0,0,1,10,10V35a10,10,0,0,1-10,10H10A10,10,0,0,1,0,35V10A10,10,0,0,1,10,0Z" transform="translate(5324 -9490)" fill="#e2eacb"/>
    <path id="Trazado_726259" data-name="Trazado 726259" d="M10,0h94a10,10,0,0,1,10,10V35a10,10,0,0,1-10,10H10A10,10,0,0,1,0,35V10A10,10,0,0,1,10,0Z" transform="translate(5508 -9661)" fill="#e2eacb"/>
    <path id="Trazado_726251" data-name="Trazado 726251" d="M10,0h94a10,10,0,0,1,10,10V35a10,10,0,0,1-10,10H10A10,10,0,0,1,0,35V10A10,10,0,0,1,10,0Z" transform="translate(5508 -9490)" fill="#e2eacb"/>
    <path id="Trazado_726260" data-name="Trazado 726260" d="M2.851,5.047,6.1,13.168,9.358,5.047h1.7V15H9.748V11.124L9.871,6.94,6.6,15h-1L2.338,6.961l.13,4.163V15H1.155V5.047ZM17.746,15a2.657,2.657,0,0,1-.178-.779,2.822,2.822,0,0,1-2.105.916,2.611,2.611,0,0,1-1.794-.619,2,2,0,0,1-.7-1.569,2.091,2.091,0,0,1,.878-1.794,4.142,4.142,0,0,1,2.471-.639h1.23V9.935a1.42,1.42,0,0,0-.4-1.056,1.593,1.593,0,0,0-1.169-.393,1.844,1.844,0,0,0-1.135.342,1.007,1.007,0,0,0-.458.827H13.118a1.745,1.745,0,0,1,.393-1.07,2.683,2.683,0,0,1,1.066-.817,3.588,3.588,0,0,1,1.48-.3,2.924,2.924,0,0,1,2,.639,2.306,2.306,0,0,1,.752,1.76v3.4a4.162,4.162,0,0,0,.26,1.62V15Zm-2.1-.964a2.223,2.223,0,0,0,1.128-.308,1.861,1.861,0,0,0,.772-.8V11.411h-.991q-2.324,0-2.324,1.36a1.151,1.151,0,0,0,.4.93A1.524,1.524,0,0,0,15.647,14.036ZM16.816,4.5h1.531L16.516,6.51l-1.019,0Zm3.671,6.74a4.341,4.341,0,0,1,.8-2.758A2.823,2.823,0,0,1,25.5,8.349L25.56,7.6h1.162v10.24H25.457V14.316a2.654,2.654,0,0,1-2.037.82,2.551,2.551,0,0,1-2.136-1.042,4.438,4.438,0,0,1-.8-2.765Zm1.265.144a3.291,3.291,0,0,0,.537,2,1.707,1.707,0,0,0,1.446.725,1.894,1.894,0,0,0,1.723-1V9.483a1.9,1.9,0,0,0-1.709-.978,1.72,1.72,0,0,0-1.456.728A3.583,3.583,0,0,0,21.752,11.384Zm11.566,2.885a2.686,2.686,0,0,1-2.167.868,2.3,2.3,0,0,1-1.8-.687,2.974,2.974,0,0,1-.625-2.034V7.6h1.265v4.778q0,1.682,1.367,1.682a1.893,1.893,0,0,0,1.928-1.08V7.6h1.265V15h-1.2ZM37.844,15H36.579V7.6h1.265ZM36.477,5.642a.755.755,0,0,1,.188-.52.706.706,0,0,1,.557-.212.717.717,0,0,1,.561.212.747.747,0,0,1,.191.52.722.722,0,0,1-.191.513.73.73,0,0,1-.561.205.718.718,0,0,1-.557-.205A.73.73,0,0,1,36.477,5.642ZM41.063,7.6l.041.93a2.7,2.7,0,0,1,2.215-1.066q2.345,0,2.365,2.646V15H44.42V10.105a1.7,1.7,0,0,0-.366-1.183,1.466,1.466,0,0,0-1.118-.383,1.825,1.825,0,0,0-1.08.328,2.228,2.228,0,0,0-.725.861V15H39.867V7.6ZM52.158,15a2.657,2.657,0,0,1-.178-.779,2.822,2.822,0,0,1-2.105.916,2.611,2.611,0,0,1-1.794-.619,2,2,0,0,1-.7-1.569,2.091,2.091,0,0,1,.878-1.794,4.142,4.142,0,0,1,2.471-.639h1.23V9.935a1.42,1.42,0,0,0-.4-1.056,1.593,1.593,0,0,0-1.169-.393,1.844,1.844,0,0,0-1.135.342,1.007,1.007,0,0,0-.458.827H47.53a1.745,1.745,0,0,1,.393-1.07,2.683,2.683,0,0,1,1.066-.817,3.588,3.588,0,0,1,1.48-.3,2.924,2.924,0,0,1,2,.639,2.306,2.306,0,0,1,.752,1.76v3.4a4.162,4.162,0,0,0,.26,1.62V15Zm-2.1-.964a2.223,2.223,0,0,0,1.128-.308,1.861,1.861,0,0,0,.772-.8V11.411h-.991q-2.324,0-2.324,1.36a1.151,1.151,0,0,0,.4.93A1.524,1.524,0,0,0,50.06,14.036Zm9.454-1a.931.931,0,0,0-.386-.8,3.718,3.718,0,0,0-1.347-.489,6.367,6.367,0,0,1-1.524-.492,2.169,2.169,0,0,1-.834-.684,1.635,1.635,0,0,1-.27-.943A1.919,1.919,0,0,1,55.921,8.1a3,3,0,0,1,1.965-.629,3.091,3.091,0,0,1,2.041.649,2.063,2.063,0,0,1,.783,1.661H59.438a1.142,1.142,0,0,0-.441-.9,1.652,1.652,0,0,0-1.111-.376,1.729,1.729,0,0,0-1.08.3.947.947,0,0,0-.39.786.767.767,0,0,0,.362.69,4.458,4.458,0,0,0,1.309.444,6.821,6.821,0,0,1,1.535.506,2.239,2.239,0,0,1,.872.708,1.74,1.74,0,0,1,.284,1.008,1.893,1.893,0,0,1-.793,1.589,3.326,3.326,0,0,1-2.058.6,3.725,3.725,0,0,1-1.572-.314,2.557,2.557,0,0,1-1.07-.878,2.117,2.117,0,0,1-.386-1.22h1.265a1.309,1.309,0,0,0,.509,1.008,1.976,1.976,0,0,0,1.254.373,2.039,2.039,0,0,0,1.152-.291A.893.893,0,0,0,59.514,13.038Zm8.8.109L70.034,7.6h1.354l-2.974,8.538q-.69,1.846-2.194,1.846l-.239-.021-.472-.089V16.853l.342.027a1.683,1.683,0,0,0,1-.26,1.88,1.88,0,0,0,.591-.95l.28-.752L65.085,7.6h1.381ZM4.026,29.137a3.232,3.232,0,0,1-2.447-.988,3.666,3.666,0,0,1-.943-2.642v-.232a4.438,4.438,0,0,1,.42-1.965,3.28,3.28,0,0,1,1.176-1.354,2.956,2.956,0,0,1,1.637-.489,2.77,2.77,0,0,1,2.242.95,4.114,4.114,0,0,1,.8,2.721v.526H1.9a2.629,2.629,0,0,0,.639,1.767,2.009,2.009,0,0,0,1.555.673,2.2,2.2,0,0,0,1.135-.273,2.851,2.851,0,0,0,.813-.725l.772.6A3.106,3.106,0,0,1,4.026,29.137Zm-.157-6.631a1.687,1.687,0,0,0-1.285.557,2.708,2.708,0,0,0-.643,1.562H5.646v-.1a2.409,2.409,0,0,0-.52-1.494A1.588,1.588,0,0,0,3.869,22.506Zm4.2,2.734a4.341,4.341,0,0,1,.8-2.758,2.592,2.592,0,0,1,2.146-1.015,2.59,2.59,0,0,1,2.071.882l.055-.745H14.3v10.24H13.036V28.316a2.654,2.654,0,0,1-2.037.82,2.551,2.551,0,0,1-2.136-1.042,4.438,4.438,0,0,1-.8-2.765Zm1.265.144a3.291,3.291,0,0,0,.537,2,1.707,1.707,0,0,0,1.446.725,1.894,1.894,0,0,0,1.723-1V23.483a1.9,1.9,0,0,0-1.709-.978,1.72,1.72,0,0,0-1.456.728A3.583,3.583,0,0,0,9.331,25.384ZM20.9,28.269a2.686,2.686,0,0,1-2.167.868,2.3,2.3,0,0,1-1.8-.687,2.974,2.974,0,0,1-.625-2.034V21.6h1.265v4.778q0,1.682,1.367,1.682a1.893,1.893,0,0,0,1.928-1.08V21.6h1.265V29h-1.2ZM25.423,29H24.158V21.6h1.265Zm-1.367-9.358a.755.755,0,0,1,.188-.52.706.706,0,0,1,.557-.212.717.717,0,0,1,.561.212.747.747,0,0,1,.191.52.722.722,0,0,1-.191.513.73.73,0,0,1-.561.205.718.718,0,0,1-.557-.205A.73.73,0,0,1,24.056,19.642Zm9.639,5.742a4.429,4.429,0,0,1-.772,2.721,2.476,2.476,0,0,1-2.092,1.032,2.713,2.713,0,0,1-2.119-.854v3.562H27.446V21.6H28.6l.062.82a2.605,2.605,0,0,1,2.146-.957,2.522,2.522,0,0,1,2.109,1,4.477,4.477,0,0,1,.776,2.8ZM32.43,25.24a3.268,3.268,0,0,0-.533-1.976,1.718,1.718,0,0,0-1.463-.725,1.859,1.859,0,0,0-1.723,1.019v3.534A1.863,1.863,0,0,0,30.447,28.1a1.71,1.71,0,0,0,1.446-.721A3.567,3.567,0,0,0,32.43,25.24Zm2.536-.007a4.369,4.369,0,0,1,.427-1.955,3.187,3.187,0,0,1,1.189-1.34,3.238,3.238,0,0,1,1.74-.472,3.119,3.119,0,0,1,2.444,1.046,4.024,4.024,0,0,1,.933,2.782v.089a4.407,4.407,0,0,1-.414,1.938A3.14,3.14,0,0,1,40.1,28.658a3.275,3.275,0,0,1-1.767.479A3.111,3.111,0,0,1,35.9,28.091a4,4,0,0,1-.933-2.769Zm1.271.15a3.164,3.164,0,0,0,.571,1.976,1.934,1.934,0,0,0,3.059-.01,3.46,3.46,0,0,0,.567-2.116,3.159,3.159,0,0,0-.578-1.972,1.836,1.836,0,0,0-1.535-.755,1.816,1.816,0,0,0-1.511.745A3.434,3.434,0,0,0,36.237,25.384Zm11.354,1.654a.931.931,0,0,0-.386-.8,3.718,3.718,0,0,0-1.347-.489,6.367,6.367,0,0,1-1.524-.492,2.169,2.169,0,0,1-.834-.684,1.635,1.635,0,0,1-.27-.943A1.919,1.919,0,0,1,44,22.1a3,3,0,0,1,1.965-.629,3.091,3.091,0,0,1,2.041.649,2.063,2.063,0,0,1,.783,1.661H47.517a1.142,1.142,0,0,0-.441-.9,1.652,1.652,0,0,0-1.111-.376,1.729,1.729,0,0,0-1.08.3.947.947,0,0,0-.39.786.767.767,0,0,0,.362.69,4.458,4.458,0,0,0,1.309.444,6.821,6.821,0,0,1,1.535.506,2.239,2.239,0,0,1,.872.708,1.74,1.74,0,0,1,.284,1.008,1.893,1.893,0,0,1-.793,1.589,3.326,3.326,0,0,1-2.058.6,3.725,3.725,0,0,1-1.572-.314,2.557,2.557,0,0,1-1.07-.878,2.117,2.117,0,0,1-.386-1.22h1.265a1.309,1.309,0,0,0,.509,1.008,1.976,1.976,0,0,0,1.254.373,2.039,2.039,0,0,0,1.152-.291A.893.893,0,0,0,47.592,27.038Z" transform="translate(5340 -9654)" fill="#12263f"/>
    <path id="Trazado_726256" data-name="Trazado 726256" d="M2.468,11.1V15H1.155V5.047H4.826a3.688,3.688,0,0,1,2.56.834,2.827,2.827,0,0,1,.926,2.208,2.79,2.79,0,0,1-.906,2.232,3.853,3.853,0,0,1-2.594.783Zm0-1.073H4.826a2.358,2.358,0,0,0,1.613-.5A1.815,1.815,0,0,0,7,8.1a1.876,1.876,0,0,0-.561-1.424A2.209,2.209,0,0,0,4.9,6.12H2.468Zm10.391,5.106a3.232,3.232,0,0,1-2.447-.988,3.666,3.666,0,0,1-.943-2.642v-.232a4.438,4.438,0,0,1,.42-1.965,3.28,3.28,0,0,1,1.176-1.354A2.956,2.956,0,0,1,12.7,7.467a2.77,2.77,0,0,1,2.242.95,4.114,4.114,0,0,1,.8,2.721v.526H10.732a2.629,2.629,0,0,0,.639,1.767,2.009,2.009,0,0,0,1.555.673,2.2,2.2,0,0,0,1.135-.273,2.851,2.851,0,0,0,.813-.725l.772.6A3.106,3.106,0,0,1,12.858,15.137ZM12.7,8.506a1.687,1.687,0,0,0-1.285.557,2.708,2.708,0,0,0-.643,1.562h3.705v-.1a2.409,2.409,0,0,0-.52-1.494A1.588,1.588,0,0,0,12.7,8.506Zm8.08.232a3.79,3.79,0,0,0-.622-.048,1.667,1.667,0,0,0-1.688,1.06V15H17.206V7.6h1.23l.021.854a1.969,1.969,0,0,1,1.764-.991,1.292,1.292,0,0,1,.561.1Zm5.469,4.3a.931.931,0,0,0-.386-.8,3.718,3.718,0,0,0-1.347-.489,6.367,6.367,0,0,1-1.524-.492,2.169,2.169,0,0,1-.834-.684,1.635,1.635,0,0,1-.27-.943A1.919,1.919,0,0,1,22.658,8.1a3,3,0,0,1,1.965-.629,3.091,3.091,0,0,1,2.041.649,2.063,2.063,0,0,1,.783,1.661H26.175a1.142,1.142,0,0,0-.441-.9,1.652,1.652,0,0,0-1.111-.376,1.729,1.729,0,0,0-1.08.3.947.947,0,0,0-.39.786.767.767,0,0,0,.362.69,4.458,4.458,0,0,0,1.309.444,6.821,6.821,0,0,1,1.535.506,2.239,2.239,0,0,1,.872.708,1.74,1.74,0,0,1,.284,1.008,1.893,1.893,0,0,1-.793,1.589,3.326,3.326,0,0,1-2.058.6,3.725,3.725,0,0,1-1.572-.314,2.557,2.557,0,0,1-1.07-.878,2.117,2.117,0,0,1-.386-1.22H22.9a1.309,1.309,0,0,0,.509,1.008,1.976,1.976,0,0,0,1.254.373,2.039,2.039,0,0,0,1.152-.291A.893.893,0,0,0,26.25,13.038Zm2.577-1.8a4.369,4.369,0,0,1,.427-1.955,3.187,3.187,0,0,1,1.189-1.34,3.238,3.238,0,0,1,1.74-.472,3.119,3.119,0,0,1,2.444,1.046,4.024,4.024,0,0,1,.933,2.782v.089a4.407,4.407,0,0,1-.414,1.938,3.14,3.14,0,0,1-1.183,1.336,3.275,3.275,0,0,1-1.767.479,3.111,3.111,0,0,1-2.437-1.046,4,4,0,0,1-.933-2.769Zm1.271.15a3.164,3.164,0,0,0,.571,1.976,1.934,1.934,0,0,0,3.059-.01,3.46,3.46,0,0,0,.567-2.116,3.159,3.159,0,0,0-.578-1.972,1.836,1.836,0,0,0-1.535-.755,1.816,1.816,0,0,0-1.511.745A3.435,3.435,0,0,0,30.1,11.384ZM38.343,7.6l.041.93A2.7,2.7,0,0,1,40.6,7.467q2.345,0,2.365,2.646V15H41.7V10.105a1.7,1.7,0,0,0-.366-1.183,1.466,1.466,0,0,0-1.118-.383,1.825,1.825,0,0,0-1.08.328,2.228,2.228,0,0,0-.725.861V15H37.146V7.6ZM49.438,15a2.657,2.657,0,0,1-.178-.779,2.822,2.822,0,0,1-2.105.916,2.611,2.611,0,0,1-1.794-.619,2,2,0,0,1-.7-1.569,2.091,2.091,0,0,1,.878-1.794,4.142,4.142,0,0,1,2.471-.639h1.23V9.935a1.42,1.42,0,0,0-.4-1.056,1.593,1.593,0,0,0-1.169-.393,1.844,1.844,0,0,0-1.135.342,1.007,1.007,0,0,0-.458.827H44.81a1.745,1.745,0,0,1,.393-1.07,2.683,2.683,0,0,1,1.066-.817,3.588,3.588,0,0,1,1.48-.3,2.924,2.924,0,0,1,2,.639,2.306,2.306,0,0,1,.752,1.76v3.4a4.162,4.162,0,0,0,.26,1.62V15Zm-2.1-.964a2.223,2.223,0,0,0,1.128-.308,1.861,1.861,0,0,0,.772-.8V11.411h-.991q-2.324,0-2.324,1.36a1.151,1.151,0,0,0,.4.93A1.524,1.524,0,0,0,47.339,14.036Zm9.454-1a.931.931,0,0,0-.386-.8,3.718,3.718,0,0,0-1.347-.489,6.367,6.367,0,0,1-1.524-.492,2.169,2.169,0,0,1-.834-.684,1.635,1.635,0,0,1-.27-.943A1.919,1.919,0,0,1,53.2,8.1a3,3,0,0,1,1.965-.629,3.091,3.091,0,0,1,2.041.649,2.063,2.063,0,0,1,.783,1.661H56.718a1.142,1.142,0,0,0-.441-.9,1.652,1.652,0,0,0-1.111-.376,1.729,1.729,0,0,0-1.08.3.947.947,0,0,0-.39.786.767.767,0,0,0,.362.69,4.458,4.458,0,0,0,1.309.444,6.821,6.821,0,0,1,1.535.506,2.239,2.239,0,0,1,.872.708,1.74,1.74,0,0,1,.284,1.008,1.893,1.893,0,0,1-.793,1.589,3.326,3.326,0,0,1-2.058.6,3.725,3.725,0,0,1-1.572-.314,2.557,2.557,0,0,1-1.07-.878,2.117,2.117,0,0,1-.386-1.22h1.265a1.309,1.309,0,0,0,.509,1.008,1.976,1.976,0,0,0,1.254.373,2.039,2.039,0,0,0,1.152-.291A.893.893,0,0,0,56.793,13.038Z" transform="translate(5340 -9476)" fill="#12263f"/>
    <path id="Trazado_726261" data-name="Trazado 726261" d="M2.851,5.047,6.1,13.168,9.358,5.047h1.7V15H9.748V11.124L9.871,6.94,6.6,15h-1L2.338,6.961l.13,4.163V15H1.155V5.047Zm13.4,10.09a3.232,3.232,0,0,1-2.447-.988,3.666,3.666,0,0,1-.943-2.642v-.232a4.438,4.438,0,0,1,.42-1.965,3.28,3.28,0,0,1,1.176-1.354,2.956,2.956,0,0,1,1.637-.489,2.77,2.77,0,0,1,2.242.95,4.114,4.114,0,0,1,.8,2.721v.526H14.123a2.629,2.629,0,0,0,.639,1.767,2.009,2.009,0,0,0,1.555.673,2.2,2.2,0,0,0,1.135-.273,2.851,2.851,0,0,0,.813-.725l.772.6A3.106,3.106,0,0,1,16.249,15.137Zm-.157-6.631a1.687,1.687,0,0,0-1.285.557,2.708,2.708,0,0,0-.643,1.562h3.705v-.1a2.409,2.409,0,0,0-.52-1.494A1.588,1.588,0,0,0,16.092,8.506Zm4.2,2.734A4.333,4.333,0,0,1,21.1,8.5a2.745,2.745,0,0,1,4.17-.147V4.5H26.53V15H25.368l-.062-.793a2.575,2.575,0,0,1-2.112.93,2.526,2.526,0,0,1-2.1-1.053,4.382,4.382,0,0,1-.81-2.748Zm1.265.144a3.281,3.281,0,0,0,.52,1.969,1.68,1.68,0,0,0,1.436.711,1.845,1.845,0,0,0,1.757-1.08v-3.4A1.859,1.859,0,0,0,23.522,8.54a1.687,1.687,0,0,0-1.449.718A3.612,3.612,0,0,0,21.554,11.384ZM29.866,15H28.6V7.6h1.265ZM28.5,5.642a.755.755,0,0,1,.188-.52.706.706,0,0,1,.557-.212.717.717,0,0,1,.561.212.747.747,0,0,1,.191.52.722.722,0,0,1-.191.513.73.73,0,0,1-.561.205.718.718,0,0,1-.557-.205A.73.73,0,0,1,28.5,5.642ZM34.856,14.1a1.822,1.822,0,0,0,1.183-.41,1.443,1.443,0,0,0,.561-1.025h1.2a2.293,2.293,0,0,1-.437,1.21,2.881,2.881,0,0,1-1.077.916,3.107,3.107,0,0,1-1.425.342,3.047,3.047,0,0,1-2.4-1.008,4.016,4.016,0,0,1-.892-2.758v-.212a4.453,4.453,0,0,1,.4-1.921A3.02,3.02,0,0,1,33.1,7.932a3.233,3.233,0,0,1,1.753-.465,2.966,2.966,0,0,1,2.068.745,2.663,2.663,0,0,1,.878,1.935H36.6a1.743,1.743,0,0,0-.543-1.179,1.691,1.691,0,0,0-1.207-.461,1.77,1.77,0,0,0-1.494.694,3.259,3.259,0,0,0-.53,2.006v.239a3.194,3.194,0,0,0,.526,1.969A1.779,1.779,0,0,0,34.856,14.1Zm5.735.9H39.327V7.6h1.265ZM39.225,5.642a.755.755,0,0,1,.188-.52.706.706,0,0,1,.557-.212.717.717,0,0,1,.561.212.747.747,0,0,1,.191.52.722.722,0,0,1-.191.513.73.73,0,0,1-.561.205.718.718,0,0,1-.557-.205A.73.73,0,0,1,39.225,5.642Zm3.056,5.592a4.369,4.369,0,0,1,.427-1.955A3.187,3.187,0,0,1,43.9,7.938a3.238,3.238,0,0,1,1.74-.472,3.119,3.119,0,0,1,2.444,1.046,4.024,4.024,0,0,1,.933,2.782v.089a4.407,4.407,0,0,1-.414,1.938,3.14,3.14,0,0,1-1.183,1.336,3.275,3.275,0,0,1-1.767.479,3.111,3.111,0,0,1-2.437-1.046,4,4,0,0,1-.933-2.769Zm1.271.15a3.164,3.164,0,0,0,.571,1.976,1.934,1.934,0,0,0,3.059-.01,3.46,3.46,0,0,0,.567-2.116,3.159,3.159,0,0,0-.578-1.972,1.836,1.836,0,0,0-1.535-.755,1.816,1.816,0,0,0-1.511.745A3.435,3.435,0,0,0,43.552,11.384ZM46.211,4.5h1.531L45.91,6.51l-1.019,0ZM51.8,7.6l.041.93a2.7,2.7,0,0,1,2.215-1.066q2.345,0,2.365,2.646V15H55.152V10.105a1.7,1.7,0,0,0-.366-1.183,1.466,1.466,0,0,0-1.118-.383,1.825,1.825,0,0,0-1.08.328,2.228,2.228,0,0,0-.725.861V15H50.6V7.6Z" transform="translate(5520 -9647)" fill="#12263f"/>
    <path id="Trazado_726252" data-name="Trazado 726252" d="M2.851,5.047,6.1,13.168,9.358,5.047h1.7V15H9.748V11.124L9.871,6.94,6.6,15h-1L2.338,6.961l.13,4.163V15H1.155V5.047ZM17.746,15a2.657,2.657,0,0,1-.178-.779,2.822,2.822,0,0,1-2.105.916,2.611,2.611,0,0,1-1.794-.619,2,2,0,0,1-.7-1.569,2.091,2.091,0,0,1,.878-1.794,4.142,4.142,0,0,1,2.471-.639h1.23V9.935a1.42,1.42,0,0,0-.4-1.056,1.593,1.593,0,0,0-1.169-.393,1.844,1.844,0,0,0-1.135.342,1.007,1.007,0,0,0-.458.827H13.118a1.745,1.745,0,0,1,.393-1.07,2.683,2.683,0,0,1,1.066-.817,3.588,3.588,0,0,1,1.48-.3,2.924,2.924,0,0,1,2,.639,2.306,2.306,0,0,1,.752,1.76v3.4a4.162,4.162,0,0,0,.26,1.62V15Zm-2.1-.964a2.223,2.223,0,0,0,1.128-.308,1.861,1.861,0,0,0,.772-.8V11.411h-.991q-2.324,0-2.324,1.36a1.151,1.151,0,0,0,.4.93A1.524,1.524,0,0,0,15.647,14.036Zm6.863-8.224V7.6h1.381v.978H22.511v4.593a1.027,1.027,0,0,0,.185.667.777.777,0,0,0,.629.222,3.062,3.062,0,0,0,.6-.082V15a3.688,3.688,0,0,1-.971.136,1.575,1.575,0,0,1-1.278-.513,2.2,2.2,0,0,1-.431-1.456V8.581H19.9V7.6h1.347V5.813Zm5.927,9.324a3.232,3.232,0,0,1-2.447-.988,3.666,3.666,0,0,1-.943-2.642v-.232a4.438,4.438,0,0,1,.42-1.965,3.28,3.28,0,0,1,1.176-1.354,2.956,2.956,0,0,1,1.637-.489,2.77,2.77,0,0,1,2.242.95,4.114,4.114,0,0,1,.8,2.721v.526H26.312a2.629,2.629,0,0,0,.639,1.767,2.009,2.009,0,0,0,1.555.673,2.2,2.2,0,0,0,1.135-.273,2.851,2.851,0,0,0,.813-.725l.772.6A3.106,3.106,0,0,1,28.438,15.137ZM28.28,8.506A1.687,1.687,0,0,0,27,9.063a2.708,2.708,0,0,0-.643,1.562h3.705v-.1a2.409,2.409,0,0,0-.52-1.494A1.588,1.588,0,0,0,28.28,8.506Zm8.08.232a3.79,3.79,0,0,0-.622-.048A1.667,1.667,0,0,0,34.05,9.75V15H32.785V7.6h1.23l.021.854A1.969,1.969,0,0,1,35.8,7.467a1.292,1.292,0,0,1,.561.1ZM38.9,15H37.632V7.6H38.9ZM37.529,5.642a.755.755,0,0,1,.188-.52.706.706,0,0,1,.557-.212.717.717,0,0,1,.561.212.747.747,0,0,1,.191.52.722.722,0,0,1-.191.513.73.73,0,0,1-.561.205.718.718,0,0,1-.557-.205A.73.73,0,0,1,37.529,5.642ZM45.486,15a2.657,2.657,0,0,1-.178-.779,2.822,2.822,0,0,1-2.105.916,2.611,2.611,0,0,1-1.794-.619,2,2,0,0,1-.7-1.569,2.091,2.091,0,0,1,.878-1.794,4.142,4.142,0,0,1,2.471-.639h1.23V9.935a1.42,1.42,0,0,0-.4-1.056,1.593,1.593,0,0,0-1.169-.393,1.844,1.844,0,0,0-1.135.342,1.007,1.007,0,0,0-.458.827H40.858a1.745,1.745,0,0,1,.393-1.07,2.683,2.683,0,0,1,1.066-.817,3.588,3.588,0,0,1,1.48-.3,2.924,2.924,0,0,1,2,.639,2.306,2.306,0,0,1,.752,1.76v3.4a4.162,4.162,0,0,0,.26,1.62V15Zm-2.1-.964a2.223,2.223,0,0,0,1.128-.308,1.861,1.861,0,0,0,.772-.8V11.411H44.3q-2.324,0-2.324,1.36a1.151,1.151,0,0,0,.4.93A1.524,1.524,0,0,0,43.388,14.036Zm9.454-1a.931.931,0,0,0-.386-.8,3.718,3.718,0,0,0-1.347-.489,6.367,6.367,0,0,1-1.524-.492,2.169,2.169,0,0,1-.834-.684,1.635,1.635,0,0,1-.27-.943A1.919,1.919,0,0,1,49.25,8.1a3,3,0,0,1,1.965-.629,3.091,3.091,0,0,1,2.041.649,2.063,2.063,0,0,1,.783,1.661H52.767a1.142,1.142,0,0,0-.441-.9,1.652,1.652,0,0,0-1.111-.376,1.729,1.729,0,0,0-1.08.3.947.947,0,0,0-.39.786.767.767,0,0,0,.362.69,4.458,4.458,0,0,0,1.309.444,6.821,6.821,0,0,1,1.535.506,2.239,2.239,0,0,1,.872.708,1.74,1.74,0,0,1,.284,1.008,1.893,1.893,0,0,1-.793,1.589,3.326,3.326,0,0,1-2.058.6,3.725,3.725,0,0,1-1.572-.314,2.557,2.557,0,0,1-1.07-.878,2.117,2.117,0,0,1-.386-1.22h1.265A1.309,1.309,0,0,0,50,13.732a1.976,1.976,0,0,0,1.254.373,2.039,2.039,0,0,0,1.152-.291A.893.893,0,0,0,52.842,13.038ZM7.205,25.384A4.429,4.429,0,0,1,6.433,28.1a2.476,2.476,0,0,1-2.092,1.032,2.713,2.713,0,0,1-2.119-.854v3.562H.957V21.6H2.112l.062.82a2.605,2.605,0,0,1,2.146-.957,2.522,2.522,0,0,1,2.109,1,4.477,4.477,0,0,1,.776,2.8ZM5.94,25.24a3.268,3.268,0,0,0-.533-1.976,1.718,1.718,0,0,0-1.463-.725,1.859,1.859,0,0,0-1.723,1.019v3.534A1.863,1.863,0,0,0,3.958,28.1,1.71,1.71,0,0,0,5.4,27.383,3.567,3.567,0,0,0,5.94,25.24Zm6.446-2.5a3.79,3.79,0,0,0-.622-.048,1.667,1.667,0,0,0-1.688,1.06V29H8.812V21.6h1.23l.021.854a1.969,1.969,0,0,1,1.764-.991,1.292,1.292,0,0,1,.561.1ZM14.923,29H13.658V21.6h1.265Zm-1.367-9.358a.755.755,0,0,1,.188-.52.706.706,0,0,1,.557-.212.717.717,0,0,1,.561.212.747.747,0,0,1,.191.52.722.722,0,0,1-.191.513.73.73,0,0,1-.561.205.718.718,0,0,1-.557-.205A.73.73,0,0,1,13.556,19.642Zm4.58,1.962.034.82a2.732,2.732,0,0,1,2.194-.957,2.115,2.115,0,0,1,2.112,1.189,2.8,2.8,0,0,1,.96-.861,2.837,2.837,0,0,1,1.4-.328q2.434,0,2.475,2.577V29H26.045V24.119a1.7,1.7,0,0,0-.362-1.186,1.6,1.6,0,0,0-1.217-.393,1.677,1.677,0,0,0-1.169.42,1.706,1.706,0,0,0-.54,1.131V29H21.485V24.153a1.411,1.411,0,0,0-1.579-1.613,1.692,1.692,0,0,0-1.7,1.06V29H16.939V21.6ZM33.783,29a2.657,2.657,0,0,1-.178-.779,2.822,2.822,0,0,1-2.105.916,2.611,2.611,0,0,1-1.794-.619,2,2,0,0,1-.7-1.569,2.091,2.091,0,0,1,.878-1.794,4.141,4.141,0,0,1,2.471-.639h1.23v-.581a1.42,1.42,0,0,0-.4-1.056,1.593,1.593,0,0,0-1.169-.393,1.844,1.844,0,0,0-1.135.342,1.007,1.007,0,0,0-.458.827H29.155a1.745,1.745,0,0,1,.393-1.07,2.683,2.683,0,0,1,1.066-.817,3.588,3.588,0,0,1,1.48-.3,2.924,2.924,0,0,1,2,.639,2.306,2.306,0,0,1,.752,1.76v3.4a4.162,4.162,0,0,0,.26,1.62V29Zm-2.1-.964a2.223,2.223,0,0,0,1.128-.308,1.861,1.861,0,0,0,.772-.8V25.411h-.991q-2.324,0-2.324,1.36a1.151,1.151,0,0,0,.4.93A1.524,1.524,0,0,0,31.685,28.036Zm9.454-1a.931.931,0,0,0-.386-.8,3.718,3.718,0,0,0-1.347-.489,6.367,6.367,0,0,1-1.524-.492,2.169,2.169,0,0,1-.834-.684,1.635,1.635,0,0,1-.27-.943,1.919,1.919,0,0,1,.769-1.538,3,3,0,0,1,1.965-.629,3.091,3.091,0,0,1,2.041.649,2.063,2.063,0,0,1,.783,1.661H41.063a1.142,1.142,0,0,0-.441-.9,1.652,1.652,0,0,0-1.111-.376,1.729,1.729,0,0,0-1.08.3.947.947,0,0,0-.39.786.767.767,0,0,0,.362.69,4.458,4.458,0,0,0,1.309.444,6.821,6.821,0,0,1,1.535.506,2.239,2.239,0,0,1,.872.708,1.74,1.74,0,0,1,.284,1.008,1.893,1.893,0,0,1-.793,1.589,3.326,3.326,0,0,1-2.058.6,3.725,3.725,0,0,1-1.572-.314,2.557,2.557,0,0,1-1.07-.878,2.117,2.117,0,0,1-.386-1.22h1.265a1.309,1.309,0,0,0,.509,1.008,1.976,1.976,0,0,0,1.254.373,2.039,2.039,0,0,0,1.152-.291A.893.893,0,0,0,41.139,27.038Z" transform="translate(5520 -9483)" fill="#12263f"/>
    <path id="Trazado_726257" data-name="Trazado 726257" d="M4,0H346a4,4,0,0,1,0,8H4A4,4,0,0,1,4,0Z" transform="translate(5324 -9559)" fill="#0e494d"/>
    <path id="Trazado_726228" data-name="Trazado 726228" d="M27.025,0,25.649,25.649,0,27.025Z" transform="translate(5644.372 -9554.722) rotate(-45)" fill="#0e494d"/>
    <path id="Icon_awesome-long-arrow-alt-right" data-name="Icon awesome-long-arrow-alt-right" d="M22.074,15.188H-41.583a.844.844,0,0,0-.844.844v3.938a.844.844,0,0,0,.844.844H22.074v3.239a1.688,1.688,0,0,0,2.881,1.193l6.051-6.051a1.687,1.687,0,0,0,0-2.386l-6.051-6.051a1.688,1.688,0,0,0-2.881,1.193Z" transform="translate(5629.352 -9597.865) rotate(45)" fill="#34bc85"/>
    <path id="Icon_awesome-long-arrow-alt-right-2" data-name="Icon awesome-long-arrow-alt-right" d="M64.5,10.554H.844A.844.844,0,0,1,0,9.711V5.773a.844.844,0,0,1,.844-.844H64.5V1.691A1.688,1.688,0,0,1,67.381.5l6.051,6.051a1.687,1.687,0,0,1,0,2.386l-6.051,6.051A1.688,1.688,0,0,1,64.5,13.793Z" transform="translate(5581.149 -9500.338) rotate(-45)" fill="#34bc85"/>
    <path id="Icon_awesome-long-arrow-alt-right-3" data-name="Icon awesome-long-arrow-alt-right" d="M22.074,15.188H-41.583a.844.844,0,0,0-.844.844v3.938a.844.844,0,0,0,.844.844H22.074v3.239a1.688,1.688,0,0,0,2.881,1.193l6.051-6.051a1.687,1.687,0,0,0,0-2.386l-6.051-6.051a1.688,1.688,0,0,0-2.881,1.193Z" transform="translate(5483.979 -9597.865) rotate(45)" fill="#34bc85"/>
    <path id="Icon_awesome-long-arrow-alt-right-4" data-name="Icon awesome-long-arrow-alt-right" d="M64.5,10.554H.844A.844.844,0,0,1,0,9.711V5.773a.844.844,0,0,1,.844-.844H64.5V1.691A1.688,1.688,0,0,1,67.381.5l6.051,6.051a1.687,1.687,0,0,1,0,2.386l-6.051,6.051A1.688,1.688,0,0,1,64.5,13.793Z" transform="translate(5435.777 -9500.338) rotate(-45)" fill="#34bc85"/>
  </g>
</svg>
