<svg xmlns="http://www.w3.org/2000/svg" width="85" height="73.552" viewBox="0 0 85 73.552">
  <g id="Grupo_959260" data-name="Grupo 959260" transform="translate(-76.082 -209.276)">
    <path id="Trazado_726189" data-name="Trazado 726189" d="M117.393,210.447a1.225,1.225,0,0,1,1.41-1.17q18.96.015,37.92.012a4.416,4.416,0,0,1,4.357,4.577q0,27.438,0,54.877,0,6.278,0,12.555c0,1.158-.361,1.513-1.534,1.513q-40.949,0-81.9.015a1.887,1.887,0,0,1-1.567-.68v-69.37a17.11,17.11,0,0,1,.845-1.663,4.356,4.356,0,0,1,3.542-1.827q13.976-.009,27.953-.011c.828,0,1.309.321,1.422,1.152a1.082,1.082,0,0,1-.931,1.374,6.053,6.053,0,0,1-1.405.075q-12.9,0-25.808,0c-2.5,0-3.027.523-3.028,3.011,0,2.3-.008,4.6,0,6.9.005.92.1,1,.988,1.03.249.008.5,0,.747,0q38.213,0,76.426,0c1.764,0,1.651.093,1.654-1.689q.006-3.243,0-6.486c-.006-2.113-.662-2.768-2.8-2.769q-17.966-.006-35.931,0a6.756,6.756,0,0,1-1.324-.056A1.144,1.144,0,0,1,117.393,210.447Z" fill="#040506"/>
    <path id="Trazado_726190" data-name="Trazado 726190" d="M125.491,214.489c.142.924.727,1.176,1.6,1.175q18.509-.021,37.019-.01c1.974,0,2.749.78,2.75,2.763,0,2.661-.016,5.323.012,7.984.006.581-.09.807-.752.806q-39.426-.028-78.852,0c-.629,0-.782-.168-.775-.785.034-2.772.01-5.545.016-8.317a2.221,2.221,0,0,1,2.475-2.449q13.7,0,27.39,0c1.068,0,1.316-.191,1.571-1.184Z" transform="translate(-8.098 -4.042)" fill="#6c3b88"/>
    <path id="Trazado_726191" data-name="Trazado 726191" d="M126.61,337.412q-19.625,0-39.251.021c-.76,0-.876-.216-.875-.911q.03-26.567,0-53.135c0-.732.149-.95.924-.95q39.251.035,78.5.005c.7,0,.965.1.964.909q-.042,26.609-.005,53.218c0,.677-.136.861-.84.86Q146.318,337.394,126.61,337.412Z" transform="translate(-8.093 -56.928)" fill="#ebeae9"/>
    <path id="Trazado_726192" data-name="Trazado 726192" d="M111.148,240.688c.688,0,1.377-.021,2.065.006a1.03,1.03,0,0,1,1.084,1.1,1.049,1.049,0,0,1-1.013,1.189c-1.456.071-2.919.066-4.375,0a1.152,1.152,0,0,1,.092-2.3C109.716,240.676,110.432,240.688,111.148,240.688Z" transform="translate(-24.752 -24.436)" fill="#050506"/>
    <path id="Trazado_726193" data-name="Trazado 726193" d="M157.53,240.657c.661,0,1.322-.016,1.982,0a1.045,1.045,0,0,1,1.136,1.138,1.078,1.078,0,0,1-1.12,1.178c-1.375.053-2.754.044-4.129.005a1.131,1.131,0,0,1-1.16-1.163,1.147,1.147,0,0,1,1.226-1.16c.688-.024,1.377-.005,2.065-.005Z" transform="translate(-60.814 -24.41)" fill="#050506"/>
    <path id="Trazado_726194" data-name="Trazado 726194" d="M239.1,473.686a1.417,1.417,0,0,1,1.632-1.178c1.05.034,2.1-.006,3.151.012a2.532,2.532,0,0,1,2.673,2.72c.009,1.5.013,2.992,0,4.488a2.46,2.46,0,0,1-2.617,2.582q-20.239.006-40.478,0a2.454,2.454,0,0,1-2.6-2.6q-.026-2.286,0-4.571a2.476,2.476,0,0,1,2.6-2.613c6.193-.019,12.387-.008,18.58-.009a1.284,1.284,0,0,1,1.444,1.173,1,1,0,0,1-.783,1.294,3.6,3.6,0,0,1-1.069.1c-1.686,0-3.372-.01-5.059.007-.876.008-.971.1-.984.94-.015.942.008,1.884-.007,2.825-.009.583.213.889.823.863.22-.01.442,0,.663,0h25.377q.414,0,.829-.013a.606.606,0,0,0,.666-.671c.023-1.08.007-2.16.008-3.24,0-.555-.311-.7-.794-.71-.94-.01-1.881.042-2.819-.027A1.154,1.154,0,0,1,239.1,473.686Z" transform="translate(-97.086 -204.822)" fill="#040506"/>
    <path id="Trazado_726195" data-name="Trazado 726195" d="M218.4,354.764q7.3,0,14.607,0c1.974,0,2.923.966,2.924,2.964,0,1.247-.071,2.5.016,3.741a2.786,2.786,0,0,1-3.069,3.119c-7.884-.055-15.769-.025-23.653-.025-1.853,0-3.707,0-5.56,0a2.533,2.533,0,0,1-2.791-2.764q-.014-2.162,0-4.325a2.5,2.5,0,0,1,2.753-2.708Q211.015,354.758,218.4,354.764Z" transform="translate(-97.097 -113.205)" fill="#040506"/>
    <path id="Trazado_726196" data-name="Trazado 726196" d="M168.769,305.632q-5.893,0-11.786,0a2.523,2.523,0,0,1-2.816-2.82c-.012-1.386-.017-2.773,0-4.158a2.532,2.532,0,0,1,2.793-2.776q11.744-.013,23.489,0a2.494,2.494,0,0,1,2.753,2.714q.028,2.162,0,4.325a2.467,2.467,0,0,1-2.733,2.715Q174.621,305.639,168.769,305.632Z" transform="translate(-60.751 -67.38)" fill="#040506"/>
    <path id="Trazado_726197" data-name="Trazado 726197" d="M288.741,423.525q-5.6,0-11.2,0c-2.1,0-3.033-.939-3.035-3.039,0-1.331-.013-2.662,0-3.992a2.5,2.5,0,0,1,2.676-2.72q11.537-.021,23.073,0a2.482,2.482,0,0,1,2.692,2.7q.041,2.162,0,4.325a2.507,2.507,0,0,1-2.751,2.726C296.377,423.535,292.559,423.525,288.741,423.525Z" transform="translate(-154.387 -159.114)" fill="#040506"/>
    <path id="Trazado_726198" data-name="Trazado 726198" d="M289.835,477.82a1.352,1.352,0,0,0,1.6,1.184c.937-.047,1.879.012,2.817-.019.518-.017.741.112.721.689-.042,1.272-.04,2.548,0,3.82.017.542-.193.633-.673.632q-13.8-.018-27.6,0c-.519,0-.655-.146-.641-.651.035-1.273.043-2.548,0-3.82-.02-.582.208-.679.717-.673,2.017.023,4.034,0,6.05.014a1.216,1.216,0,0,0,1.405-1.177h5.595c.37.264.472.852,1.035.88a9.842,9.842,0,0,0,2.556-.054c.442-.094.491-.659.889-.829Z" transform="translate(-147.819 -208.956)" fill="#582b7d"/>
    <path id="Trazado_726199" data-name="Trazado 726199" d="M104.917,482.347a4.9,4.9,0,0,1,.007-9.8,4.9,4.9,0,0,1-.007,9.8Z" transform="translate(-18.63 -204.857)" fill="#040506"/>
    <path id="Trazado_726200" data-name="Trazado 726200" d="M100.025,359.671a4.885,4.885,0,0,1,9.77-.041,4.885,4.885,0,1,1-9.77.041Z" transform="translate(-18.63 -113.216)" fill="#040506"/>
    <path id="Trazado_726201" data-name="Trazado 726201" d="M105,413.805a4.872,4.872,0,1,1-4.972,4.706A4.848,4.848,0,0,1,105,413.805Z" transform="translate(-18.631 -159.145)" fill="#040506"/>
    <path id="Trazado_726202" data-name="Trazado 726202" d="M104.853,305.643a4.878,4.878,0,0,1,.048-9.757,4.879,4.879,0,1,1-.048,9.757Z" transform="translate(-18.63 -67.392)" fill="#040506"/>
    <path id="Trazado_726203" data-name="Trazado 726203" d="M332.588,473.684A1.331,1.331,0,0,1,331,474.866a13.978,13.978,0,0,0-1.488,0,1.2,1.2,0,0,1-1.4-1.175,1.276,1.276,0,0,1,1.44-1.172c.47,0,.941.022,1.409,0A1.4,1.4,0,0,1,332.588,473.684Z" transform="translate(-196.105 -204.821)" fill="#060607"/>
    <path id="Trazado_726204" data-name="Trazado 726204" d="M216.311,483.032c1.383,0,2.767.037,4.148-.016.648-.025.788.191.766.8-.047,1.245-.031,2.494,0,3.741.01.452-.1.621-.588.617q-4.314-.033-8.629,0c-.467,0-.622-.126-.611-.6.029-1.3.034-2.605,0-3.907-.015-.547.215-.642.689-.634C213.489,483.046,214.9,483.032,216.311,483.032Z" transform="translate(-105.284 -212.998)" fill="#6b3b88"/>
    <path id="Trazado_726205" data-name="Trazado 726205" d="M220.775,365.222c2.849,0,5.7.015,8.548-.012.556-.005.773.107.75.716-.049,1.273-.031,2.55-.006,3.824.009.462-.123.619-.606.618q-8.755-.023-17.51,0c-.513,0-.587-.209-.58-.642.02-1.275.034-2.551-.005-3.825-.017-.551.155-.7.7-.692C214.965,365.235,217.87,365.222,220.775,365.222Z" transform="translate(-105.264 -121.333)" fill="#32b6e8"/>
    <path id="Trazado_726206" data-name="Trazado 726206" d="M310.88,370.385c-1.325,0-2.651-.017-3.975.009-.474.009-.7-.082-.684-.627.036-1.327.022-2.656.006-3.983,0-.383.1-.534.511-.532q4.141.023,8.282,0c.432,0,.579.139.572.574-.021,1.327-.027,2.656,0,3.983.011.516-.232.586-.656.581C313.586,370.375,312.233,370.385,310.88,370.385Z" transform="translate(-179.073 -121.366)" fill="#0d9cc0"/>
    <path id="Trazado_726207" data-name="Trazado 726207" d="M210.127,311.527c-2.432,0-4.865-.016-7.3.012-.545.006-.707-.152-.69-.7.038-1.245.024-2.492.006-3.738-.006-.424.055-.654.574-.652q7.462.026,14.925,0c.44,0,.57.152.563.578-.022,1.274-.035,2.549.005,3.821.018.562-.18.688-.706.683C215.047,311.513,212.587,311.527,210.127,311.527Z" transform="translate(-98.087 -75.615)" fill="#47afa2"/>
    <path id="Trazado_726208" data-name="Trazado 726208" d="M167.822,306.564c.773,0,1.546.017,2.318-.007.429-.013.657.066.644.579-.032,1.3-.024,2.6,0,3.9.007.418-.1.584-.553.578q-2.4-.035-4.8,0c-.44.006-.57-.149-.564-.573.02-1.3.028-2.6,0-3.9-.012-.508.211-.6.643-.583C166.276,306.582,167.049,306.564,167.822,306.564Z" transform="translate(-69.079 -75.695)" fill="#21938e"/>
    <path id="Trazado_726209" data-name="Trazado 726209" d="M324.565,429.389c-2.543,0-5.086-.025-7.629.017-.645.011-.78-.187-.757-.787.047-1.245.033-2.493,0-3.739-.01-.446.138-.552.563-.551q7.837.02,15.673,0c.474,0,.618.144.608.612-.027,1.274-.035,2.549,0,3.822.016.537-.184.64-.67.636C329.762,429.378,327.163,429.389,324.565,429.389Z" transform="translate(-186.82 -167.334)" fill="#ffd13e"/>
    <path id="Trazado_726210" data-name="Trazado 726210" d="M284.792,426.426c.087-.657-.361-1.713.179-2.171.459-.39,1.476-.132,2.247-.136.686,0,1.6-.232,2,.116.468.409.127,1.351.152,2.06.027.746-.014,1.5.014,2.242.016.434-.067.649-.574.633-1.132-.036-2.266-.029-3.4,0-.464.011-.647-.138-.627-.613C284.814,427.891,284.792,427.226,284.792,426.426Z" transform="translate(-162.328 -167.109)" fill="#f99400"/>
    <path id="Trazado_726211" data-name="Trazado 726211" d="M113.016,488.255a2.558,2.558,0,1,1,2.581-2.5A2.612,2.612,0,0,1,113.016,488.255Z" transform="translate(-26.782 -213.096)" fill="#6b3b88"/>
    <path id="Trazado_726212" data-name="Trazado 726212" d="M110.5,367.864a2.552,2.552,0,1,1,2.532,2.561A2.612,2.612,0,0,1,110.5,367.864Z" transform="translate(-26.782 -121.404)" fill="#32b6e7"/>
    <path id="Trazado_726213" data-name="Trazado 726213" d="M113.05,424.4a2.518,2.518,0,1,1-.027,5.036,2.518,2.518,0,1,1,.027-5.036Z" transform="translate(-26.791 -167.39)" fill="#ffd13e"/>
    <path id="Trazado_726214" data-name="Trazado 726214" d="M113.014,311.575a2.529,2.529,0,1,1,.074-5.058,2.529,2.529,0,1,1-.074,5.058Z" transform="translate(-26.784 -75.664)" fill="#47aea2"/>
  </g>
</svg>
