<svg xmlns="http://www.w3.org/2000/svg" width="60.503" height="62.333" viewBox="0 0 60.503 62.333">
  <g id="Grupo_959213" data-name="Grupo 959213" transform="translate(-29.01 -9)">
    <path id="Trazado_726156" data-name="Trazado 726156" d="M62.191,76.494a2.31,2.31,0,0,0-.28-.107,4.5,4.5,0,0,1-3.6-4.5,1.636,1.636,0,0,0-.659-1.477,4.434,4.434,0,0,1-1.668-3.567c-.022-1.724-.076-3.449-.058-5.172A6.037,6.037,0,0,0,54.5,57.629c-.879-1.06-1.859-2.036-2.735-3.1a18.329,18.329,0,0,1-4.022-15.3.909.909,0,0,1,1.092-.867c.572.1.818.573.688,1.33a16.685,16.685,0,0,0,4.513,14.65q.988,1.03,1.9,2.136a7.84,7.84,0,0,1,1.586,3.116c.074.3.169.442.512.442,5.042-.011,10.083,0,15.125-.021A.582.582,0,0,0,73.6,59.7a10.532,10.532,0,0,1,3.063-5.087A17.3,17.3,0,0,0,81.444,45.5a16.512,16.512,0,0,0-14-19.266,16.235,16.235,0,0,0-16.427,8.916c-.429.861-.85,1.115-1.411.85-.584-.275-.678-.817-.217-1.671,3.536-6.55,9-10.062,16.457-10.01A17.967,17.967,0,0,1,83.218,39.409a18.3,18.3,0,0,1-4.873,16.085,26.937,26.937,0,0,0-1.94,2.333,5.66,5.66,0,0,0-1.094,3.534c.032,1.765.007,3.53.019,5.295a4.665,4.665,0,0,1-1.995,4.023c-.418.3-.315.661-.314,1.022a4.528,4.528,0,0,1-2.65,4.358,9.643,9.643,0,0,1-1.253.435ZM57.84,64.913h8.6c.223,0,.446-.009.668.008a.827.827,0,0,1,.835.8.858.858,0,0,1-.714.98,2.436,2.436,0,0,1-.6.032H57.84a2.877,2.877,0,0,0,2.772,3.026q5.04.081,10.081,0a2.782,2.782,0,0,0,2.731-2.982c-.017-.009-.034-.027-.052-.027-.607-.007-1.214-.009-1.821-.018-.719-.011-1.121-.336-1.128-.907s.381-.911,1.1-.916c.641-.005,1.282,0,1.925,0V61.894H57.84Zm2.343,6.7a2.637,2.637,0,0,0,2.465,3.03q3,.092,6.01,0a2.567,2.567,0,0,0,2.427-3.03Z" transform="translate(-6.21 -5.161)" fill="#34bc85"/>
    <path id="Trazado_726157" data-name="Trazado 726157" d="M74.526,9a1.537,1.537,0,0,1,.56,1.378c-.023,1.76-.007,3.52-.011,5.28a2.824,2.824,0,0,1-.053.662.76.76,0,0,1-.884.648,1.753,1.753,0,0,1-.826-.66c-.114-.143-.063-.428-.064-.65,0-1.76.012-3.52-.01-5.28A1.528,1.528,0,0,1,73.8,9Z" transform="translate(-14.899)" fill="#34bc85"/>
    <path id="Trazado_726158" data-name="Trazado 726158" d="M68.322,51.9l3.769-4.862c.695-.9,1.382-1.8,2.087-2.688a2.922,2.922,0,1,1,4.635,3.558c-.544.731-1.107,1.449-1.674,2.162-.445.559-.964.652-1.41.28-.423-.354-.438-.855-.025-1.4.464-.614.941-1.219,1.411-1.828.632-.819.654-1.469.066-1.906s-1.161-.263-1.782.538q-3.016,3.891-6.029,7.785c-.712.919-1.172.949-1.942.1-1.24-1.365-2.454-2.755-3.723-4.089a1.607,1.607,0,0,0-1.088-.492,1.052,1.052,0,0,0-.647,1.789q2.822,3.185,5.7,6.32a1.077,1.077,0,0,0,1.771-.147c1.064-1.354,2.112-2.721,3.166-4.082.124-.16.241-.327.377-.476a.924.924,0,0,1,1.255-.155.874.874,0,0,1,.187,1.242c-.381.548-.808,1.065-1.216,1.594-.793,1.026-1.573,2.062-2.385,3.073a2.9,2.9,0,0,1-4.55.144q-2.808-3.075-5.579-6.183a2.926,2.926,0,1,1,4.341-3.914C66.114,49.445,67.181,50.636,68.322,51.9Z" transform="translate(-10.387 -11.506)" fill="#34bc85"/>
    <path id="Trazado_726159" data-name="Trazado 726159" d="M33.018,55.174c-.969,0-1.94.01-2.909,0-.706-.009-1.113-.371-1.1-.937.014-.546.4-.879,1.084-.881q2.909-.012,5.819,0c.661,0,1.069.361,1.073.9s-.4.909-1.059.92C34.958,55.185,33.988,55.173,33.018,55.174Z" transform="translate(0 -14.939)" fill="#34bc85"/>
    <path id="Trazado_726160" data-name="Trazado 726160" d="M112.255,55.174c-.969,0-1.94.008-2.909,0-.7-.008-1.126-.365-1.125-.918s.422-.9,1.13-.9q2.849-.01,5.7,0c.733,0,1.133.318,1.149.878.017.582-.4.936-1.154.943C114.113,55.181,113.184,55.174,112.255,55.174Z" transform="translate(-26.685 -14.94)" fill="#34bc85"/>
    <path id="Trazado_726161" data-name="Trazado 726161" d="M42.888,84.441c-.3-.251-.674-.416-.757-.675a1.248,1.248,0,0,1,.158-.988,13.956,13.956,0,0,1,1.345-1.394q1.413-1.417,2.83-2.832c.507-.5,1.032-.562,1.434-.174.42.405.366.946-.165,1.481-1.326,1.334-2.65,2.669-3.989,3.989A6.456,6.456,0,0,1,42.888,84.441Z" transform="translate(-4.406 -23.287)" fill="#34bc85"/>
    <path id="Trazado_726162" data-name="Trazado 726162" d="M42.8,21.814a4.345,4.345,0,0,1,.8.477q2.1,2.064,4.162,4.16a.927.927,0,0,1,.1,1.395.915.915,0,0,1-1.39-.105c-1.391-1.383-2.769-2.778-4.16-4.162a.882.882,0,0,1-.257-1.093C42.208,22.22,42.527,22.052,42.8,21.814Z" transform="translate(-4.363 -4.317)" fill="#34bc85"/>
    <path id="Trazado_726163" data-name="Trazado 726163" d="M98.842,28.285a3.172,3.172,0,0,1-.756-.636.854.854,0,0,1,.226-1.1q1.481-1.479,2.957-2.963c.428-.43.847-.869,1.288-1.285a.91.91,0,1,1,1.277,1.291q-2.108,2.14-4.246,4.248A3.985,3.985,0,0,1,98.842,28.285Z" transform="translate(-23.231 -4.378)" fill="#34bc85"/>
    <path id="Trazado_726164" data-name="Trazado 726164" d="M104.284,83.452c-.245.284-.415.658-.674.736a1.217,1.217,0,0,1-.985-.173c-.664-.556-1.247-1.208-1.862-1.824-.786-.786-1.574-1.571-2.355-2.362-.5-.51-.554-1.032-.155-1.436s.935-.355,1.435.143c1.361,1.355,2.721,2.711,4.066,4.083A5.149,5.149,0,0,1,104.284,83.452Z" transform="translate(-23.237 -23.287)" fill="#34bc85"/>
  </g>
</svg>
