<svg xmlns="http://www.w3.org/2000/svg" xmlns:xlink="http://www.w3.org/1999/xlink" width="295.832" height="314.333" viewBox="0 0 295.832 314.333">
  <defs>
    <linearGradient id="linear-gradient" x1="0.5" y1="1" x2="0.5" gradientUnits="objectBoundingBox">
      <stop offset="0" stop-color="#131833"/>
      <stop offset="0.299" stop-color="#151b39"/>
      <stop offset="0.715" stop-color="#1b234b"/>
      <stop offset="1" stop-color="#222b5c"/>
    </linearGradient>
    <linearGradient id="linear-gradient-3" x1="0.5" y1="1" x2="0.5" gradientUnits="objectBoundingBox">
      <stop offset="0" stop-color="#00a8c4"/>
      <stop offset="0.336" stop-color="#1eb0c9"/>
      <stop offset="0.766" stop-color="#41bace"/>
      <stop offset="1" stop-color="#4ebed1"/>
    </linearGradient>
    <linearGradient id="linear-gradient-4" x1="0.5" y1="1" x2="0.5" gradientUnits="objectBoundingBox">
      <stop offset="0" stop-color="#283082"/>
      <stop offset="1" stop-color="#39439e"/>
    </linearGradient>
  </defs>
  <g id="Grupo_958617" data-name="Grupo 958617" transform="translate(-38.567 -32.335)">
    <path id="Trazado_722954" data-name="Trazado 722954" d="M290.636,62.032a34.963,34.963,0,0,0,2.519-3.342,16.223,16.223,0,0,0,1.9-3.824,9.735,9.735,0,0,0,.5-3.988,7.059,7.059,0,0,0-1.735-3.9,6.436,6.436,0,0,0-5.563-2.611,11.575,11.575,0,0,0-6.579,2.954q-1.372,1.133-2.371,2.121a17.07,17.07,0,0,0-1.725,1.973q-.728.987-1.433,2.062t-1.429,2.333a27.083,27.083,0,0,1-4.419-2.291,20.419,20.419,0,0,1-3.849-3.2q1.213-1.991,2.3-3.6T271,43.7a31.006,31.006,0,0,1,2.451-2.627q1.293-1.231,2.863-2.527,7.85-6.477,14.782-6.2t12.06,6.488a14.5,14.5,0,0,1,3.194,6.27,17.989,17.989,0,0,1,.258,6.11,21.754,21.754,0,0,1-1.383,5.319q-.982,2.407-1.718,3.783l4.911,5.953a33.622,33.622,0,0,1-4.059,4.008,27.246,27.246,0,0,1-4.445,3.008Zm20.828,26.577a38.686,38.686,0,0,1-4.332-4.452,40.208,40.208,0,0,1-3.6-5.164,38.7,38.7,0,0,1,4.452-4.334,40.27,40.27,0,0,1,5.164-3.6,39.557,39.557,0,0,1,4.332,4.451,39.012,39.012,0,0,1,3.6,5.164,39.564,39.564,0,0,1-4.451,4.333A39.065,39.065,0,0,1,311.463,88.608Z" transform="translate(-63.34 0)" fill="#ffb41f"/>
    <path id="Trazado_722955" data-name="Trazado 722955" d="M142.941,162.624a17.981,17.981,0,0,0,1.625-1.414,8.366,8.366,0,0,0,1.366-1.722,5.009,5.009,0,0,0,.679-1.954,3.629,3.629,0,0,0-.457-2.15,3.312,3.312,0,0,0-2.521-1.908,5.957,5.957,0,0,0-3.628.785q-.812.425-1.421.815a8.728,8.728,0,0,0-1.079.809q-.471.419-.942.885t-.968,1.022a13.985,13.985,0,0,1-1.98-1.625,10.5,10.5,0,0,1-1.6-2.022q.823-.873,1.544-1.569t1.452-1.274a15.91,15.91,0,0,1,1.514-1.061q.782-.482,1.711-.967,4.643-2.423,8.1-1.546a8.307,8.307,0,0,1,5.379,4.553,7.463,7.463,0,0,1,.939,3.5,9.268,9.268,0,0,1-.522,3.1,11.227,11.227,0,0,1-1.264,2.53q-.752,1.107-1.269,1.721l1.838,3.521a17.3,17.3,0,0,1-2.472,1.584,13.973,13.973,0,0,1-2.558,1.04Zm7.649,15.6a19.9,19.9,0,0,1-1.706-2.7,20.675,20.675,0,0,1-1.262-2.984,19.847,19.847,0,0,1,2.7-1.706,20.757,20.757,0,0,1,2.984-1.262,20.348,20.348,0,0,1,1.706,2.7,20.008,20.008,0,0,1,1.262,2.984,20.416,20.416,0,0,1-2.7,1.706A20.119,20.119,0,0,1,150.59,178.227Z" transform="translate(-25.974 -32.008)" fill="#feb12e"/>
    <path id="Trazado_722956" data-name="Trazado 722956" d="M379.2,136.486a25.685,25.685,0,0,0,3.074.075,11.929,11.929,0,0,0,3.1-.5,7.155,7.155,0,0,0,2.6-1.4,5.186,5.186,0,0,0,1.588-2.7,4.729,4.729,0,0,0-.819-4.439,8.5,8.5,0,0,0-4.576-2.666q-1.264-.335-2.282-.509a12.524,12.524,0,0,0-1.916-.186q-.9-.013-1.844.025t-2,.144a19.866,19.866,0,0,1-.521-3.618,14.98,14.98,0,0,1,.265-3.668q1.708-.126,3.137-.165t2.757.056a22.736,22.736,0,0,1,2.617.34q1.288.246,2.733.63,7.224,1.918,10.025,6.175a11.856,11.856,0,0,1,1.282,9.976,10.642,10.642,0,0,1-2.379,4.588,13.2,13.2,0,0,1-3.538,2.766,15.987,15.987,0,0,1-3.768,1.448q-1.858.442-2.993.591l-1.456,5.478a24.711,24.711,0,0,1-4.129-.711,19.954,19.954,0,0,1-3.7-1.368Zm-6.966,23.8a28.357,28.357,0,0,1,.807-4.491,29.521,29.521,0,0,1,1.544-4.359,28.468,28.468,0,0,1,4.491.806,29.685,29.685,0,0,1,4.358,1.544,29.159,29.159,0,0,1-.807,4.491,28.555,28.555,0,0,1-1.544,4.358,29.174,29.174,0,0,1-4.49-.805A28.835,28.835,0,0,1,372.232,160.287Z" transform="translate(-92.74 -23.493)" fill="#e8970d"/>
    <path id="Trazado_722957" data-name="Trazado 722957" d="M415.707,63.214a21.021,21.021,0,0,0,1.978,1.552,9.746,9.746,0,0,0,2.275,1.187,5.849,5.849,0,0,0,2.389.349,4.243,4.243,0,0,0,2.364-1,3.869,3.869,0,0,0,1.633-3.311,6.957,6.957,0,0,0-1.7-3.986q-.665-.838-1.247-1.45a10.234,10.234,0,0,0-1.165-1.059q-.584-.448-1.222-.885t-1.385-.885a16.21,16.21,0,0,1,1.427-2.628,12.255,12.255,0,0,1,1.967-2.275q1.183.752,2.139,1.425t1.781,1.384a18.709,18.709,0,0,1,1.55,1.5q.725.791,1.484,1.749,3.8,4.79,3.555,8.951a9.7,9.7,0,0,1-4.036,7.169,8.711,8.711,0,0,1-3.8,1.846,10.8,10.8,0,0,1-3.673.084,13.1,13.1,0,0,1-3.178-.892q-1.435-.618-2.252-1.076l-3.633,2.881a20.236,20.236,0,0,1-2.36-2.485,16.377,16.377,0,0,1-1.755-2.7ZM399.5,75.417a23.336,23.336,0,0,1,2.724-2.551,24.215,24.215,0,0,1,3.144-2.1,23.2,23.2,0,0,1,2.551,2.724,24.106,24.106,0,0,1,2.1,3.145,23.834,23.834,0,0,1-2.724,2.55,23.338,23.338,0,0,1-3.144,2.1,23.767,23.767,0,0,1-2.551-2.724A23.527,23.527,0,0,1,399.5,75.417Z" transform="translate(-100.319 -4.584)" fill="#ffb41f"/>
    <path id="Trazado_722958" data-name="Trazado 722958" d="M89.309,61.342a17.971,17.971,0,0,0,1.041-1.885,8.4,8.4,0,0,0,.692-2.086,5.01,5.01,0,0,0-.033-2.069,3.629,3.629,0,0,0-1.167-1.862,3.312,3.312,0,0,0-3.023-.927,5.958,5.958,0,0,0-3.138,1.981q-.617.677-1.055,1.253a8.84,8.84,0,0,0-.736,1.13q-.3.556-.581,1.155t-.559,1.292a13.948,13.948,0,0,1-2.417-.848,10.5,10.5,0,0,1-2.194-1.351q.474-1.1.912-2t.927-1.7a15.941,15.941,0,0,1,1.058-1.516q.57-.721,1.276-1.5,3.53-3.869,7.082-4.233a8.309,8.309,0,0,1,6.615,2.432,7.462,7.462,0,0,1,2.082,2.963,9.259,9.259,0,0,1,.574,3.094,11.234,11.234,0,0,1-.319,2.81q-.326,1.3-.6,2.051l2.934,2.677A17.18,17.18,0,0,1,96.9,64.547,13.97,13.97,0,0,1,94.854,66.4Zm12.538,12.032a19.885,19.885,0,0,1-2.53-1.955,20.729,20.729,0,0,1-2.21-2.371,20,20,0,0,1,1.954-2.53,20.72,20.72,0,0,1,2.371-2.209,20.422,20.422,0,0,1,2.53,1.954,20.063,20.063,0,0,1,2.209,2.37,20.419,20.419,0,0,1-1.954,2.53A20.12,20.12,0,0,1,101.847,73.374Z" transform="translate(-10.443 -3.837)" fill="#ffb41f"/>
    <path id="Trazado_722959" data-name="Trazado 722959" d="M176.834,75.474a27.068,27.068,0,0,0,3.007,1.192,12.585,12.585,0,0,0,3.239.633,7.518,7.518,0,0,0,3.075-.443,5.451,5.451,0,0,0,2.552-2.093,4.975,4.975,0,0,0,.805-4.68,8.95,8.95,0,0,0-3.55-4.3q-1.126-.79-2.067-1.331a13.159,13.159,0,0,0-1.825-.881q-.884-.34-1.83-.645t-2.032-.586a20.887,20.887,0,0,1,.8-3.762,15.745,15.745,0,0,1,1.595-3.525q1.733.5,3.158.976t2.7,1.057a23.852,23.852,0,0,1,2.46,1.287q1.183.711,2.47,1.615,6.436,4.52,7.654,9.741T196.687,80.05a11.2,11.2,0,0,1-4.017,3.665,13.9,13.9,0,0,1-4.5,1.446,16.823,16.823,0,0,1-4.247.06q-2-.238-3.171-.5l-3.428,4.88a25.846,25.846,0,0,1-3.818-2.2,20.946,20.946,0,0,1-3.153-2.695ZM161.3,96.444a29.864,29.864,0,0,1,2.43-4.141,31.081,31.081,0,0,1,3.108-3.743,29.935,29.935,0,0,1,4.142,2.428,31.164,31.164,0,0,1,3.742,3.11,30.593,30.593,0,0,1-2.429,4.141,30.064,30.064,0,0,1-3.109,3.742,30.589,30.589,0,0,1-4.141-2.428A30.26,30.26,0,0,1,161.3,96.444Z" transform="translate(-34.114 -6.315)" fill="#e8970d"/>
    <g id="Grupo_958608" data-name="Grupo 958608" transform="translate(38.567 84.347)">
      <path id="Trazado_722960" data-name="Trazado 722960" d="M157.268,456.994c0-3.33-17.418-6.029-38.9-6.029s-38.9,2.7-38.9,6.029,17.417,6.029,38.9,6.029S157.268,460.324,157.268,456.994Z" transform="translate(-49.933 -200.702)" fill="#badc61"/>
      <path id="Trazado_722961" data-name="Trazado 722961" d="M146.819,255s-.431,3.6-.532,6.091c-.765,8.752-11.719.635-12.947-1.085.184-2.113.736-8.318.765-12.38l13.258,1.158Z" transform="translate(-64.909 -144.187)" fill="#d3977f"/>
      <g id="Grupo_958604" data-name="Grupo 958604" transform="translate(40.402 171.294)">
        <path id="Trazado_722962" data-name="Trazado 722962" d="M129.413,345.866c-2.691,4.074-10.1,4.933-14.341,4.612a23.548,23.548,0,0,1-15.316-7.4,11.578,11.578,0,0,1-4.534-1.483c-.924,5.474-2.275,20.795,5.878,42.354.7,6.292,2.1,20.1-2.1,33.035h6.992s12.061-13.809,15.206-46.145c4.37,11.886,13.744,37.447,14.793,47.584,3.5,0,6.832-2.718,6.832-2.718s.277-47.2-8.539-71.3A9.89,9.89,0,0,1,129.413,345.866Z" transform="translate(-94.521 -341.599)" fill="url(#linear-gradient)"/>
        <path id="Trazado_722963" data-name="Trazado 722963" d="M99.674,446.007a41.6,41.6,0,0,1-2.738,6.758c2.563,2.331,8.855,4.894,15.381,4.661,0-1.864-7.691-7.691-7.691-7.691l2.039-3.729Z" transform="translate(-95.192 -370.618)" fill="#4ebed1"/>
        <path id="Trazado_722964" data-name="Trazado 722964" d="M151.9,446.955a20.933,20.933,0,0,1-.162,7.448c3.045,1.654,8.878,2.413,15.16.633-.444-1.811-8.165-4.888-8.165-4.888s-.139-2.26,0-5.911C156.955,445.023,151.9,446.955,151.9,446.955Z" transform="translate(-110.423 -370.127)" fill="#4ebed1"/>
      </g>
      <g id="Grupo_958606" data-name="Grupo 958606" transform="translate(46.211 84.418)">
        <path id="Trazado_722965" data-name="Trazado 722965" d="M132.486,236.3c-.467,1.527-.169,4.3,1.476,4.644-1.468,7.083,3.857,12.253,5.691,13.782a9.283,9.283,0,0,0,2.675,1.509c2.882.747,4.741-.336,5.757-2.848a60.433,60.433,0,0,1,6.622-11.308.339.339,0,0,0,.066-.256,10.044,10.044,0,1,0-18.042-8.663,2.157,2.157,0,0,0-1.636-.176C133.641,233.341,132.912,234.909,132.486,236.3Z" transform="translate(-110.827 -222.785)" fill="#ffae8a"/>
        <g id="Grupo_958605" data-name="Grupo 958605">
          <path id="Trazado_722966" data-name="Trazado 722966" d="M143.706,271.355l-.09-.027Z" transform="translate(-113.976 -235.192)" fill="#3a44a0"/>
          <path id="Trazado_722967" data-name="Trazado 722967" d="M144.315,271.52l-.025-.006Z" transform="translate(-114.163 -235.243)" fill="#3a44a0"/>
          <path id="Trazado_722968" data-name="Trazado 722968" d="M143.065,271.147l-.133-.046Z" transform="translate(-113.785 -235.129)" fill="#3a44a0"/>
          <path id="Trazado_722969" data-name="Trazado 722969" d="M156.1,251.565c-1.127-2.579-2.273-4.224-1.663-7.3.386-1.943,1.186-3.768,1.485-5.742.747-4.926-1.536-11.1-6.842-11.081a1.976,1.976,0,0,0-.226-.078.706.706,0,0,0-.088-.165,14.07,14.07,0,0,0-13.087-5.808,14.256,14.256,0,0,0-7.288,3.17c-1.459,1.217-2.417,2.893-3.882,4.081-1.7,1.382-3.637,1.8-5.719,2.325-4.93,1.247-11.21,2.83-14.388,7.165a9.621,9.621,0,0,0-1.837,4.658c5.313,6.43,13.615,11.88,22.222,9.883v.018a4.588,4.588,0,0,0,.53.58,9.909,9.909,0,0,0,2.548-2.677c1.529-2.386,1.811-6,1.381-9.083a6.505,6.505,0,0,1,1.112-4.875c2.284-2.644,4.468-2.5,7.328-2.176,3,.339,6.008.117,8.39-1.35a5.405,5.405,0,0,0,.742,2.695,5.043,5.043,0,0,0,.929,1.1,9.96,9.96,0,0,1-1.233,3.421.339.339,0,0,1-.066.256,60.433,60.433,0,0,0-6.622,11.308,4.85,4.85,0,0,1-2.191,2.651,4.305,4.305,0,0,1-1.065,2.329c4.863.833,8.639,4.633,10.534,9.281a31.586,31.586,0,0,1,2.009,9.628c5.244-2.264,8.1-7.673,8.816-13.358A20.675,20.675,0,0,0,156.1,251.565Z" transform="translate(-102.566 -221.282)" fill="url(#linear-gradient)"/>
        </g>
      </g>
      <g id="Grupo_958607" data-name="Grupo 958607" transform="translate(0 0)">
        <path id="Trazado_722970" data-name="Trazado 722970" d="M60.476,142.356a47.032,47.032,0,0,0,5.035-2.487,21.771,21.771,0,0,0,4.587-3.435,13.063,13.063,0,0,0,3.007-4.476,9.458,9.458,0,0,0,.274-5.721,8.638,8.638,0,0,0-5.091-6.485q-4.007-1.713-9.665-.427-2.329.53-4.121,1.113a22.911,22.911,0,0,0-3.257,1.324q-1.468.743-2.96,1.607T45.164,125.3a36.34,36.34,0,0,1-3.914-5.41,27.378,27.378,0,0,1-2.683-6.157q2.656-1.655,4.934-2.931t4.5-2.25a41.541,41.541,0,0,1,4.522-1.669q2.292-.7,4.955-1.3,13.312-3.027,21.454,1.48T89.476,122.11a19.449,19.449,0,0,1,.047,9.44,24.169,24.169,0,0,1-3.376,7.477,29.269,29.269,0,0,1-4.866,5.54q-2.629,2.291-4.34,3.5l2.3,10.1a45.226,45.226,0,0,1-7.281,2.356,36.509,36.509,0,0,1-7.14.924Zm8.931,44.406a51.856,51.856,0,0,1-2.507-7.948,54.008,54.008,0,0,1-1.2-8.361,51.777,51.777,0,0,1,7.948-2.507,53.93,53.93,0,0,1,8.361-1.2,53.268,53.268,0,0,1,2.507,7.948,52.509,52.509,0,0,1,1.2,8.361,53.293,53.293,0,0,1-7.947,2.508A52.519,52.519,0,0,1,69.408,186.763Z" transform="translate(-38.567 -104.368)" fill="#feb12e"/>
        <path id="Trazado_722971" data-name="Trazado 722971" d="M143.661,289.573c-1.4-7.789-.007-16.187-3.053-23.657-1.9-4.649-5.673-8.45-10.537-9.281-3.023,3.09-10.758-2.75-11.779-4.179v-.018c-8.8,2.043-17.29-3.706-22.583-10.324-5.2-6.5-8.039-13.575-10-21.556-.072-.292-6.159.051-6.166.322a.66.66,0,0,0-.043.141c-.866,9.189.066,20.436,3.708,28.929a37.84,37.84,0,0,0,14,16.3,77.144,77.144,0,0,1-4.55,12.6c-2.095,4.5-5.966,8.9-7.111,13.735-1.872,7.892,1.89,15.882,9.955,16.824a23.548,23.548,0,0,0,15.316,7.4c4.242.321,11.65-.538,14.341-4.612a10.9,10.9,0,0,0,7.634-3.681,18.4,18.4,0,0,0,1.807-2.231,8.063,8.063,0,0,0,6.979.185c2.149-1.033,2.55-3.316,2.828-5.482A36.721,36.721,0,0,0,143.661,289.573Z" transform="translate(-49.86 -136.631)" fill="url(#linear-gradient-3)"/>
        <path id="Trazado_722972" data-name="Trazado 722972" d="M85.664,211.5a15.778,15.778,0,0,1-.653,4.518,8.933,8.933,0,0,1-6.111.375c-1.371-2.173-3.3-6.032-1.44-8.013a3.323,3.323,0,0,1,1.433-2.889,1.733,1.733,0,0,1,.935-1.254,1.336,1.336,0,0,1,1.609.333,5.412,5.412,0,0,1,2.517,2.335,8.8,8.8,0,0,1,1.682,4.008C85.648,211.105,85.66,211.3,85.664,211.5Z" transform="translate(-49.164 -132.087)" fill="#ffae8a"/>
        <path id="Trazado_722973" data-name="Trazado 722973" d="M155.856,272.391a15.793,15.793,0,0,1,.808,4.493,8.936,8.936,0,0,1-5.68,2.286c-1.987-1.628-5.035-4.682-3.9-7.148a3.324,3.324,0,0,1,.447-3.194,1.732,1.732,0,0,1,.491-1.485,1.337,1.337,0,0,1,1.632-.192,5.416,5.416,0,0,1,3.126,1.42,8.8,8.8,0,0,1,2.862,3.272C155.718,272.026,155.79,272.207,155.856,272.391Z" transform="translate(-68.661 -149.559)" fill="#ffae8a"/>
      </g>
    </g>
    <g id="Grupo_958612" data-name="Grupo 958612" transform="translate(146.217 90.514)">
      <path id="Trazado_722974" data-name="Trazado 722974" d="M267.707,375.526c0-3.33-17.418-6.029-38.9-6.029s-38.9,2.7-38.9,6.029,17.417,6.029,38.9,6.029S267.707,378.856,267.707,375.526Z" transform="translate(-188.279 -184.226)" fill="#badc61"/>
      <g id="Grupo_958609" data-name="Grupo 958609" transform="translate(13.255 107.786)">
        <path id="Trazado_722975" data-name="Trazado 722975" d="M249.882,262.413c1.934,12.589,4.282,27.354,4.327,44.269.025,9.58-1.321,27.267-3.442,31.462h-6.548s-2.4-38.807-11.585-57.991h-1.943s-9.234,40.254-16.985,57.991h-6.548s1.766-49.422,4.912-75.959C217.781,264.834,245.715,265.4,249.882,262.413Z" transform="translate(-206.331 -262.185)" fill="url(#linear-gradient-4)"/>
        <path id="Trazado_722976" data-name="Trazado 722976" d="M264.686,367.383s4.932,6.1,9.533,8.2c-3.09,1.632-11.092.66-16.5-2.137-1.212-2.563.42-6.059.42-6.059Z" transform="translate(-220.259 -291.424)" fill="#131833"/>
        <path id="Trazado_722977" data-name="Trazado 722977" d="M213.428,367.383s4.932,6.1,9.533,8.2c-3.09,1.632-11.093.66-16.5-2.137-1.212-2.563.419-6.059.419-6.059Z" transform="translate(-206.012 -291.424)" fill="#131833"/>
      </g>
      <g id="Grupo_958610" data-name="Grupo 958610" transform="translate(23.698 0)">
        <path id="Trazado_722978" data-name="Trazado 722978" d="M241.386,161.992s-.116,3.618,0,6.114c0,8.785-11.619,1.653-12.993.046,0-2.121.01-8.351-.316-12.4h13.308Z" transform="translate(-222.588 -124.817)" fill="#d3977f"/>
        <path id="Trazado_722979" data-name="Trazado 722979" d="M220.636,144.263c.287,1.571,1.823,3.895,3.444,3.448,1.949,6.966,9.052,9.114,11.384,9.63a9.291,9.291,0,0,0,3.069.111c2.9-.66,4.058-2.475,3.807-5.173a60.475,60.475,0,0,1,.69-13.086.337.337,0,0,0-.058-.258,10.044,10.044,0,1,0-20.005.588,2.16,2.16,0,0,0-1.534.595C220.3,141.1,220.374,142.83,220.636,144.263Z" transform="translate(-220.474 -117.198)" fill="#ffae8a"/>
        <path id="Trazado_722980" data-name="Trazado 722980" d="M251.511,115.516c-2.5-3.046-5.113-3.175-7.223-1.659-2.8,2.01-3.758,6.73-6.117,4.981a16.486,16.486,0,0,0-9.714-2.482,7.283,7.283,0,0,0-5.264,2.656c-2.416,3.015-2.077,6.771-.59,10.027a1.08,1.08,0,0,1-.56.461c-1.351.612-.8,3.949,1.152,5.732a2.286,2.286,0,0,1,2.479,1.259c.612.874.905-1.486.845-3.846.552-.786,1.864-1.486,4.485,0s7.865,4.457,15.905.786a18,18,0,0,0,4.6-3.529,7.981,7.981,0,0,0,6.007-5.522C258.789,120.026,255.79,115.589,251.511,115.516Z" transform="translate(-220.703 -112.909)" fill="url(#linear-gradient-4)"/>
      </g>
      <g id="Grupo_958611" data-name="Grupo 958611" transform="translate(0 19.18)">
        <path id="Trazado_722981" data-name="Trazado 722981" d="M263.3,181.909a.647.647,0,0,0-.154-.119c-1.692-.825-3-1.405-4.831-.951a.628.628,0,0,0-.692.482,64.046,64.046,0,0,1-5.293,13.417c-3.8-10.718-10.047-21.486-22.184-22.255.881,3.377-.58,15.78-1.971,19.7-.833-4.538-10.7-18.912-11.012-19.36a.023.023,0,0,1-.007-.014c-6.761,1.328-11.634,6.641-16.116,11.619-5.1,5.663-12.389,12.718-13.305,20.688-.8,7.041,4.2,13.927,8.921,18.639a40.009,40.009,0,0,0,9.208,6.831,67.589,67.589,0,0,1-4.594,15.059.744.744,0,0,0,.294.937.568.568,0,0,0,.182.188c9.8,7.2,20.911,1.315,29.386-5.223a22.137,22.137,0,0,0,17.178,7.474.653.653,0,0,0,.51-.245.561.561,0,0,0,.273-.559q-.965-13.1-2.5-26.149c.077.014.154.028.224.035a11.525,11.525,0,0,0,10.369-4.7c3.216-4.348,5.278-14.3,6.46-34.9A.588.588,0,0,0,263.3,181.909Zm-57.736,33.482c-2.153-3.126-3.677-6.614-1.705-10.229a20.479,20.479,0,0,1,1.3-2.056,67.88,67.88,0,0,1,1.783,14.1C206.464,216.622,206,216.02,205.568,215.392Z" transform="translate(-187.654 -148.647)" fill="url(#linear-gradient)"/>
        <path id="Trazado_722982" data-name="Trazado 722982" d="M239.54,192.18c-.833-4.538-10.7-18.912-11.012-19.36,1.441,1.629,12.983,8.7,12.983-.063-.007-.091-.007-.182-.014-.273h.014C242.392,175.861,240.932,188.264,239.54,192.18Z" transform="translate(-199.015 -148.647)" fill="#4ebed1"/>
        <path id="Trazado_722983" data-name="Trazado 722983" d="M292,177.3a15.814,15.814,0,0,1-1.768,4.209,8.937,8.937,0,0,1-6.01-1.174c-.781-2.448-1.675-6.667.622-8.117a3.322,3.322,0,0,1,2.113-2.435,1.734,1.734,0,0,1,1.22-.978,1.337,1.337,0,0,1,1.473.727,5.411,5.411,0,0,1,1.849,2.893,8.794,8.794,0,0,1,.62,4.3C292.086,176.915,292.049,177.107,292,177.3Z" transform="translate(-214.261 -147.617)" fill="#ffae8a"/>
        <path id="Trazado_722984" data-name="Trazado 722984" d="M238.1,192.3c-3.734-4.433-14.64-13.466-14.745-15.955a17.013,17.013,0,0,1,3.727-3.418.023.023,0,0,0,.006.014C227.4,173.391,237.271,187.765,238.1,192.3Z" transform="translate(-197.578 -148.771)" fill="#1e274f"/>
        <path id="Trazado_722985" data-name="Trazado 722985" d="M243.779,192.18c1.391-3.916,2.852-16.318,1.971-19.7a19.907,19.907,0,0,1,4.265,3.74C249.9,178.713,247.506,187.747,243.779,192.18Z" transform="translate(-203.254 -148.647)" fill="#1e274f"/>
        <path id="Trazado_722986" data-name="Trazado 722986" d="M239.693,194.517a72.881,72.881,0,0,0,8.135,3.074,33.743,33.743,0,0,0,8.735,1.565,20.237,20.237,0,0,0,8.245-1.324,14.658,14.658,0,0,0,6.768-5.733q4.254-6.267,1.964-12.616t-9.726-11.4q-3.06-2.077-5.614-3.492a35.41,35.41,0,0,0-4.941-2.29q-2.391-.876-4.946-1.655t-5.486-1.488a56.283,56.283,0,0,1,1.992-10.148,42.373,42.373,0,0,1,4.137-9.543q4.679,1.26,8.53,2.491t7.306,2.724a64.279,64.279,0,0,1,6.668,3.355q3.21,1.861,6.708,4.236,17.492,11.876,20.99,25.858t-5.905,27.829a30.11,30.11,0,0,1-10.64,10.026,37.421,37.421,0,0,1-12.032,4.076,45.336,45.336,0,0,1-11.414.342q-5.371-.557-8.542-1.22l-9.006,13.264a69.777,69.777,0,0,1-10.359-5.756,56.4,56.4,0,0,1-8.59-7.109Zm-40.85,57.025a80.342,80.342,0,0,1,6.351-11.234,83.621,83.621,0,0,1,8.2-10.193,80.24,80.24,0,0,1,11.235,6.35,83.483,83.483,0,0,1,10.192,8.2,82.4,82.4,0,0,1-6.35,11.235,81.233,81.233,0,0,1-8.2,10.193,82.59,82.59,0,0,1-11.234-6.35A81.351,81.351,0,0,1,198.843,251.542Z" transform="translate(-190.764 -139.472)" fill="#feb12e"/>
        <path id="Trazado_722987" data-name="Trazado 722987" d="M230.274,258.567a15.779,15.779,0,0,1-4.188-1.815,8.935,8.935,0,0,1,1.241-6c2.456-.753,6.686-1.6,8.11.713a3.322,3.322,0,0,1,2.412,2.14,1.732,1.732,0,0,1,.965,1.23,1.337,1.337,0,0,1-.743,1.465,5.409,5.409,0,0,1-2.914,1.817,8.786,8.786,0,0,1-4.309.572C230.656,258.653,230.464,258.614,230.274,258.567Z" transform="translate(-198.311 -170.182)" fill="#ffae8a"/>
      </g>
    </g>
    <g id="Grupo_958616" data-name="Grupo 958616" transform="translate(250.076 152.431)">
      <path id="Trazado_722988" data-name="Trazado 722988" d="M418.323,437.828c0-3.329-17.417-6.029-38.9-6.029s-38.9,2.7-38.9,6.029,17.418,6.029,38.9,6.029S418.323,441.158,418.323,437.828Z" transform="translate(-334 -263.459)" fill="#badc61"/>
      <g id="Grupo_958613" data-name="Grupo 958613" transform="translate(14.491 100.739)">
        <path id="Trazado_722989" data-name="Trazado 722989" d="M374.939,338.594c-1,5.758-6.518,50.069-10.219,63.872h6.671s16.547-38.363,20.042-52.579C394,367.6,402.97,394.452,403.669,402.467a26.6,26.6,0,0,0,7.574,0s1.628-41.321-1.012-63.43C395.7,335.735,391.062,343.337,374.939,338.594Z" transform="translate(-355.219 -338.176)" fill="url(#linear-gradient-3)"/>
        <path id="Trazado_722990" data-name="Trazado 722990" d="M421.692,427.447a31.006,31.006,0,0,1-3.67-.233,10.152,10.152,0,0,0-1.165,8.39c1.515,4.545,2.8,5.826,2.8,5.826a19.585,19.585,0,0,0,5.477-5.244c2.33-3.379,1.652-5.826.477-8.972A31.011,31.011,0,0,1,421.692,427.447Z" transform="translate(-369.581 -362.924)" fill="#39439e"/>
        <path id="Trazado_722991" data-name="Trazado 722991" d="M361.095,427.214s-4.932,6.1-9.533,8.2c3.09,1.632,11.093.66,16.5-2.137,1.212-2.563-.419-6.059-.419-6.059Z" transform="translate(-351.562 -362.924)" fill="#39439e"/>
      </g>
      <g id="Grupo_958614" data-name="Grupo 958614" transform="translate(24.87)">
        <path id="Trazado_722992" data-name="Trazado 722992" d="M394.395,241.559s.116,3.619,0,6.114c0,8.786,11.619,1.653,12.993.046,0-2.121-.01-8.351.316-12.4H394.395Z" transform="translate(-373.846 -208.849)" fill="#d3977f"/>
        <path id="Trazado_722993" data-name="Trazado 722993" d="M411.677,229.613a2.158,2.158,0,0,0-.988-1.316,10.042,10.042,0,1,0-16.673-11.071.34.34,0,0,0-.186.189,60.5,60.5,0,0,1-6.329,11.474c-1.639,2.157-1.618,4.308.5,6.4a9.292,9.292,0,0,0,2.665,1.527c2.253.794,9.418,2.724,14.753-2.16,1.14,1.235,3.672.074,4.745-1.108C411.14,232.473,412.114,231.044,411.677,229.613Z" transform="translate(-371.605 -202.371)" fill="#ffae8a"/>
        <path id="Trazado_722994" data-name="Trazado 722994" d="M423.583,238.711c-1.121-4.7-4.581-7.79-8.259-10.617-1.816-1.395-3.005-2.112-3.243-4.87-.126-1.461.454-2.948.42-4.419a8.832,8.832,0,0,0-1.513-4.781,7.276,7.276,0,0,0-5.9-3.412,11.022,11.022,0,0,0-11.594-11.945c-3.347.1-6.158,1.492-7.556,4.626a16.533,16.533,0,0,0-1.1,4.583c-.307,2.244-.516,3.217-2.991,3.589-.98.147-2.059-.012-3.062.1-3.8.442-8.234,2.079-10.762,5.09-2,2.384-2.364,6.655-1.9,9.634.512,3.278,3.465,6.29,6.521,7.478,1.875.729,1.047-.2.991,1.265s-.317,2.433.328,3.892a8.039,8.039,0,0,0,4.912,4.62c2.223-2.4,4.816-4.4,7.676-5.095a8.026,8.026,0,0,1-.061-.97c.057-1.222.058-2.711.045-3.915-.63-.161-1.155-.328-1.537-.462a9.292,9.292,0,0,1-2.665-1.527c-2.116-2.1-2.137-4.246-.5-6.4a60.437,60.437,0,0,0,6.184-11.153c.766,4.007,6.169,6.184,10.941,6.5a8.218,8.218,0,0,0-2.38,7.324,6.482,6.482,0,0,0,2.264,4.16,3.717,3.717,0,0,0-.544,4.334c-4.3,3.438-4.2,11.809-.049,15.521,6.322,5.646,17.212,5.545,22.66-1.2A13.952,13.952,0,0,0,423.583,238.711Z" transform="translate(-365.936 -198.66)" fill="url(#linear-gradient-3)"/>
      </g>
      <g id="Grupo_958615" data-name="Grupo 958615" transform="translate(0 30.963)">
        <path id="Trazado_722995" data-name="Trazado 722995" d="M390.994,267.179c-3.028-2.7-3.889-7.877-2.476-11.819-3.644,1.9-8.65,3.262-9.224-1.589a10.15,10.15,0,0,0-1.045.315c-.1.034-.189.079-.284.117-.248.1-.5.194-.739.308-.1.045-.191.1-.287.149-.24.121-.479.242-.714.378-.083.048-.163.1-.245.153-.246.15-.492.3-.732.468-.065.044-.128.094-.192.139-.256.182-.511.368-.76.565-.045.036-.089.074-.134.11-.267.215-.531.436-.791.667l-.079.072c-.276.248-.549.5-.815.767l-.028.029q-.423.418-.83.856h0a45,45,0,0,0-5.157,6.982c-2.391,3.9-4.758,8.1-9.516,9.377-4.812,1.292-9.454-2.817-12.475-6.66a.555.555,0,0,0-.5-.238.583.583,0,0,0-.633.185,14.106,14.106,0,0,0-2.175,3.194l0,.012c-.141.191-1.43.654-1.311.945,6.16,15.127,19.178,17.565,28.725,11.465,1.687,10.282-4.919,17.753-5.618,29.248,21,8.346,24.636-2.02,41.836,2.563.553-6.117-.583-13.9-1.585-20.717a26.6,26.6,0,0,0,3.693-11.678,40.9,40.9,0,0,0-1.333-12.7A16.812,16.812,0,0,1,390.994,267.179Z" transform="translate(-333.814 -244.941)" fill="url(#linear-gradient-4)"/>
        <path id="Trazado_722996" data-name="Trazado 722996" d="M333.836,272.627a15.782,15.782,0,0,0,3.7,2.68,8.933,8.933,0,0,0,4.527-4.123c-.6-2.5-2.029-6.569-4.745-6.616a3.323,3.323,0,0,0-3.07-.985,1.734,1.734,0,0,0-1.551-.2,1.336,1.336,0,0,0-.882,1.386,5.407,5.407,0,0,0-.079,3.433,8.79,8.79,0,0,0,1.7,4C333.567,272.343,333.7,272.487,333.836,272.627Z" transform="translate(-331.492 -247.584)" fill="#ffae8a"/>
        <path id="Trazado_722997" data-name="Trazado 722997" d="M349.78,280.17a49.071,49.071,0,0,0,5.611-1.746,22.755,22.755,0,0,0,5.3-2.8,13.666,13.666,0,0,0,3.841-4.134,9.9,9.9,0,0,0,1.221-5.868,9.038,9.038,0,0,0-4.2-7.536q-3.861-2.428-9.92-2.025-2.493.166-4.442.475a23.98,23.98,0,0,0-3.584.835q-1.638.529-3.323,1.176t-3.54,1.488a37.931,37.931,0,0,1-3.159-6.233,28.636,28.636,0,0,1-1.765-6.8q3.016-1.275,5.58-2.221t5.025-1.587a43.33,43.33,0,0,1,4.947-.986q2.482-.344,5.334-.534,14.255-.948,21.933,5.044t8.429,17.278a20.338,20.338,0,0,1-1.5,9.765,25.284,25.284,0,0,1-4.714,7.175,30.6,30.6,0,0,1-5.937,4.929q-3.092,1.938-5.057,2.9l.719,10.811a47.258,47.258,0,0,1-7.912,1.243,38.18,38.18,0,0,1-7.532-.215Zm1.957,47.361a54.331,54.331,0,0,1-1.289-8.625,56.51,56.51,0,0,1,.127-8.839,54.25,54.25,0,0,1,8.626-1.29,56.417,56.417,0,0,1,8.838.128,55.708,55.708,0,0,1,1.29,8.625,54.8,54.8,0,0,1-.128,8.839,55.852,55.852,0,0,1-8.624,1.29A54.976,54.976,0,0,1,351.738,327.531Z" transform="translate(-331.584 -241.542)" fill="#feb12e"/>
        <path id="Trazado_722998" data-name="Trazado 722998" d="M380.5,312.812a15.8,15.8,0,0,0,4.532-.552,8.94,8.94,0,0,0,.51-6.1c-2.142-1.419-5.958-3.431-7.979-1.616a3.322,3.322,0,0,0-2.919,1.368,1.732,1.732,0,0,0-1.274.907,1.337,1.337,0,0,0,.3,1.616A5.409,5.409,0,0,0,375.947,311a8.791,8.791,0,0,0,3.97,1.77C380.111,312.787,380.306,312.8,380.5,312.812Z" transform="translate(-343.09 -258.852)" fill="#ffae8a"/>
      </g>
    </g>
  </g>
</svg>
