<svg xmlns="http://www.w3.org/2000/svg" xmlns:xlink="http://www.w3.org/1999/xlink" width="457" height="357.093" viewBox="0 0 457 357.093">
  <defs>
    <filter id="Trazado_723017" x="15.812" y="222.854" width="89.376" height="56" filterUnits="userSpaceOnUse">
      <feOffset dx="3" dy="3" input="SourceAlpha"/>
      <feGaussianBlur stdDeviation="3" result="blur"/>
      <feFlood flood-opacity="0.161"/>
      <feComposite operator="in" in2="blur"/>
      <feComposite in="SourceGraphic"/>
    </filter>
    <filter id="Rectángulo_340132" x="0" y="0" width="114" height="42" filterUnits="userSpaceOnUse">
      <feOffset dy="3" input="SourceAlpha"/>
      <feGaussianBlur stdDeviation="3" result="blur-2"/>
      <feFlood flood-opacity="0.161"/>
      <feComposite operator="in" in2="blur-2"/>
      <feComposite in="SourceGraphic"/>
    </filter>
    <filter id="Rectángulo_340133" x="0" y="46" width="114" height="42" filterUnits="userSpaceOnUse">
      <feOffset dy="3" input="SourceAlpha"/>
      <feGaussianBlur stdDeviation="3" result="blur-3"/>
      <feFlood flood-opacity="0.161"/>
      <feComposite operator="in" in2="blur-3"/>
      <feComposite in="SourceGraphic"/>
    </filter>
    <filter id="Rectángulo_340134" x="11" y="96" width="92" height="53" filterUnits="userSpaceOnUse">
      <feOffset dy="3" input="SourceAlpha"/>
      <feGaussianBlur stdDeviation="3" result="blur-4"/>
      <feFlood flood-opacity="0.161"/>
      <feComposite operator="in" in2="blur-4"/>
      <feComposite in="SourceGraphic"/>
    </filter>
    <filter id="Rectángulo_340137" x="271" y="284" width="92" height="53" filterUnits="userSpaceOnUse">
      <feOffset dy="3" input="SourceAlpha"/>
      <feGaussianBlur stdDeviation="3" result="blur-5"/>
      <feFlood flood-opacity="0.161"/>
      <feComposite operator="in" in2="blur-5"/>
      <feComposite in="SourceGraphic"/>
    </filter>
    <filter id="Rectángulo_340138" x="365" y="284" width="92" height="53" filterUnits="userSpaceOnUse">
      <feOffset dy="3" input="SourceAlpha"/>
      <feGaussianBlur stdDeviation="3" result="blur-6"/>
      <feFlood flood-opacity="0.161"/>
      <feComposite operator="in" in2="blur-6"/>
      <feComposite in="SourceGraphic"/>
    </filter>
    <filter id="Rectángulo_340136" x="12" y="286" width="92" height="53" filterUnits="userSpaceOnUse">
      <feOffset dy="3" input="SourceAlpha"/>
      <feGaussianBlur stdDeviation="3" result="blur-7"/>
      <feFlood flood-opacity="0.161"/>
      <feComposite operator="in" in2="blur-7"/>
      <feComposite in="SourceGraphic"/>
    </filter>
    <filter id="Trazado_723016" x="112" y="262.273" width="150.999" height="94.82" filterUnits="userSpaceOnUse">
      <feOffset dy="3" input="SourceAlpha"/>
      <feGaussianBlur stdDeviation="3" result="blur-8"/>
      <feFlood flood-opacity="0.161"/>
      <feComposite operator="in" in2="blur-8"/>
      <feComposite in="SourceGraphic"/>
    </filter>
    <filter id="Rectángulo_340135" x="11" y="156" width="92" height="53" filterUnits="userSpaceOnUse">
      <feOffset dy="3" input="SourceAlpha"/>
      <feGaussianBlur stdDeviation="3" result="blur-9"/>
      <feFlood flood-opacity="0.161"/>
      <feComposite operator="in" in2="blur-9"/>
      <feComposite in="SourceGraphic"/>
    </filter>
  </defs>
  <g id="Grupo_958621" data-name="Grupo 958621" transform="translate(-331 -4697)">
    <g transform="matrix(1, 0, 0, 1, 331, 4697)" filter="url(#Trazado_723017)">
      <path id="Trazado_723017-2" data-name="Trazado 723017" d="M5266-7638h70l-12,37h-46Z" transform="translate(-5243.5 7867.35)" fill="#badc61" stroke="#707070" stroke-width="1"/>
    </g>
    <g transform="matrix(1, 0, 0, 1, 331, 4697)" filter="url(#Rectángulo_340132)">
      <g id="Rectángulo_340132-2" data-name="Rectángulo 340132" transform="translate(9 6)" fill="#e2eacb" stroke="#707070" stroke-width="1">
        <rect width="96" height="24" stroke="none"/>
        <rect x="0.5" y="0.5" width="95" height="23" fill="none"/>
      </g>
    </g>
    <g transform="matrix(1, 0, 0, 1, 331, 4697)" filter="url(#Rectángulo_340133)">
      <g id="Rectángulo_340133-2" data-name="Rectángulo 340133" transform="translate(9 52)" fill="#feb12e" stroke="#707070" stroke-width="1">
        <rect width="96" height="24" stroke="none"/>
        <rect x="0.5" y="0.5" width="95" height="23" fill="none"/>
      </g>
    </g>
    <g transform="matrix(1, 0, 0, 1, 331, 4697)" filter="url(#Rectángulo_340134)">
      <g id="Rectángulo_340134-2" data-name="Rectángulo 340134" transform="translate(20 102)" fill="#feb12e" stroke="#707070" stroke-width="1">
        <rect width="74" height="35" stroke="none"/>
        <rect x="0.5" y="0.5" width="73" height="34" fill="none"/>
      </g>
    </g>
    <path id="Icon_awesome-long-arrow-alt-down" data-name="Icon awesome-long-arrow-alt-down" d="M6.62,13.464V2.679a.429.429,0,0,0-.429-.429h-2a.429.429,0,0,0-.429.429V13.464H2.117a.857.857,0,0,0-.606,1.463L4.585,18A.857.857,0,0,0,5.8,18l3.074-3.074a.857.857,0,0,0-.606-1.463H6.62Z" transform="translate(383.309 4898.249)"/>
    <path id="Icon_awesome-long-arrow-alt-down-2" data-name="Icon awesome-long-arrow-alt-down" d="M6.62,13.464V2.679a.429.429,0,0,0-.429-.429h-2a.429.429,0,0,0-.429.429V13.464H2.117a.857.857,0,0,0-.606,1.463L4.585,18A.857.857,0,0,0,5.8,18l3.074-3.074a.857.857,0,0,0-.606-1.463H6.62Z" transform="translate(383.309 4964.603)"/>
    <path id="Icon_awesome-long-arrow-alt-down-3" data-name="Icon awesome-long-arrow-alt-down" d="M6.62,13.464V2.679a.429.429,0,0,0-.429-.429h-2a.429.429,0,0,0-.429.429V13.464H2.117a.857.857,0,0,0-.606,1.463L4.585,18A.857.857,0,0,0,5.8,18l3.074-3.074a.857.857,0,0,0-.606-1.463H6.62Z" transform="translate(383.309 4837.249)"/>
    <path id="Icon_awesome-long-arrow-alt-down-4" data-name="Icon awesome-long-arrow-alt-down" d="M6.62,13.464V2.679a.429.429,0,0,0-.429-.429h-2a.429.429,0,0,0-.429.429V13.464H2.117a.857.857,0,0,0-.606,1.463L4.585,18A.857.857,0,0,0,5.8,18l3.074-3.074a.857.857,0,0,0-.606-1.463H6.62Z" transform="translate(383.309 4777.249)"/>
    <path id="Icon_awesome-long-arrow-alt-down-5" data-name="Icon awesome-long-arrow-alt-down" d="M6.62,13.464V2.679a.429.429,0,0,0-.429-.429h-2a.429.429,0,0,0-.429.429V13.464H2.117a.857.857,0,0,0-.606,1.463L4.585,18A.857.857,0,0,0,5.8,18l3.074-3.074a.857.857,0,0,0-.606-1.463H6.62Z" transform="translate(383.309 4725.249)"/>
    <path id="Trazado_723018" data-name="Trazado 723018" d="M5219-6819.5h128.5V-6692H5219" transform="translate(-4829 11696)" fill="none" stroke="#707070" stroke-width="1"/>
    <path id="Trazado_723019" data-name="Trazado 723019" d="M5354-6692.315h226" transform="translate(-4829 11696)" fill="none" stroke="#707070" stroke-width="1"/>
    <g transform="matrix(1, 0, 0, 1, 331, 4697)" filter="url(#Rectángulo_340137)">
      <g id="Rectángulo_340137-2" data-name="Rectángulo 340137" transform="translate(280 290)" fill="#feb12e" stroke="#707070" stroke-width="1">
        <rect width="74" height="35" stroke="none"/>
        <rect x="0.5" y="0.5" width="73" height="34" fill="none"/>
      </g>
    </g>
    <g transform="matrix(1, 0, 0, 1, 331, 4697)" filter="url(#Rectángulo_340138)">
      <g id="Rectángulo_340138-2" data-name="Rectángulo 340138" transform="translate(374 290)" fill="#feb12e" stroke="#707070" stroke-width="1">
        <rect width="74" height="35" stroke="none"/>
        <rect x="0.5" y="0.5" width="73" height="34" fill="none"/>
      </g>
    </g>
    <g transform="matrix(1, 0, 0, 1, 331, 4697)" filter="url(#Rectángulo_340136)">
      <g id="Rectángulo_340136-2" data-name="Rectángulo 340136" transform="translate(21 292)" fill="#feb12e" stroke="#707070" stroke-width="1">
        <rect width="74" height="35" stroke="none"/>
        <rect x="0.5" y="0.5" width="73" height="34" fill="none"/>
      </g>
    </g>
    <g transform="matrix(1, 0, 0, 1, 331, 4697)" filter="url(#Trazado_723016)">
      <path id="Trazado_723016-2" data-name="Trazado 723016" d="M5451.5-7649l-65.5,38.4,65.5,37.268L5517-7610.6Z" transform="translate(-5264 7917.85)" fill="#afafaf" stroke="#707070" stroke-width="1"/>
    </g>
    <g transform="matrix(1, 0, 0, 1, 331, 4697)" filter="url(#Rectángulo_340135)">
      <g id="Rectángulo_340135-2" data-name="Rectángulo 340135" transform="translate(20 162)" fill="#feb12e" stroke="#707070" stroke-width="1">
        <rect width="74" height="35" stroke="none"/>
        <rect x="0.5" y="0.5" width="73" height="34" fill="none"/>
      </g>
    </g>
  </g>
</svg>
