<svg xmlns="http://www.w3.org/2000/svg" width="85" height="85" viewBox="0 0 85 85">
  <g id="Grupo_959281" data-name="Grupo 959281" transform="translate(-409 -2938)">
    <circle id="Elipse_6692" data-name="Elipse 6692" cx="42.5" cy="42.5" r="42.5" transform="translate(409 2938)" fill="#badc61"/>
    <g id="molinillo" transform="translate(406.639 2934.01)">
      <g id="Grupo_958661" data-name="Grupo 958661" transform="translate(12.36 5)">
        <g id="Grupo_958636" data-name="Grupo 958636" transform="translate(26.254 29.059)">
          <g id="Grupo_958634" data-name="Grupo 958634" transform="translate(0.652 0.652)">
            <path id="Trazado_723026" data-name="Trazado 723026" d="M32.99,27.78h5.6V80.889h-5.6Z" transform="translate(-32.99 -27.78)" fill="#363a3d"/>
          </g>
          <g id="Grupo_958635" data-name="Grupo 958635">
            <path id="Trazado_723027" data-name="Trazado 723027" d="M38.737,81.693h-5.6a.646.646,0,0,1-.652-.652V27.932a.646.646,0,0,1,.652-.652h5.6a.646.646,0,0,1,.652.652V81.041A.654.654,0,0,1,38.737,81.693Zm-4.943-1.3h4.291v-51.8H33.794Z" transform="translate(-32.49 -27.28)"/>
          </g>
        </g>
        <g id="Grupo_958660" data-name="Grupo 958660">
          <g id="Grupo_958657" data-name="Grupo 958657">
            <g id="Grupo_958641" data-name="Grupo 958641" transform="translate(17.503)">
              <g id="Grupo_958637" data-name="Grupo 958637" transform="translate(0.652 0.652)">
                <path id="Trazado_723028" data-name="Trazado 723028" d="M66.881,5.5l-23.1.013-17.5,17.5L37.823,34.559Z" transform="translate(-26.28 -5.5)" fill="#978adc"/>
              </g>
              <g id="Grupo_958638" data-name="Grupo 958638">
                <path id="Trazado_723029" data-name="Trazado 723029" d="M37.975,35.363a.612.612,0,0,1-.456-.2L25.976,23.625a.646.646,0,0,1,0-.926l17.49-17.49a.664.664,0,0,1,.456-.2L67.033,5a.65.65,0,0,1,.6.4.641.641,0,0,1-.143.7L38.444,35.167A.662.662,0,0,1,37.975,35.363ZM27.358,23.168,37.975,33.785,65.455,6.3l-21.246.013Z" transform="translate(-25.78 -5)"/>
              </g>
              <g id="Grupo_958639" data-name="Grupo 958639" transform="translate(0.652 0.665)">
                <path id="Trazado_723030" data-name="Trazado 723030" d="M26.28,23.013l17.5-17.5-5.96,29.045Z" transform="translate(-26.28 -5.51)" fill="#b5afef"/>
              </g>
              <g id="Grupo_958640" data-name="Grupo 958640" transform="translate(0 0.016)">
                <path id="Trazado_723031" data-name="Trazado 723031" d="M37.975,35.359a.612.612,0,0,1-.456-.2L25.976,23.621a.646.646,0,0,1,0-.926L43.466,5.2a.656.656,0,0,1,.77-.117.64.64,0,0,1,.326.7L38.614,34.837a.654.654,0,0,1-.456.5.77.77,0,0,1-.183.026ZM27.358,23.164,37.583,33.39,42.853,7.67Z" transform="translate(-25.78 -5.012)"/>
              </g>
            </g>
            <g id="Grupo_958646" data-name="Grupo 958646" transform="translate(0 0.002)">
              <g id="Grupo_958642" data-name="Grupo 958642" transform="translate(0.652 0.65)">
                <path id="Trazado_723032" data-name="Trazado 723032" d="M12.86,5.5l.013,23.1,17.49,17.5L41.905,34.559Z" transform="translate(-12.86 -5.5)" fill="#feca26"/>
              </g>
              <g id="Grupo_958643" data-name="Grupo 958643">
                <path id="Trazado_723033" data-name="Trazado 723033" d="M30.515,46.9a.612.612,0,0,1-.456-.2l-17.5-17.5a.664.664,0,0,1-.2-.456V5.652a.65.65,0,0,1,.4-.6.641.641,0,0,1,.7.143L42.514,34.241a.646.646,0,0,1,0,.926L30.972,46.709a.64.64,0,0,1-.456.2ZM13.677,28.476,30.528,45.327,41.145,34.71,13.664,7.23Z" transform="translate(-12.36 -5.002)"/>
              </g>
              <g id="Grupo_958644" data-name="Grupo 958644" transform="translate(0.665 23.748)">
                <path id="Trazado_723034" data-name="Trazado 723034" d="M30.36,40.713,12.87,23.21,41.9,29.17Z" transform="translate(-12.87 -23.21)" fill="#ffd766"/>
              </g>
              <g id="Grupo_958645" data-name="Grupo 958645" transform="translate(0.003 23.093)">
                <path id="Trazado_723035" data-name="Trazado 723035" d="M30.514,41.518a.612.612,0,0,1-.456-.2l-17.5-17.5a.656.656,0,0,1-.117-.77.64.64,0,0,1,.7-.326l29.045,5.947a.654.654,0,0,1,.5.456.667.667,0,0,1-.17.652L30.971,41.322a.64.64,0,0,1-.456.2ZM15.02,24.445,30.514,39.94,40.74,29.714Z" transform="translate(-12.362 -22.708)"/>
              </g>
            </g>
            <g id="Grupo_958651" data-name="Grupo 958651" transform="translate(0.002 29.047)">
              <g id="Grupo_958647" data-name="Grupo 958647" transform="translate(0.65 0.664)">
                <path id="Trazado_723036" data-name="Trazado 723036" d="M12.86,56.825l23.1-.013,17.49-17.49L41.905,27.78Z" transform="translate(-12.86 -27.78)" fill="#97c81f"/>
              </g>
              <g id="Grupo_958648" data-name="Grupo 958648" transform="translate(0 0.022)">
                <path id="Trazado_723037" data-name="Trazado 723037" d="M13.012,57.627a.65.65,0,0,1-.6-.4.641.641,0,0,1,.143-.7L41.6,27.473a.67.67,0,0,1,.926,0L54.069,39.016a.646.646,0,0,1,0,.926l-17.5,17.477a.664.664,0,0,1-.456.2ZM42.057,28.843,14.59,56.323l21.246-.013L52.687,39.459Z" transform="translate(-12.362 -27.287)"/>
              </g>
              <g id="Grupo_958649" data-name="Grupo 958649" transform="translate(23.748 0.664)">
                <path id="Trazado_723038" data-name="Trazado 723038" d="M48.06,39.323,30.57,56.812,36.517,27.78Z" transform="translate(-30.57 -27.78)" fill="#b9dd4a"/>
              </g>
              <g id="Grupo_958650" data-name="Grupo 958650" transform="translate(23.093)">
                <path id="Trazado_723039" data-name="Trazado 723039" d="M30.723,57.619a.7.7,0,0,1-.313-.078.64.64,0,0,1-.326-.7l5.947-29.045a.654.654,0,0,1,.456-.5.667.667,0,0,1,.652.17L48.682,39.008a.646.646,0,0,1,0,.926l-17.5,17.49a.612.612,0,0,1-.456.2Zm6.352-28.367-5.269,25.72L47.3,39.477Z" transform="translate(-30.068 -27.271)"/>
              </g>
            </g>
            <g id="Grupo_958656" data-name="Grupo 958656" transform="translate(29.045 17.49)">
              <g id="Grupo_958652" data-name="Grupo 958652" transform="translate(0.652 0.678)">
                <path id="Trazado_723040" data-name="Trazado 723040" d="M64.189,59.518l-.013-23.1-17.5-17.49L35.13,30.473Z" transform="translate(-35.13 -18.93)" fill="#ff4d39"/>
              </g>
              <g id="Grupo_958653" data-name="Grupo 958653" transform="translate(0 0.026)">
                <path id="Trazado_723041" data-name="Trazado 723041" d="M64.341,60.322a.612.612,0,0,1-.456-.2L34.826,31.081a.664.664,0,0,1-.2-.456.612.612,0,0,1,.2-.456L46.368,18.626a.646.646,0,0,1,.926,0l17.5,17.5a.664.664,0,0,1,.2.456l.013,23.1a.65.65,0,0,1-.4.6.974.974,0,0,1-.261.039Zm-28.132-29.7,27.48,27.48-.013-21.259L46.825,20Z" transform="translate(-34.63 -18.43)"/>
              </g>
              <g id="Grupo_958654" data-name="Grupo 958654" transform="translate(0.652 0.678)">
                <path id="Trazado_723042" data-name="Trazado 723042" d="M46.673,18.93l17.5,17.49L35.13,30.473Z" transform="translate(-35.13 -18.93)" fill="#ff786e"/>
              </g>
              <g id="Grupo_958655" data-name="Grupo 958655" transform="translate(0.001)">
                <path id="Trazado_723043" data-name="Trazado 723043" d="M64.327,37.23a.444.444,0,0,1-.13-.013l-29.045-5.96a.654.654,0,0,1-.5-.456.667.667,0,0,1,.17-.652L46.368,18.606a.646.646,0,0,1,.926,0l17.5,17.5a.656.656,0,0,1,.117.77A.686.686,0,0,1,64.327,37.23Zm-27.728-7L62.319,35.5,46.824,20Z" transform="translate(-34.631 -18.41)"/>
              </g>
            </g>
          </g>
          <g id="Grupo_958658" data-name="Grupo 958658" transform="translate(23.708 23.703)">
            <path id="Trazado_723044" data-name="Trazado 723044" d="M40.779,24.93a6,6,0,1,1-8.491,0A6,6,0,0,1,40.779,24.93Z" transform="translate(-30.538 -23.174)" fill="#f0e8e5"/>
          </g>
          <g id="Grupo_958659" data-name="Grupo 958659" transform="translate(23.046 23.046)">
            <path id="Trazado_723045" data-name="Trazado 723045" d="M36.682,35.973a6.659,6.659,0,0,1-4.708-11.36,6.6,6.6,0,0,1,4.7-1.943h.013a6.645,6.645,0,0,1,4.7,11.347,6.5,6.5,0,0,1-4.7,1.956Zm0-11.986a5.344,5.344,0,0,0-5.347,5.347A5.263,5.263,0,0,0,32.9,33.117a5.349,5.349,0,0,0,7.565-7.565,5.263,5.263,0,0,0-3.782-1.565Z" transform="translate(-30.03 -22.67)"/>
          </g>
        </g>
      </g>
      <g id="Grupo_958666" data-name="Grupo 958666" transform="translate(48.514 62.152)">
        <g id="Grupo_958662" data-name="Grupo 958662" transform="translate(0.013)">
          <path id="Trazado_723046" data-name="Trazado 723046" d="M52.767,58.015H40.742a.652.652,0,1,1,0-1.3H52.767a3.293,3.293,0,1,0-3.3-3.3.652.652,0,0,1-1.3,0,4.6,4.6,0,1,1,4.6,4.6Z" transform="translate(-40.09 -48.82)"/>
        </g>
        <g id="Grupo_958663" data-name="Grupo 958663" transform="translate(0 15.716)">
          <path id="Trazado_723047" data-name="Trazado 723047" d="M63.609,70.065A4.609,4.609,0,0,1,59,65.474a.652.652,0,1,1,1.3,0,3.293,3.293,0,1,0,3.3-3.3H40.732a.652.652,0,0,1,0-1.3H63.609a4.6,4.6,0,0,1,0,9.195Z" transform="translate(-40.08 -60.87)"/>
        </g>
        <g id="Grupo_958664" data-name="Grupo 958664" transform="translate(6.821 11.803)">
          <path id="Trazado_723048" data-name="Trazado 723048" d="M57.492,59.174H45.962a.652.652,0,0,1,0-1.3h11.53a.652.652,0,0,1,0,1.3Z" transform="translate(-45.31 -57.87)"/>
        </g>
        <g id="Grupo_958665" data-name="Grupo 958665" transform="translate(0 11.803)">
          <path id="Trazado_723049" data-name="Trazado 723049" d="M44.058,59.174H40.732a.652.652,0,0,1,0-1.3h3.326a.652.652,0,0,1,0,1.3Z" transform="translate(-40.08 -57.87)"/>
        </g>
      </g>
    </g>
  </g>
</svg>
