<svg xmlns="http://www.w3.org/2000/svg" width="86" height="85" viewBox="0 0 86 85">
  <g id="Grupo_959282" data-name="Grupo 959282" transform="translate(-10666 9217)">
    <circle id="Elipse_6693" data-name="Elipse 6693" cx="42.5" cy="42.5" r="42.5" transform="translate(10667 -9217)" fill="#badc61"/>
    <g id="XMLID_1615_" transform="translate(10666 -9276.895)">
      <g id="XMLID_1616_" transform="translate(1.26 73.986)">
        <g id="XMLID_1617_">
          <rect id="XMLID_1618_" width="64.547" height="19.442" transform="translate(0 20.349)" fill="#fab03c"/>
          <path id="XMLID_1619_" d="M23.378,211.262a.286.286,0,0,0-.032.1.216.216,0,0,0,.034.015c8.078,3.223,18.418,5,29.116,5a89.531,89.531,0,0,0,19.552-2.079v6.519H7.5V201.37H72.047V205.5q-2.683,2.492-8.906,4.251a89.82,89.82,0,0,1-23.368,2.743,104.42,104.42,0,0,1-16.343-1.225A.489.489,0,0,0,23.378,211.262Z" transform="translate(-7.5 -181.021)" fill="#fd8f3e"/>
          <path id="XMLID_1620_" d="M90.98,172.021v10.511a5,5,0,0,1-2.478,4.312c-8.424,4.943-21.421,8.115-36.007,8.115-21.528,0-39.6-6.9-44.6-16.224a3.335,3.335,0,0,1-.393-1.579v-20.9c0-2.19,2.741-4.2,7.31-5.773,5.919-2.036,14.9-3.334,24.964-3.334s19.048,1.3,24.965,3.336c4.569,1.571,7.308,3.581,7.308,5.771,0,5.031-14.449,9.107-32.274,9.107a101.747,101.747,0,0,1-16.021-1.2,2.075,2.075,0,0,0-1.119,3.971c8.034,3.2,18.463,5.14,29.861,5.14,12.183,0,23.257-2.21,31.484-5.82A4.991,4.991,0,0,1,90.98,172.021Z" transform="translate(-7.5 -135.909)" fill="#f6cb43"/>
          <path id="XMLID_1621_" d="M100.949,150.486V154.1c0,2.666-2.77,4.732-8.234,6.143a69.963,69.963,0,0,1-16.731,1.8,69.963,69.963,0,0,1-16.731-1.8c-5.462-1.411-8.232-3.477-8.232-6.143v-3.62c5.919-2.036,14.9-3.334,24.964-3.334S95.031,148.448,100.949,150.486Z" transform="translate(-43.71 -135.909)" fill="#fab03c"/>
          <path id="XMLID_1622_" d="M435.974,270.465v10.511a5.007,5.007,0,0,1-2.486,4.317,51.68,51.68,0,0,1-11.348,4.768V268.379a58.574,58.574,0,0,0,6.848-2.486A4.987,4.987,0,0,1,435.974,270.465Z" transform="translate(-352.493 -234.353)" fill="#82807f"/>
          <ellipse id="XMLID_2255_" cx="2.246" cy="4.141" rx="2.246" ry="4.141" transform="translate(74.318 38.249)" fill="#565656"/>
          <g id="XMLID_1623_" transform="translate(9.325)">
            <path id="XMLID_1624_" d="M63.017,115.516v12.267c0,3.274,10.274,5.928,22.949,5.928s22.949-2.654,22.949-5.928V115.516Z" transform="translate(-63.017 -109.588)" fill="#f6cb43"/>
            <g id="XMLID_1625_">
              <ellipse id="XMLID_2253_" cx="22.949" cy="5.928" rx="22.949" ry="5.928" fill="#f8e98e"/>
            </g>
            <g id="XMLID_1626_" transform="translate(7.892 4.003)">
              <ellipse id="XMLID_2251_" cx="15.057" cy="2.22" rx="15.057" ry="2.22" fill="#fab03c"/>
            </g>
          </g>
        </g>
      </g>
      <g id="XMLID_1627_" transform="translate(0 72.727)">
        <path id="XMLID_1628_" d="M83.171,104.871a6.24,6.24,0,0,0-5.938-.49,61.149,61.149,0,0,1-10.166,3.36V94.335c0-2.924-3.221-5.458-9.325-7.344,0,0,0-7.165-.007-7.208-.143-3.176-5.462-4.9-9.937-5.8a1.275,1.275,0,0,0-.79,2.4,1.256,1.256,0,0,0,.544.118c6.253,1.283,7.671,2.927,7.671,3.408,0,.412-1.038,1.748-5.777,2.972a66.646,66.646,0,0,1-15.912,1.7,66.646,66.646,0,0,1-15.912-1.7c-4.739-1.224-5.777-2.56-5.777-2.972s1.038-1.748,5.777-2.972a66.646,66.646,0,0,1,15.912-1.7c2.736,0,5.412.125,7.953.372a1.26,1.26,0,0,0,.243-2.508c-2.622-.255-5.379-.384-8.2-.384A69.181,69.181,0,0,0,16.991,74.5c-5.087,1.314-7.666,3.135-7.666,5.411v7.078C3.221,88.878,0,91.409,0,94.335v20.9a4.611,4.611,0,0,0,.543,2.175c1.673,3.115,4.642,5.961,8.825,8.457a1.26,1.26,0,1,0,1.291-2.163q-1.158-.691-2.182-1.427V111.518a1.26,1.26,0,0,0-2.52,0v8.707a15.892,15.892,0,0,1-3.195-4.008,2.086,2.086,0,0,1-.243-.983v-20.9c0-1.22,1.821-3.046,6.806-4.7v2.544c0,2.277,2.579,4.1,7.666,5.411a69.19,69.19,0,0,0,16.542,1.776,69.182,69.182,0,0,0,16.542-1.776c5.087-1.314,7.666-3.135,7.666-5.411V89.637c4.987,1.654,6.806,3.481,6.806,4.7,0,2.129-4.762,4.193-8.841,5.313a1.26,1.26,0,1,0,.667,2.43,24.546,24.546,0,0,0,8.173-3.566V108.3q-2.08.428-4.247.757v-2.274a1.26,1.26,0,0,0-2.52,0v2.619c-2.113.258-4.274.444-6.467.558v-1.539a1.26,1.26,0,0,0-2.52,0v1.636q-1.265.033-2.54.034-1.888,0-3.759-.074v-.589a1.26,1.26,0,0,0-2.52,0v.458a77.11,77.11,0,0,1-23.116-4.846.748.748,0,0,1-.476-.961.769.769,0,0,1,.927-.6A103.707,103.707,0,0,0,33.534,104.7a101.626,101.626,0,0,0,17.329-1.4,1.26,1.26,0,0,0-.439-2.481,99.094,99.094,0,0,1-16.89,1.365A101.155,101.155,0,0,1,17.714,101a3.262,3.262,0,0,0-3.757,2.412c-.016.057-.026.113-.039.169a17.357,17.357,0,0,1-5.656-4.857,1.26,1.26,0,1,0-2.088,1.409c3.084,4.571,9.412,7.117,9.753,7.251h0c8.454,3.372,19.225,5.23,30.328,5.23a90.538,90.538,0,0,0,23.392-2.935v19.077a78.35,78.35,0,0,1-10.98,2.222V120.914a1.26,1.26,0,1,0-2.52,0v10.359a96.567,96.567,0,0,1-9.892.5h-.136V121.418a1.26,1.26,0,0,0-2.52,0v10.321a93.739,93.739,0,0,1-10.028-.8V120.252a1.26,1.26,0,0,0-2.52,0v10.3A74.215,74.215,0,0,1,21.024,128.2V117.4a1.26,1.26,0,0,0-2.52,0v9.952q-1.4-.508-2.724-1.069a1.26,1.26,0,1,0-.986,2.318c8.636,3.674,19.81,5.7,31.461,5.7,14.316,0,27.672-3.02,36.645-8.287a6.288,6.288,0,0,0,3.1-5.4V110.1A6.226,6.226,0,0,0,83.171,104.871ZM51.9,94.4V91.728a1.26,1.26,0,0,0-2.52,0v3.441a49.058,49.058,0,0,1-6.035,1.1V92.645a1.26,1.26,0,0,0-2.52,0v3.894c-1.928.169-3.954.271-6.035.3V92.489a1.26,1.26,0,0,0-2.52,0V96.84c-2.081-.029-4.107-.131-6.035-.3V91.8a1.26,1.26,0,0,0-2.52,0v4.478a49.061,49.061,0,0,1-6.035-1.1V90.028a1.26,1.26,0,1,0-2.52,0V94.4c-2.66-.977-3.32-1.89-3.32-2.218V83.363a20.113,20.113,0,0,0,5.147,1.962A69.19,69.19,0,0,0,33.533,87.1a69.19,69.19,0,0,0,16.542-1.776,20.115,20.115,0,0,0,5.147-1.962v8.818C55.223,92.509,54.562,93.423,51.9,94.4ZM83.48,120.61a3.759,3.759,0,0,1-1.856,3.226,48.487,48.487,0,0,1-9.459,4.155V108.946a58.708,58.708,0,0,0,6.079-2.259A3.73,3.73,0,0,1,83.48,110.1V120.61Z" transform="translate(0 -72.727)"/>
        <path id="XMLID_1632_" d="M445.956,300.439c-2,0-3.506,2.322-3.506,5.4s1.507,5.4,3.506,5.4,3.505-2.322,3.505-5.4S447.954,300.439,445.956,300.439Zm0,8.281c-.23-.038-.988-1.01-.988-2.881s.758-2.843.984-2.881c.23.038.988,1.011.988,2.881S446.183,308.682,445.958,308.72Z" transform="translate(-368.132 -262.19)"/>
        <path id="XMLID_1635_" d="M107.986,97.221c-3.293.486-5.486,1.15-5.486,2.816s2.193,2.331,5.486,2.816a78.208,78.208,0,0,0,10.831.664,78.181,78.181,0,0,0,10.831-.664c3.293-.486,5.486-1.15,5.486-2.816s-2.193-2.331-5.486-2.816a78.208,78.208,0,0,0-10.831-.664A78.208,78.208,0,0,0,107.986,97.221Zm23.1,2.816a62.588,62.588,0,0,1-12.271.96,62.588,62.588,0,0,1-12.271-.96,62.576,62.576,0,0,1,12.271-.96A62.588,62.588,0,0,1,131.087,100.037Z" transform="translate(-85.283 -92.554)"/>
      </g>
    </g>
  </g>
</svg>
