<svg xmlns="http://www.w3.org/2000/svg" width="85" height="85" viewBox="0 0 85 85">
  <g id="Grupo_959315" data-name="Grupo 959315" transform="translate(-180 -3136)">
    <circle id="Elipse_6694" data-name="Elipse 6694" cx="42.5" cy="42.5" r="42.5" transform="translate(180 3136)" fill="#badc61"/>
    <g id="cronometro" transform="translate(188.5 3137)">
      <path id="Trazado_723074" data-name="Trazado 723074" d="M192.717,63.679a25.788,25.788,0,0,1,2.728.147V54.531h-5.457v9.295A25.8,25.8,0,0,1,192.717,63.679Zm0,0" transform="translate(-158.77 -45.691)" fill="#f4b537"/>
      <path id="Trazado_723075" data-name="Trazado 723075" d="M193.933,54.531h-3.945v9.295a25.8,25.8,0,0,1,2.729-.147c.407,0,.812.012,1.216.032Zm0,0" transform="translate(-158.77 -45.691)" fill="#e59d1f"/>
      <path id="Trazado_723076" data-name="Trazado 723076" d="M292.377,98.084l3.646-6.41-4.779-2.635-3.615,6.354A32.2,32.2,0,0,1,292.377,98.084Zm0,0" transform="translate(-240.582 -74.604)" fill="#f4b537"/>
      <path id="Trazado_723077" data-name="Trazado 723077" d="M292.346,94.2l1.974-3.47-3.075-1.7-3.615,6.354a32.233,32.233,0,0,1,4.748,2.691l1.037-1.823q-.265-.142-.533-.279a1.283,1.283,0,0,1-.535-1.777Zm0,0" transform="translate(-240.582 -74.604)" fill="#e59d1f"/>
      <path id="Trazado_723078" data-name="Trazado 723078" d="M82.624,95.4,79.01,89.043l-4.779,2.634,3.646,6.41A32.135,32.135,0,0,1,82.624,95.4Zm0,0" transform="translate(-61.778 -74.607)" fill="#f4b537"/>
      <path id="Trazado_723079" data-name="Trazado 723079" d="M78.836,92.393a.816.816,0,0,1,.315-1.118l.86-.474-1-1.762-4.779,2.635,3.646,6.41A32.1,32.1,0,0,1,81,96.2Zm0,0" transform="translate(-61.778 -74.605)" fill="#e59d1f"/>
      <path id="Trazado_723080" data-name="Trazado 723080" d="M72.562,139.406A32.207,32.207,0,1,1,40.355,107.2,32.207,32.207,0,0,1,72.562,139.406Zm0,0" transform="translate(-6.408 -89.82)" fill="#54a0ff"/>
      <path id="Trazado_723081" data-name="Trazado 723081" d="M13.012,139.406A32.209,32.209,0,0,1,42.787,107.29q-1.2-.09-2.432-.091a32.207,32.207,0,1,0,0,64.414q1.226,0,2.432-.091a32.209,32.209,0,0,1-29.776-32.116Zm0,0" transform="translate(-6.409 -89.821)" fill="#338def"/>
      <path id="Trazado_723082" data-name="Trazado 723082" d="M95.358,167.671a26.738,26.738,0,1,1-26.738-26.738A26.738,26.738,0,0,1,95.358,167.671Zm0,0" transform="translate(-34.674 -118.086)" fill="#e4eaf8"/>
      <path id="Trazado_723083" data-name="Trazado 723083" d="M46.747,167.671a26.739,26.739,0,0,1,24.306-26.626c-.8-.072-1.612-.111-2.432-.111a26.738,26.738,0,1,0,0,53.476c.819,0,1.631-.039,2.432-.111a26.74,26.74,0,0,1-24.306-26.627Zm0,0" transform="translate(-34.674 -118.086)" fill="#d8dce5"/>
      <path id="Trazado_723084" data-name="Trazado 723084" d="M210.51,167.671h23.048a26.738,26.738,0,0,0-26.738-26.738v22.886a3.52,3.52,0,0,1,3.69,3.852Zm0,0" transform="translate(-172.873 -118.086)" fill="#ff6b6b"/>
      <path id="Trazado_723085" data-name="Trazado 723085" d="M211.683,141.376a26.873,26.873,0,0,0-4.863-.443v22.886a3.52,3.52,0,0,1,3.69,3.852h1.173Zm0,0" transform="translate(-172.873 -118.086)" fill="#ee5253"/>
      <path id="Trazado_723086" data-name="Trazado 723086" d="M189.411,284.282a4.176,4.176,0,1,1-4.176-4.176A4.176,4.176,0,0,1,189.411,284.282Zm0,0" transform="translate(-151.288 -234.696)" fill="#576574"/>
      <path id="Trazado_723087" data-name="Trazado 723087" d="M185.922,284.282a4.169,4.169,0,0,1,1.745-3.394,4.176,4.176,0,1,0,0,6.789A4.171,4.171,0,0,1,185.922,284.282Zm0,0" transform="translate(-151.288 -234.696)" fill="#3e4b5a"/>
      <path id="Trazado_723088" data-name="Trazado 723088" d="M157.2,7.539H138.86a2.21,2.21,0,0,0-2.2,2.2v4.525a2.21,2.21,0,0,0,2.2,2.2H157.2a2.21,2.21,0,0,0,2.2-2.2V9.743A2.209,2.209,0,0,0,157.2,7.539Zm0,0" transform="translate(-114.084 -6.317)" fill="#feca57"/>
      <path id="Trazado_723089" data-name="Trazado 723089" d="M157.2,22.124H138.86a2.21,2.21,0,0,1-2.2-2.034c0,.056-.008.112-.008.169v4.525a2.21,2.21,0,0,0,2.2,2.2H157.2a2.21,2.21,0,0,0,2.2-2.2V20.259c0-.057,0-.113-.008-.169A2.209,2.209,0,0,1,157.2,22.124Zm0,0" transform="translate(-114.084 -16.833)" fill="#f4b537"/>
      <path id="Trazado_723090" data-name="Trazado 723090" d="M53.165,48.812l-6.481,3.573a.889.889,0,0,0-.349,1.207l2.7,4.89a.888.888,0,0,0,1.207.35l6.481-3.573a.889.889,0,0,0,.35-1.208l-2.7-4.89a.889.889,0,0,0-1.207-.349Zm0,0" transform="translate(-38.312 -40.806)" fill="#feca57"/>
      <path id="Trazado_723091" data-name="Trazado 723091" d="M51.2,53.592a.888.888,0,0,1,.349-1.207l3.528-1.945-.7-1.278a.889.889,0,0,0-1.208-.35l-6.481,3.573a.889.889,0,0,0-.349,1.207l2.7,4.89a.888.888,0,0,0,1.207.35L53.19,57.2Zm0,0" transform="translate(-38.312 -40.806)" fill="#f4b537"/>
      <path id="Trazado_723092" data-name="Trazado 723092" d="M303.857,48.812l6.481,3.573a.889.889,0,0,1,.349,1.207l-2.7,4.89a.888.888,0,0,1-1.207.35L300.3,55.258a.888.888,0,0,1-.349-1.208l2.7-4.89A.889.889,0,0,1,303.857,48.812Zm0,0" transform="translate(-250.816 -40.806)" fill="#feca57"/>
      <path id="Trazado_723093" data-name="Trazado 723093" d="M305.166,55.258a.889.889,0,0,1-.349-1.207l1.991-3.612-2.952-1.627a.889.889,0,0,0-1.208.35l-2.7,4.89a.888.888,0,0,0,.35,1.207l6.481,3.573a.888.888,0,0,0,1.207-.35l.7-1.278Zm0,0" transform="translate(-250.815 -40.806)" fill="#f4b537"/>
      <path id="Trazado_723094" data-name="Trazado 723094" d="M62.192,133.395a27.954,27.954,0,1,0,27.954,27.954A27.981,27.981,0,0,0,62.192,133.395Zm25.492,26.738H67.446a5.421,5.421,0,0,0-4.038-4.038V135.856a25.326,25.326,0,0,1,10.475,2.811L72.8,140.536a1.216,1.216,0,0,0,2.106,1.216l1.077-1.864a25.681,25.681,0,0,1,7.667,7.667l-1.864,1.077A1.216,1.216,0,1,0,83,150.736l1.867-1.078a25.311,25.311,0,0,1,2.812,10.475Zm-25.492-1.745a2.96,2.96,0,1,1-2.96,2.96A2.964,2.964,0,0,1,62.192,158.388Zm13.8,24.423-1.077-1.866a1.216,1.216,0,1,0-2.106,1.216l1.079,1.869a25.339,25.339,0,0,1-10.475,2.81V184.68a1.216,1.216,0,1,0-2.432,0v2.161a25.344,25.344,0,0,1-10.476-2.81l1.079-1.869a1.216,1.216,0,1,0-2.106-1.216L48.4,182.812a25.711,25.711,0,0,1-7.667-7.667l1.866-1.077a1.216,1.216,0,1,0-1.216-2.106L39.51,173.04a25.344,25.344,0,0,1-2.81-10.476h2.161a1.216,1.216,0,0,0,0-2.432H36.7a25.339,25.339,0,0,1,2.81-10.475l1.869,1.078a1.216,1.216,0,1,0,1.216-2.106l-1.866-1.077a25.718,25.718,0,0,1,7.667-7.667l1.077,1.866a1.216,1.216,0,0,0,2.106-1.216L50.5,138.667a25.344,25.344,0,0,1,10.476-2.81V156.1a5.392,5.392,0,1,0,6.468,6.468h20.24a25.339,25.339,0,0,1-2.81,10.475L83,171.961a1.216,1.216,0,1,0-1.216,2.106l1.866,1.077a25.718,25.718,0,0,1-7.667,7.667Zm0,0" transform="translate(-28.269 -111.77)"/>
      <path id="Trazado_723095" data-name="Trazado 723095" d="M66.11,47.953a1.217,1.217,0,0,0,1.106-1.317A33.451,33.451,0,0,0,53.684,22.623l1.894-3.436a2.1,2.1,0,0,0,2.637-.931l2.7-4.891a2.1,2.1,0,0,0-.827-2.859L53.6,6.935a2.107,2.107,0,0,0-2.859.827l-2.7,4.891a2.1,2.1,0,0,0,.621,2.727l-1.851,3.357a33.311,33.311,0,0,0-8.951-2.349V11.365h5.226a3.424,3.424,0,0,0,3.42-3.42V3.42A3.424,3.424,0,0,0,43.094,0H36.76a1.216,1.216,0,0,0,0,2.432h6.334a.989.989,0,0,1,.988.988V7.945a.989.989,0,0,1-.988.987H24.752a.989.989,0,0,1-.988-.987V3.42a.989.989,0,0,1,.988-.988h6.334a1.216,1.216,0,0,0,0-2.432H24.752a3.423,3.423,0,0,0-3.42,3.42V7.945a3.424,3.424,0,0,0,3.42,3.42h5.226V16.39a33.159,33.159,0,0,0-8.948,2.354L19.176,15.38a2.108,2.108,0,0,0,.621-2.728l-2.7-4.89a2.107,2.107,0,0,0-2.859-.827h0l-6.48,3.573a2.1,2.1,0,0,0-.828,2.859l2.7,4.89a2.1,2.1,0,0,0,2.637.932l1.9,3.449A33.417,33.417,0,1,0,67.216,52.522a1.216,1.216,0,0,0-2.423-.212,30.99,30.99,0,1,1,0-5.463,1.216,1.216,0,0,0,1.317,1.106ZM17.054,16.567l1.76,3.193c-.9.456-1.778.954-2.632,1.49L14.4,18.027ZM9.222,12.479l5.908-3.257,2.38,4.317L11.6,16.8Zm43.5-3.257,5.907,3.257L56.244,16.8l-5.907-3.256ZM49.032,19.76l1.76-3.193,2.649,1.46L51.664,21.25q-1.27-.8-2.6-1.475l-.028-.015ZM32.41,16.191V11.365h3.025v4.826C34.419,16.145,33.437,16.144,32.41,16.191Zm0,0" transform="translate(0 0)"/>
    </g>
  </g>
</svg>
