<svg xmlns="http://www.w3.org/2000/svg" width="85.111" height="85.111" viewBox="0 0 85.111 85.111">
  <g id="Grupo_959316" data-name="Grupo 959316" transform="translate(-599.889 -3136)">
    <g id="tacometro" transform="translate(599.889 3136)">
      <circle id="Elipse_5641" data-name="Elipse 5641" cx="41.309" cy="41.309" r="41.309" transform="translate(1.247 1.247)" fill="#e2dfe2"/>
      <path id="Trazado_723062" data-name="Trazado 723062" d="M51.462,90.035q-1.317.082-2.653.083a41.309,41.309,0,1,1,0-82.618q1.337,0,2.653.083a41.311,41.311,0,0,0,0,82.452Z" transform="translate(-6.253 -6.253)" fill="#cbcbcb"/>
      <circle id="Elipse_5642" data-name="Elipse 5642" cx="33.876" cy="33.876" r="33.876" transform="translate(8.679 8.679)" fill="#665e66"/>
      <path id="Trazado_723063" data-name="Trazado 723063" d="M149.459,361.435c11.211,0,21.3,3.467,21.3,7.744s-10.089,7.744-21.3,7.744-21.242-3.467-21.242-7.744S138.248,361.435,149.459,361.435Z" transform="translate(-106.903 -301.353)" fill="#6bbcd5"/>
      <path id="Trazado_723064" data-name="Trazado 723064" d="M115.8,88.1a27.916,27.916,0,0,0-23.409,42.782,5.059,5.059,0,0,0,7.858.891l.172-.172a5.086,5.086,0,0,0,.68-6.3,17.564,17.564,0,1,1,29.79.054,5.044,5.044,0,0,0,.713,6.249l.173.173a5.053,5.053,0,0,0,7.843-.866A27.916,27.916,0,0,0,115.8,88.1Z" transform="translate(-73.455 -73.455)" fill="#e2dfe2"/>
      <path id="Trazado_723065" data-name="Trazado 723065" d="M338.023,137.277l-7.316,7.316a17.572,17.572,0,0,1,2.459,21.762,5.046,5.046,0,0,0,.713,6.249l.173.173a5.055,5.055,0,0,0,7.843-.866,27.92,27.92,0,0,0-3.872-34.633Z" transform="translate(-275.733 -114.457)" fill="#da4a54"/>
      <path id="Trazado_723066" data-name="Trazado 723066" d="M224.73,121.3l-12.156,17.716a7.4,7.4,0,1,0,13.488,4.726l1.561-21.429A1.587,1.587,0,0,0,224.73,121.3Z" transform="translate(-176.154 -100.556)" fill="#ecbe6b"/>
      <circle id="Elipse_5643" data-name="Elipse 5643" cx="3.224" cy="3.224" r="3.224" transform="translate(39.332 39.332)" fill="#818181"/>
      <path id="Trazado_723067" data-name="Trazado 723067" d="M73.79,13.65a1.247,1.247,0,1,0-1.83,1.694A40.084,40.084,0,1,1,68.466,12a1.247,1.247,0,1,0,1.613-1.9A42.53,42.53,0,1,0,73.79,13.65Z" transform="translate(0)"/>
      <path id="Trazado_723068" data-name="Trazado 723068" d="M79.835,44.712a35.123,35.123,0,1,0,35.123,35.123A35.163,35.163,0,0,0,79.835,44.712ZM59.206,105.1a32.626,32.626,0,0,1,41.258,0,32.563,32.563,0,0,1-41.258,0Zm43.149-1.67a35.111,35.111,0,0,0-45.039,0,32.63,32.63,0,1,1,45.039,0Z" transform="translate(-37.279 -37.279)"/>
      <path id="Trazado_723069" data-name="Trazado 723069" d="M109.755,80.595h-.222a29.181,29.181,0,0,0-28.058,36.283,1.247,1.247,0,1,0,2.418-.61,26.667,26.667,0,0,1,43.813-26.23L122.145,95.6a18.816,18.816,0,0,0-2.573-1.9l.339-4.662a2.834,2.834,0,0,0-5.163-1.809h0L112.1,91.088a18.88,18.88,0,0,0-2.168-.146h-.178A18.815,18.815,0,0,0,93.786,119.7a3.833,3.833,0,0,1-.5,4.762l-.173.173a3.812,3.812,0,0,1-5.922-.675,26.628,26.628,0,0,1-1.724-3.2,1.247,1.247,0,0,0-2.271,1.031,29.11,29.11,0,0,0,1.886,3.5,6.294,6.294,0,0,0,4.646,2.912,6.389,6.389,0,0,0,.708.04,6.258,6.258,0,0,0,4.44-1.844l.173-.173a6.316,6.316,0,0,0,.856-7.845,16.345,16.345,0,0,1,14.01-24.945c.189,0,.379.008.569.016l-7.89,11.5a8.65,8.65,0,1,0,15.759,5.522l1.013-13.908a16.326,16.326,0,0,1,4.214,21.868,6.259,6.259,0,0,0,.887,7.794l.173.173a6.267,6.267,0,0,0,4.448,1.846,6.39,6.39,0,0,0,.707-.039,6.262,6.262,0,0,0,4.624-2.888,29.162,29.162,0,0,0-24.66-44.722Zm2.637,34.8a6.156,6.156,0,0,1-7.745-9.031L116.8,88.644a.341.341,0,0,1,.62.217l-1.561,21.429a6.17,6.17,0,0,1-3.471,5.1Zm19.916,8.592a3.808,3.808,0,0,1-5.908.651l-.173-.173a3.777,3.777,0,0,1-.539-4.7,18.814,18.814,0,0,0-1.782-22.394l5.564-5.564a26.677,26.677,0,0,1,2.837,32.184Z" transform="translate(-67.2 -67.197)"/>
      <path id="Trazado_723070" data-name="Trazado 723070" d="M235.056,229.345a4.471,4.471,0,0,0-5.508,6.157h0a4.471,4.471,0,1,0,5.508-6.157Zm-.622,6a1.977,1.977,0,1,1,.925-2.639,1.964,1.964,0,0,1-.925,2.639Z" transform="translate(-191.022 -191.009)"/>
      <path id="Trazado_723071" data-name="Trazado 723071" d="M219.153,387.957a1.247,1.247,0,0,0-1.247,1.247v5.528a1.247,1.247,0,1,0,2.493,0V389.2A1.247,1.247,0,0,0,219.153,387.957Z" transform="translate(-181.683 -323.466)"/>
      <path id="Trazado_723072" data-name="Trazado 723072" d="M249.747,387.957A1.247,1.247,0,0,0,248.5,389.2v5.528a1.247,1.247,0,1,0,2.493,0V389.2A1.247,1.247,0,0,0,249.747,387.957Z" transform="translate(-207.191 -323.466)"/>
      <path id="Trazado_723073" data-name="Trazado 723073" d="M280.341,387.957a1.247,1.247,0,0,0-1.247,1.247v5.528a1.247,1.247,0,1,0,2.493,0V389.2A1.247,1.247,0,0,0,280.341,387.957Z" transform="translate(-232.699 -323.466)"/>
    </g>
  </g>
</svg>
