<svg xmlns="http://www.w3.org/2000/svg" width="42.511" height="42.587" viewBox="0 0 42.511 42.587">
  <g id="Grupo_959229" data-name="Grupo 959229" transform="translate(-173.651 -10.683)">
    <path id="Trazado_726176" data-name="Trazado 726176" d="M185.008,20.239c.784-1.553,1.519-3.007,2.253-4.462.109-.217.215-.437.312-.66a.639.639,0,0,1,.615-.454.659.659,0,0,1,.578.447c.371.759.761,1.509,1.121,2.273.136.288.2.364.483.1a9.4,9.4,0,0,1,15.575,4.4,9.108,9.108,0,0,1-1.052,7.325c-.178.3-.172.466.091.672a4.074,4.074,0,0,1,.519.515,1.419,1.419,0,0,0,1.3.643,1.364,1.364,0,0,1,1.052.514q3.026,3.032,6.049,6.066a1.717,1.717,0,0,1-.015,2.535q-.615.633-1.247,1.248a1.7,1.7,0,0,1-2.526-.006q-3.036-3.021-6.054-6.061a1.691,1.691,0,0,1-.525-1.443.481.481,0,0,0-.172-.448c-.35-.34-.7-.677-1.031-1.038-.184-.2-.32-.193-.541-.055a9.161,9.161,0,0,1-5.27,1.41,8.187,8.187,0,0,1-1.279-.147c-.3-.059-.418.017-.494.322a7.5,7.5,0,0,1-2.764,4.241A6.28,6.28,0,0,1,183.05,36.9a7.89,7.89,0,0,1-1.575-3.353c-.039-.194-.073-.345-.349-.287a6.233,6.233,0,0,1-6.937-4.173,9.626,9.626,0,0,1-.14-5.927,32.178,32.178,0,0,1,2.7-6.77c.88-1.754,1.768-3.5,2.646-5.26a.664.664,0,0,1,.573-.45.584.584,0,0,1,.577.371c1.327,2.8,2.909,5.464,4.111,8.322C184.763,19.626,184.862,19.879,185.008,20.239Z" fill="#12263f"/>
    <path id="Trazado_726177" data-name="Trazado 726177" d="M208.681,80.877a4.49,4.49,0,0,1-3.274-1.383c-.428-.424-.844-.86-1.28-1.277a3.311,3.311,0,0,0-4.651,0c-.4.387-.792.791-1.188,1.186a4.547,4.547,0,0,1-6.731.007c-.4-.4-.784-.8-1.188-1.185a3.312,3.312,0,0,0-4.683.017c-.434.418-.847.857-1.28,1.276a4.527,4.527,0,0,1-6.515-.013c-1.319-1.3-2.619-2.617-3.924-3.928-.356-.357-.391-.7-.115-.975s.612-.232.973.13q1.919,1.916,3.834,3.837a3.336,3.336,0,0,0,4.995,0c.4-.395.784-.8,1.187-1.186a4.52,4.52,0,0,1,6.388,0c.445.427.869.876,1.311,1.307a3.331,3.331,0,0,0,4.751.01,21.311,21.311,0,0,1,1.8-1.726,4.508,4.508,0,0,1,5.769.287c.452.418.879.866,1.316,1.3a3.341,3.341,0,0,0,5.026-.01q1.858-1.856,3.71-3.717a3.3,3.3,0,0,1,.246-.24.6.6,0,0,1,.866.821,1.71,1.71,0,0,1-.176.189q-1.946,1.951-3.893,3.9A4.476,4.476,0,0,1,208.681,80.877Z" transform="translate(-0.01 -33.8)" fill="#12263f"/>
    <path id="Trazado_726178" data-name="Trazado 726178" d="M208.654,94.027a4.467,4.467,0,0,1-3-1.172c-.5-.457-.959-.949-1.441-1.419a3.328,3.328,0,0,0-4.843.01c-.462.451-.905.922-1.379,1.361a4.488,4.488,0,0,1-6.127.024c-.487-.445-.938-.928-1.41-1.389a3.329,3.329,0,0,0-4.843,0c-.452.441-.884.9-1.346,1.332a4.458,4.458,0,0,1-6.187.03c-1.428-1.35-2.791-2.768-4.178-4.162a.6.6,0,1,1,.862-.829q1.907,1.9,3.8,3.806a3.367,3.367,0,0,0,5.182-.01,9.007,9.007,0,0,1,2.277-1.944,4.511,4.511,0,0,1,5.073.74c.462.43.9.889,1.348,1.331a3.341,3.341,0,0,0,4.938,0,17.584,17.584,0,0,1,1.742-1.662,4.5,4.5,0,0,1,5.7.3c.465.427.9.885,1.349,1.33a3.338,3.338,0,0,0,5,.009c1.252-1.244,2.494-2.5,3.741-3.747a2.171,2.171,0,0,1,.353-.312.53.53,0,0,1,.7.089.538.538,0,0,1,.108.7,1.308,1.308,0,0,1-.216.265q-1.975,1.983-3.954,3.96A4.559,4.559,0,0,1,208.654,94.027Z" transform="translate(-0.008 -40.765)" fill="#12263f"/>
    <path id="Trazado_726179" data-name="Trazado 726179" d="M181.366,14.967c.617,1.187,1.2,2.3,1.779,3.421a45.571,45.571,0,0,1,2.34,5.167.986.986,0,0,1-.047.849A29.9,29.9,0,0,0,183,30.912a12.292,12.292,0,0,0-.342,3.07c.008.244-.1.316-.313.363a4.379,4.379,0,0,1-4.025-1.088,6.413,6.413,0,0,1-2.037-5.726,17.461,17.461,0,0,1,1.424-5.117C178.761,19.882,180.107,17.494,181.366,14.967Z" transform="translate(-1.373 -2.272)" fill="#34bc85"/>
    <path id="Trazado_726180" data-name="Trazado 726180" d="M198.137,23.443c.351.679.663,1.3,1,1.918.108.2-.027.291-.108.413a9.459,9.459,0,0,0,4.257,14.08c.161.066.395.045.324.377a6.148,6.148,0,0,1-4.444,4.715,5.1,5.1,0,0,1-5.244-2.093,7.083,7.083,0,0,1-1.461-4.917,18.586,18.586,0,0,1,1.709-6.445C195.325,28.758,196.791,26.177,198.137,23.443Z" transform="translate(-9.97 -6.767)" fill="#fefefe"/>
    <path id="Trazado_726181" data-name="Trazado 726181" d="M213.757,22.2a8.237,8.237,0,1,1-8.221,8.2A8.215,8.215,0,0,1,213.757,22.2Z" transform="translate(-16.909 -6.11)" fill="#34bc85"/>
    <path id="Trazado_726182" data-name="Trazado 726182" d="M241.664,56.545a.607.607,0,0,1,.446.225q2.976,2.982,5.95,5.965c.34.341.337.58,0,.922q-.568.587-1.153,1.157c-.351.343-.579.35-.917.013q-2.968-2.959-5.927-5.928c-.385-.386-.38-.6-.006-.984s.749-.751,1.123-1.126A.6.6,0,0,1,241.664,56.545Z" transform="translate(-35.07 -24.321)" fill="#34bc85"/>
    <path id="Trazado_726183" data-name="Trazado 726183" d="M238.349,54.3a5.056,5.056,0,0,1-.855.832.778.778,0,0,1-.2-.149c-.265-.26-.526-.525-.788-.788l-.03-.031c-.1-.093-.2-.2-.031-.305.31-.189.466-.783.836-.626.4.172.682.629,1.014.964A.418.418,0,0,1,238.349,54.3Z" transform="translate(-33.25 -22.55)" fill="#a3d2fd"/>
    <path id="Trazado_726184" data-name="Trazado 726184" d="M180.675,40.921c.03-.244.074-.7.146-1.154.07-.432.346-.665.682-.614.38.058.579.391.5.854a4.9,4.9,0,0,0,0,2.134,2.255,2.255,0,0,0,1.65,1.848.562.562,0,0,1,.431.7.6.6,0,0,1-.712.47A2.82,2.82,0,0,1,181.65,44.1,4.737,4.737,0,0,1,180.675,40.921Z" transform="translate(-3.725 -15.095)" fill="#12263f"/>
    <path id="Trazado_726185" data-name="Trazado 726185" d="M197.608,52.412a7.853,7.853,0,0,1,.122-1.282c.078-.468.32-.693.695-.653s.566.319.5.8a6.379,6.379,0,0,0-.024,2.31,2.575,2.575,0,0,0,1.9,2.206.538.538,0,0,1,.411.7.566.566,0,0,1-.677.458,2.829,2.829,0,0,1-1.641-.867A4.821,4.821,0,0,1,197.608,52.412Z" transform="translate(-12.704 -21.101)" fill="#12263f"/>
    <path id="Trazado_726186" data-name="Trazado 726186" d="M214.773,38.783a7.348,7.348,0,1,1,7.318-7.412A7.377,7.377,0,0,1,214.773,38.783Z" transform="translate(-17.906 -7.109)" fill="#12263f"/>
    <path id="Trazado_726187" data-name="Trazado 726187" d="M216.136,38.936a6.14,6.14,0,1,1,6.111-6.159A6.161,6.161,0,0,1,216.136,38.936Z" transform="translate(-19.268 -8.471)" fill="#fefefe"/>
    <path id="Trazado_726188" data-name="Trazado 726188" d="M222,34.641a.675.675,0,0,1-.275.536q-2.788,2.045-5.579,4.087a.581.581,0,0,1-.934-.237q-.794-1.546-1.551-3.112a.563.563,0,0,1,.26-.8.569.569,0,0,1,.8.268c.369.712.738,1.424,1.074,2.151.14.3.235.338.512.131,1.526-1.139,3.067-2.258,4.606-3.381.4-.293.806-.25,1,.1A1.41,1.41,0,0,1,222,34.641Z" transform="translate(-21.178 -12.413)" fill="#12263f"/>
  </g>
</svg>
