<svg xmlns="http://www.w3.org/2000/svg" width="84.411" height="93.185" viewBox="0 0 84.411 93.185">
  <g id="_x38_1_Decree" transform="translate(-30.21 -6.74)">
    <g id="Grupo_959158" data-name="Grupo 959158" transform="translate(30.21 6.74)">
      <path id="Trazado_723442" data-name="Trazado 723442" d="M93.532,58.5v72.871A5.332,5.332,0,0,1,88.2,136.7H40.734a5.332,5.332,0,0,1-5.332-5.332V58.5a5.332,5.332,0,0,1,5.332-5.332H88.2A5.332,5.332,0,0,1,93.532,58.5Z" transform="translate(-34.432 -44.49)" fill="#ebd8ae"/>
      <path id="Trazado_723443" data-name="Trazado 723443" d="M93.529,58.484v72.871a5.325,5.325,0,0,1-5.332,5.332H40.733a5.33,5.33,0,0,1-5.332-5.332v-4.923a44.79,44.79,0,0,0,34.561-73.28H88.2A5.33,5.33,0,0,1,93.529,58.484Z" transform="translate(-34.431 -44.477)" opacity="0.12"/>
      <path id="Trazado_723444" data-name="Trazado 723444" d="M134.768,17.265V90.136a5.332,5.332,0,0,1-5.332,5.332H81.97a5.332,5.332,0,0,1-5.332-5.332V17.265a5.332,5.332,0,0,1,5.332-5.332h47.466a5.332,5.332,0,0,1,5.332,5.332Z" transform="translate(-67.96 -10.962)" fill="#e8f1f8"/>
      <path id="Trazado_723445" data-name="Trazado 723445" d="M134.757,17.265V90.136a5.336,5.336,0,0,1-5.332,5.332H81.952a5.336,5.336,0,0,1-5.332-5.332V81.854a42.713,42.713,0,0,0,38.008-69.921h14.8a5.336,5.336,0,0,1,5.332,5.332Z" transform="translate(-67.945 -10.962)" opacity="0.12"/>
      <path id="Trazado_723446" data-name="Trazado 723446" d="M428.079,357.675V329.306h9.069v28.369a3.55,3.55,0,0,1-3.55,3.55h-1.969A3.55,3.55,0,0,1,428.079,357.675Z" transform="translate(-353.708 -269.011)" fill="#f14f4a"/>
      <path id="Trazado_723447" data-name="Trazado 723447" d="M428.079,190.322h9.069V216.3h-9.069Z" transform="translate(-353.708 -156.006)" fill="#475da9"/>
      <path id="Trazado_723448" data-name="Trazado 723448" d="M428.1,357.677V329.3h3.417c-.039.9-.058,1.815-.058,2.728a62.767,62.767,0,0,0,5.669,26.15,3.548,3.548,0,0,1-3.514,3.038h-1.971A3.538,3.538,0,0,1,428.1,357.677Z" transform="translate(-353.724 -269.01)" opacity="0.12"/>
      <path id="Trazado_723449" data-name="Trazado 723449" d="M428.1,216.316V190.341h9.066v2.475a62.61,62.61,0,0,0-5.649,23.5H428.1Z" transform="translate(-353.725 -156.022)" opacity="0.12"/>
      <path id="Trazado_723450" data-name="Trazado 723450" d="M428.067,165.048l1.72-3.967a3.069,3.069,0,0,1,5.631,0l1.717,3.965Z" transform="translate(-353.698 -130.729)" fill="#f78721"/>
      <g id="Grupo_959157" data-name="Grupo 959157" transform="translate(0 0)">
        <path id="Trazado_723451" data-name="Trazado 723451" d="M127.371,83.978h37.586a.971.971,0,0,0,0-1.941H127.371a.971.971,0,0,0,0,1.941Z" transform="translate(-108.42 -67.962)"/>
        <path id="Trazado_723452" data-name="Trazado 723452" d="M127.371,142.951h37.586a.971.971,0,1,0,0-1.941H127.371a.971.971,0,0,0,0,1.941Z" transform="translate(-108.42 -115.912)"/>
        <path id="Trazado_723453" data-name="Trazado 723453" d="M127.371,201.924h37.586a.971.971,0,0,0,0-1.941H127.371a.971.971,0,0,0,0,1.941Z" transform="translate(-108.42 -163.862)"/>
        <path id="Trazado_723454" data-name="Trazado 723454" d="M127.371,260.9h37.586a.971.971,0,1,0,0-1.941H127.371a.971.971,0,1,0,0,1.941Z" transform="translate(-108.42 -211.811)"/>
        <path id="Trazado_723455" data-name="Trazado 723455" d="M153.324,318.9a.97.97,0,0,0-.971-.971H127.371a.971.971,0,1,0,0,1.941h24.983A.97.97,0,0,0,153.324,318.9Z" transform="translate(-108.42 -259.762)"/>
        <path id="Trazado_723456" data-name="Trazado 723456" d="M218.639,335.57a2.571,2.571,0,0,0-2.779,2.416,3.107,3.107,0,0,0,1.714,2.4c.721.5,1.552,1.006.895,2.449a7.241,7.241,0,0,1-1.584,1.961c-.775.766-2.242,1.974-2.757,1.011a2.7,2.7,0,0,1,.036-1.41c.494-2.867-1.117-3.82-2.565-3.4-1.748.5-2.136,2.019-2.281,3.682a7.645,7.645,0,0,1-.134,1.032c-.268,1.188-.989,1.689-1.654-.467-.526-1.707-1.481-2.654-2.758-2.593a2.753,2.753,0,0,0-2.352,2.523,9.974,9.974,0,0,1-.318,2.12c-.393.832-1.722,1.025-2.653.637a8.2,8.2,0,0,1-2.9-2.675.971.971,0,0,0-1.524,1.2,9.787,9.787,0,0,0,3.681,3.265c1.818.758,4.26.294,5.156-1.6a8.594,8.594,0,0,0,.478-2.636c.081-.5.354-.89.534-.9h.007c.209,0,.561.453.8,1.224,1.268,4.127,4.731,3.3,5.4.328a9.224,9.224,0,0,0,.175-1.3c.067-.778.123-1.767.877-1.981.386-.111.2.72.121,1.207a4.034,4.034,0,0,0,.164,2.653c.783,1.466,2.99,2.265,5.834-.544a8.841,8.841,0,0,0,1.985-2.536c.937-2.056.282-3.582-1.557-4.853-.526-.363-.871-.618-.876-.849,0-.163.353-.455.751-.433a3.9,3.9,0,0,1,1.808.835.971.971,0,1,0,1.081-1.613A5.589,5.589,0,0,0,218.639,335.57Z" transform="translate(-164.045 -274.1)"/>
        <path id="Trazado_723457" data-name="Trazado 723457" d="M448.115,398.769a.97.97,0,0,0,.971-.971v-14.18a.971.971,0,0,0-1.941,0V397.8A.97.97,0,0,0,448.115,398.769Z" transform="translate(-369.21 -312.382)"/>
        <path id="Trazado_723458" data-name="Trazado 723458" d="M433.806,151.789l-1.71-3.951a3.974,3.974,0,0,0-2.738-2.311V144.39a.971.971,0,1,0-1.941,0v1.139a3.971,3.971,0,0,0-2.734,2.309l-1.72,3.967v.007a1.128,1.128,0,0,0-.076.375c0,.864,0,.035,0,54.348a4.526,4.526,0,0,0,4.522,4.521h1.968a4.526,4.526,0,0,0,4.522-4.521V152.186A1.7,1.7,0,0,0,433.806,151.789Zm-8.98,1.371h7.127v24.034h-7.128Zm1.637-4.551a2.1,2.1,0,0,1,3.85,0l1.128,2.606h-6.109Zm5.49,57.925a2.583,2.583,0,0,1-2.58,2.579h-1.968a2.583,2.583,0,0,1-2.58-2.579v-27.4h7.128v27.4Z" transform="translate(-349.484 -117.871)"/>
        <path id="Trazado_723459" data-name="Trazado 723459" d="M91.687,6.74H44.22a6.31,6.31,0,0,0-6.3,6.3v1.4h-1.4a6.31,6.31,0,0,0-6.3,6.3V93.622a6.31,6.31,0,0,0,6.3,6.3H83.979a6.31,6.31,0,0,0,6.3-6.3v-1.4h1.4a6.31,6.31,0,0,0,6.3-6.3V13.043a6.31,6.31,0,0,0-6.3-6.3ZM88.34,93.622a4.366,4.366,0,0,1-4.361,4.361H36.513a4.366,4.366,0,0,1-4.361-4.361V20.75a4.366,4.366,0,0,1,4.361-4.361h1.4V85.914a6.31,6.31,0,0,0,6.3,6.3H88.34Zm7.708-7.708a4.366,4.366,0,0,1-4.361,4.361H44.22a4.366,4.366,0,0,1-4.361-4.361V13.043A4.366,4.366,0,0,1,44.22,8.681H91.687a4.366,4.366,0,0,1,4.361,4.361V85.914Z" transform="translate(-30.21 -6.74)"/>
      </g>
    </g>
  </g>
</svg>
